<?xml version="1.0" encoding="UTF-8" standalone="no"?>
<!-- Created with Inkscape (http://www.inkscape.org/) -->

<svg
   version="1.1"
   id="svg1"
   width="410"
   height="410"
   viewBox="0 0 410 410"
   xmlns="http://www.w3.org/2000/svg"
   xmlns:svg="http://www.w3.org/2000/svg">
  <defs
     id="defs1" />
  <g
     id="g1">
    <path
       style="fill:#000000;stroke-width:1.18274"
       d="m 33.503189,398.68944 c -4.252919,-1.3946 -7.921248,-3.94828 -13.062273,-9.09323 -8.949117,-8.95591 -11.1838268,-15.112 -11.1838268,-30.80875 0,-15.6993 2.2346748,-21.85419 11.1838268,-30.80334 8.949152,-8.94916 15.104031,-11.18382 30.803322,-11.18382 15.699302,0 21.854181,2.23466 30.803338,11.18382 8.949153,8.94915 11.183815,15.10404 11.183815,30.80334 0,15.69928 -2.234662,21.85418 -11.183815,30.80332 -5.40278,5.40278 -8.698216,7.64133 -13.493787,9.16621 -8.330322,2.64884 -26.875856,2.6131 -35.0506,-0.0675 z m 30.836782,-13.05557 c 10.682654,-5.50315 16.410257,-14.87325 16.410257,-26.84641 0,-9.19014 -1.85485,-13.91302 -8.053455,-20.50585 -6.143477,-6.53422 -12.007674,-8.99232 -21.452535,-8.99232 -9.444849,0 -15.309059,2.4581 -21.452524,8.99232 -6.198604,6.59283 -8.053466,11.31571 -8.053466,20.50585 0,13.92945 7.983921,24.59092 21.81055,29.12508 4.700597,1.54147 15.719918,0.33378 20.791173,-2.27867 z m -27.406846,-12.5353 c -3.956952,-3.95696 -4.021305,-4.18597 -4.021305,-14.31111 0,-10.12516 0.06434,-10.35417 4.021305,-14.31113 3.956963,-3.95694 4.185966,-4.02129 14.311113,-4.02129 10.125159,0 10.354161,0.0643 14.311113,4.02129 3.956963,3.95696 4.021304,4.18597 4.021304,14.31113 0,10.12514 -0.06434,10.35415 -4.021304,14.31111 -3.956952,3.95695 -4.185954,4.0213 -14.311113,4.0213 -10.125147,0 -10.35415,-0.0643 -14.311113,-4.0213 z m 80.628845,24.63471 c -2.38001,-2.38001 -2.36189,-5.0868 0.052,-7.75399 1.7588,-1.94343 1.7588,-2.26271 0,-4.0215 -1.05081,-1.05075 -1.91051,-2.85442 -1.91051,-4.00814 0,-2.53157 3.59991,-6.01252 6.21801,-6.01252 4.728,0 7.49852,7.60438 3.86822,10.61726 -1.53089,1.27053 -1.52463,1.66151 0.0519,3.23803 1.6022,1.60219 2.03417,1.57476 4.05895,-0.25764 4.8081,-4.35126 12.08788,2.04529 8.62549,7.57899 -1.60036,2.55774 -6.73864,3.01745 -8.95492,0.80117 -1.58686,-1.58685 -1.98023,-1.59462 -3.25036,-0.0642 -1.89465,2.28292 -6.41898,2.22225 -8.75868,-0.11744 z m 35.4821,0 c -2.46945,-2.46945 -2.35019,-5.60907 0.30433,-8.01136 2.74429,-2.48355 5.41628,-2.48841 7.89035,-0.0143 1.76643,1.76642 2.11202,1.77411 3.80166,0.0845 1.68961,-1.68964 1.68193,-2.03523 -0.0845,-3.80166 -2.54846,-2.54845 -2.46376,-5.66722 0.21985,-8.09585 2.74429,-2.48354 5.41628,-2.48841 7.89034,-0.0143 1.76643,1.76642 2.11203,1.7741 3.80166,0.0845 1.68962,-1.68962 1.68194,-2.03523 -0.0845,-3.80166 -2.46026,-2.46026 -2.47144,-5.14359 -0.0326,-7.83846 1.7588,-1.94344 1.7588,-2.26271 0,-4.02151 -2.42929,-2.42927 -2.42929,-5.12153 0,-7.80586 1.70714,-1.88637 1.71965,-2.30185 0.11744,-3.90405 -1.57651,-1.5765 -1.96749,-1.58277 -3.23802,-0.0519 -3.01288,3.6303 -10.61726,0.85978 -10.61726,-3.86822 0,-1.04069 0.85971,-2.84215 1.91046,-4.00322 1.7588,-1.94345 1.7588,-2.26271 0,-4.0215 -1.05078,-1.05071 -1.91048,-2.7619 -1.91048,-3.8026 0,-1.04069 0.8597,-2.84214 1.91046,-4.00322 1.75879,-1.94344 1.75879,-2.2627 0,-4.02151 -1.05076,-1.05075 -1.91046,-2.85442 -1.91046,-4.00814 0,-2.53156 3.59991,-6.01251 6.21801,-6.01251 4.728,0 7.49852,7.60438 3.86822,10.61726 -1.53089,1.27053 -1.52463,1.66151 0.0519,3.23802 1.6022,1.6022 2.01768,1.5897 3.90405,-0.11744 2.69488,-2.43883 5.3782,-2.42766 7.83847,0.0326 1.76643,1.76642 2.11202,1.77411 3.80166,0.0845 1.68962,-1.68963 1.68193,-2.03523 -0.0845,-3.80166 -2.46027,-2.46026 -2.47144,-5.14359 -0.0326,-7.83847 1.75881,-1.94343 1.75881,-2.2627 0,-4.0215 -1.05079,-1.05076 -1.9105,-2.76195 -1.9105,-3.80265 0,-1.04069 0.85971,-2.84215 1.91046,-4.00322 1.70715,-1.88637 1.71965,-2.30185 0.11745,-3.90405 -1.57652,-1.5765 -1.9675,-1.58277 -3.23803,-0.0519 -3.01288,3.6303 -10.61726,0.85978 -10.61726,-3.86822 0,-1.0407 0.85971,-2.84215 1.91046,-4.00323 1.70715,-1.88637 1.71966,-2.30185 0.11745,-3.90405 -1.57651,-1.5765 -1.9675,-1.58277 -3.23803,-0.052 -0.79475,0.95762 -2.6724,1.74113 -4.17255,1.74113 -1.50015,0 -3.51105,-0.78351 -4.46866,-1.74113 -1.53303,-1.53302 -1.91386,-1.53302 -3.18615,0 -3.01288,3.6303 -10.61726,0.85978 -10.61726,-3.86822 0,-1.04069 0.8597,-2.84214 1.91045,-4.00322 1.75881,-1.94344 1.75881,-2.26271 0,-4.02151 -1.05073,-1.05066 -1.91043,-2.85432 -1.91043,-4.00805 0,-2.53156 3.59992,-6.01251 6.21801,-6.01251 4.728,0 7.49853,7.60438 3.86823,10.61727 -1.5309,1.27053 -1.52464,1.6615 0.052,3.23801 1.60219,1.6022 2.01768,1.5897 3.90404,-0.11744 2.69488,-2.43882 5.37821,-2.42766 7.83847,0.0326 1.76643,1.76642 2.11203,1.77411 3.80166,0.0845 1.68963,-1.68963 1.68194,-2.03523 -0.0845,-3.80166 -2.54845,-2.54844 -2.46377,-5.6672 0.21986,-8.09584 2.73363,-2.47391 5.41475,-2.48993 7.85772,-0.0469 1.75881,1.75879 2.09036,1.74766 4.17642,-0.14019 4.80809,-4.35126 12.08787,2.04529 8.62548,7.579 -1.57478,2.51685 -6.83295,3.04323 -8.8153,0.88247 -1.39352,-1.51897 -1.83621,-1.51056 -3.60642,0.0684 -1.76669,1.57583 -1.80351,2.01433 -0.29569,3.52214 2.22093,2.22093 2.21094,6.7717 -0.0189,8.62232 -1.5309,1.27053 -1.52463,1.66151 0.052,3.23803 1.6022,1.60219 2.01768,1.58968 3.90405,-0.11745 2.69488,-2.43883 5.37819,-2.42767 7.83847,0.0326 1.76643,1.76642 2.11202,1.7741 3.80166,0.0845 1.68962,-1.68963 1.68193,-2.03522 -0.0845,-3.80165 -2.54845,-2.54846 -2.46377,-5.66722 0.21984,-8.09585 2.73365,-2.47392 5.41476,-2.48993 7.85774,-0.0469 1.7588,1.7588 2.07807,1.7588 4.0215,0 1.16109,-1.05076 2.96253,-1.91047 4.00323,-1.91047 4.728,0 7.49852,7.60438 3.86822,10.61727 -1.53302,1.27229 -1.53302,1.65312 0,3.18615 0.95763,0.95761 1.74113,2.96852 1.74113,4.46866 0,1.50015 -0.7835,3.3778 -1.74113,4.17255 -1.5309,1.27054 -1.52463,1.66151 0.052,3.23802 1.6022,1.6022 2.03417,1.57477 4.05895,-0.25763 4.8081,-4.35126 12.08788,2.04528 8.62549,7.57899 -1.60037,2.55774 -6.73864,3.01746 -8.95493,0.80118 -1.58684,-1.58686 -1.98022,-1.59463 -3.25036,-0.0642 -3.01288,3.63031 -10.61726,0.85978 -10.61726,-3.86822 0,-1.04069 0.85971,-2.84214 1.91047,-4.00323 1.70714,-1.88637 1.71965,-2.30185 0.11744,-3.90404 -1.57651,-1.57651 -1.96749,-1.58278 -3.23803,-0.0519 -1.85061,2.22985 -6.40138,2.23983 -8.62231,0.0189 -1.50781,-1.50781 -1.94631,-1.47099 -3.52214,0.29568 -1.54413,1.73115 -1.56351,2.23464 -0.13636,3.54297 2.17249,1.99161 2.1298,6.66887 -0.0776,8.50084 -1.5309,1.27053 -1.52463,1.66151 0.052,3.23802 1.60219,1.6022 2.01767,1.5897 3.90404,-0.11744 1.16109,-1.05076 2.96253,-1.91047 4.00322,-1.91047 4.72801,0 7.49854,7.60438 3.86822,10.61727 -1.53301,1.27229 -1.53301,1.65312 0,3.18615 2.10383,2.10383 2.27098,6.48291 0.32185,8.43203 -1.94912,1.94914 -6.3282,1.78199 -8.43204,-0.32184 -1.53303,-1.53301 -1.91385,-1.53301 -3.18615,0 -1.83196,2.20738 -6.50922,2.25006 -8.50083,0.0776 -1.30833,-1.42715 -1.81182,-1.40777 -3.54297,0.13637 -1.76667,1.57582 -1.8035,2.01433 -0.29569,3.52213 2.22093,2.22094 2.21095,6.7717 -0.0189,8.62232 -1.53302,1.2723 -1.53302,1.65312 0,3.18615 2.23737,2.23737 2.23737,6.78437 0,8.64122 -1.53089,1.27053 -1.52462,1.66151 0.052,3.23802 1.6022,1.6022 2.03417,1.57477 4.05896,-0.25763 4.8081,-4.35127 12.08787,2.04528 8.62548,7.57899 -1.57477,2.51686 -6.83295,3.04324 -8.8153,0.88247 -1.39352,-1.51897 -1.83621,-1.51055 -3.60642,0.0684 -1.76668,1.57582 -1.8035,2.01433 -0.29569,3.52213 2.22094,2.22094 2.21096,6.7717 -0.0189,8.62232 -1.53301,1.27229 -1.53301,1.65312 0,3.18615 2.10383,2.10383 2.27098,6.48292 0.32185,8.43204 -1.94913,1.94913 -6.32821,1.78198 -8.43204,-0.32185 -1.53303,-1.53301 -1.91385,-1.53301 -3.18615,0 -0.79475,0.95763 -2.6724,1.74113 -4.17255,1.74113 -1.50015,0 -3.51105,-0.7835 -4.46866,-1.74113 -1.53303,-1.53301 -1.91386,-1.53301 -3.18615,0 -1.89465,2.28292 -6.41898,2.22225 -8.75868,-0.11744 z m 24.11541,-8.13902 c 1.11984,-1.34929 1.08743,-2.08775 -0.15085,-3.43766 -1.37835,-1.50262 -1.82931,-1.49423 -3.57932,0.0666 -1.57331,1.40318 -1.7,2.13001 -0.59137,3.39266 1.82413,2.07757 2.58258,2.07378 4.32154,-0.0215 z m 0,-47.30946 c 1.11984,-1.3493 1.08743,-2.08776 -0.15085,-3.43766 -1.37835,-1.50262 -1.82931,-1.49423 -3.57932,0.0666 -1.57331,1.40318 -1.7,2.13001 -0.59137,3.39266 1.82413,2.07756 2.58258,2.07378 4.32154,-0.0216 z m 23.65474,-11.82736 c 1.11983,-1.34931 1.08742,-2.08776 -0.15086,-3.43766 -1.37835,-1.50262 -1.82931,-1.49424 -3.57931,0.0666 -1.57332,1.40319 -1.70001,2.13002 -0.59137,3.39267 1.82412,2.07755 2.58257,2.07378 4.32154,-0.0216 z m 11.82737,-35.48211 c 1.11982,-1.34929 1.08742,-2.08775 -0.15086,-3.43766 -1.37835,-1.50262 -1.82932,-1.49422 -3.57931,0.0666 -1.57332,1.40318 -1.70001,2.13001 -0.59137,3.39267 1.82411,2.07756 2.58257,2.07377 4.32154,-0.0215 z M 247.663,397.73328 c -2.38002,-2.38001 -2.3619,-5.0868 0.052,-7.75399 1.7588,-1.94343 1.7588,-2.26271 0,-4.0215 -1.0508,-1.05075 -1.91051,-2.76195 -1.91051,-3.80264 0,-1.04069 0.85971,-2.84215 1.91046,-4.00322 1.75881,-1.94345 1.75881,-2.26271 0,-4.02151 -2.42928,-2.42927 -2.42928,-5.12154 0,-7.80586 1.70715,-1.88637 1.71966,-2.30185 0.11745,-3.90404 -1.57651,-1.57652 -1.9675,-1.58278 -3.23803,-0.052 -0.79474,0.95764 -2.6724,1.74113 -4.17255,1.74113 -1.50015,0 -3.51105,-0.78349 -4.46866,-1.74113 -1.53303,-1.533 -1.91386,-1.533 -3.18615,0 -1.85062,2.22985 -6.40139,2.23983 -8.62232,0.0189 -1.50781,-1.50781 -1.94631,-1.47099 -3.52214,0.29569 -1.54413,1.73114 -1.56351,2.23463 -0.13636,3.54297 2.17249,1.9916 2.1298,6.66887 -0.0776,8.50083 -1.53091,1.27054 -1.52464,1.66151 0.052,3.23802 1.6022,1.6022 2.03417,1.57477 4.05895,-0.25763 4.80809,-4.35126 12.08788,2.04528 8.62549,7.57899 -1.60037,2.55774 -6.73865,3.01746 -8.95493,0.80118 -1.58686,-1.58686 -1.98024,-1.59463 -3.25036,-0.0642 -1.85685,2.23737 -6.40385,2.23737 -8.64122,0 -1.53303,-1.53301 -1.91386,-1.53301 -3.18615,0 -3.08947,3.72259 -10.61728,0.83427 -10.61728,-4.07368 0,-2.53157 3.59992,-6.01252 6.21801,-6.01252 1.0407,0 2.76657,0.87439 3.83525,1.94308 1.76643,1.76641 2.11202,1.7741 3.80165,0.0845 1.68963,-1.68963 1.68194,-2.03523 -0.0845,-3.80166 -2.46027,-2.46027 -2.47143,-5.14359 -0.0326,-7.83846 1.7588,-1.94344 1.7588,-2.26271 0,-4.02151 -2.51794,-2.51794 -2.42005,-5.64466 0.25246,-8.06323 2.73364,-2.47392 5.41476,-2.48994 7.85773,-0.0469 1.7588,1.75881 2.07807,1.75881 4.0215,0 2.68434,-2.42928 5.3766,-2.42928 7.80587,0 1.7588,1.75881 2.07807,1.75881 4.02151,0 2.69487,-2.43882 5.37819,-2.42766 7.83846,0.0326 1.76643,1.76641 2.11203,1.7741 3.80166,0.0845 1.68962,-1.68964 1.68194,-2.03523 -0.0845,-3.80166 -2.46028,-2.46028 -2.47144,-5.14359 -0.0326,-7.83847 1.7588,-1.94343 1.7588,-2.26271 0,-4.0215 -2.51795,-2.51795 -2.42006,-5.64467 0.25246,-8.06324 2.73365,-2.47392 5.41475,-2.48994 7.85774,-0.0469 1.75879,1.7588 2.07806,1.7588 4.0215,0 1.16107,-1.05076 2.96253,-1.91047 4.00322,-1.91047 1.0407,0 2.75189,0.85971 3.80264,1.91047 1.75879,1.7588 2.07807,1.7588 4.0215,0 2.69488,-2.43883 5.3782,-2.42766 7.83847,0.0326 1.76643,1.76642 2.11203,1.77411 3.80166,0.0845 1.68962,-1.68964 1.68194,-2.03523 -0.0845,-3.80166 -2.54845,-2.54846 -2.46377,-5.66722 0.21984,-8.09585 2.7443,-2.48355 5.41629,-2.4884 7.89035,-0.0143 1.76643,1.76642 2.11203,1.77411 3.80166,0.0845 1.68963,-1.68963 1.68193,-2.03522 -0.0845,-3.80165 -2.46027,-2.46027 -2.47144,-5.14359 -0.0326,-7.83847 1.70715,-1.88637 1.71965,-2.30186 0.11744,-3.90405 -1.57651,-1.5765 -1.96749,-1.58277 -3.23803,-0.052 -3.01287,3.6303 -10.61725,0.85977 -10.61725,-3.86823 0,-1.04068 0.85971,-2.84214 1.91046,-4.00321 1.7588,-1.94345 1.7588,-2.26271 0,-4.02152 -2.42929,-2.42926 -2.42929,-5.12153 0,-7.80585 1.70715,-1.88637 1.71965,-2.30186 0.11745,-3.90405 -1.57652,-1.57651 -1.9675,-1.58278 -3.23803,-0.052 -0.79475,0.95764 -2.67241,1.74113 -4.17255,1.74113 -1.50015,0 -3.51105,-0.78349 -4.46867,-1.74113 -1.53302,-1.53301 -1.91385,-1.53301 -3.18615,0 -1.83196,2.20738 -6.50922,2.25006 -8.50083,0.0776 -1.30834,-1.42715 -1.81182,-1.40777 -3.54297,0.13636 -1.76668,1.57583 -1.8035,2.01434 -0.29569,3.52214 2.22094,2.22094 2.21096,6.7717 -0.0189,8.62232 -1.53301,1.2723 -1.53301,1.65312 0,3.18615 0.95763,0.95761 1.74113,2.96852 1.74113,4.46867 0,1.50014 -0.7835,3.37779 -1.74113,4.17255 -1.5309,1.27053 -1.52463,1.6615 0.052,3.23802 1.60219,1.6022 2.03416,1.57477 4.05894,-0.25763 4.8081,-4.35127 12.08788,2.04528 8.62549,7.57898 -1.60036,2.55774 -6.73864,3.01746 -8.95492,0.80118 -1.58685,-1.58686 -1.98023,-1.59463 -3.25037,-0.0642 -3.01288,3.6303 -10.61726,0.85977 -10.61726,-3.86822 0,-1.04069 0.85971,-2.84215 1.91047,-4.00322 1.70714,-1.88637 1.71965,-2.30185 0.11744,-3.90405 -1.57651,-1.57651 -1.96749,-1.58277 -3.23802,-0.052 -3.01288,3.63031 -10.61726,0.85977 -10.61726,-3.86822 0,-1.04069 0.85971,-2.84214 1.91046,-4.00322 1.75879,-1.94344 1.75879,-2.2627 0,-4.0215 -2.51795,-2.51795 -2.42006,-5.64467 0.25245,-8.06324 2.7443,-2.48355 5.41629,-2.48841 7.89035,-0.0143 1.76642,1.76642 2.11203,1.77412 3.80165,0.0845 1.68963,-1.68964 1.68194,-2.03523 -0.0845,-3.80166 -2.54846,-2.54845 -2.46378,-5.66722 0.21984,-8.09585 2.73365,-2.47392 5.41477,-2.48993 7.85774,-0.0469 1.75879,1.75879 2.07807,1.75879 4.0215,0 1.16108,-1.05077 2.96254,-1.91047 4.00322,-1.91047 1.04071,0 2.75189,0.8597 3.80265,1.91047 1.7588,1.75879 2.07807,1.75879 4.0215,0 1.16108,-1.05077 2.96253,-1.91047 4.00322,-1.91047 1.04071,0 2.75189,0.8597 3.80264,1.91047 1.7588,1.75879 2.07807,1.75879 4.0215,0 1.16109,-1.05077 2.96254,-1.91047 4.00322,-1.91047 4.72801,0 7.49854,7.60438 3.86822,10.61726 -1.53089,1.27053 -1.52462,1.66152 0.052,3.23803 1.60219,1.60219 2.01767,1.58969 3.90404,-0.11745 1.16108,-1.05075 2.96253,-1.91046 4.00322,-1.91046 4.728,0 7.49852,7.60438 3.86822,10.61726 -1.53089,1.27053 -1.52462,1.66151 0.052,3.23803 1.6022,1.60219 2.01768,1.58968 3.90405,-0.11745 1.16109,-1.05075 2.96253,-1.91046 4.00323,-1.91046 1.0407,0 2.75188,0.85971 3.80263,1.91046 1.75881,1.7588 2.07807,1.7588 4.02152,0 1.16107,-1.05075 2.96252,-1.91046 4.00321,-1.91046 1.0407,0 2.75188,0.85971 3.80264,1.91046 1.7588,1.7588 2.07807,1.7588 4.02151,0 2.68432,-2.42929 5.37659,-2.42929 7.80585,0 1.75881,1.7588 2.07807,1.7588 4.02152,0 1.16107,-1.05075 2.96253,-1.91046 4.00321,-1.91046 1.0407,0 2.75188,0.85971 3.80265,1.91046 1.75879,1.7588 2.09036,1.74767 4.1764,-0.14018 4.8081,-4.35126 12.08788,2.04528 8.62549,7.57899 -1.59463,2.54858 -6.73572,3.02039 -8.93602,0.82008 -1.59343,-1.59342 -1.98091,-1.56842 -3.58636,0.23146 -1.54413,1.73115 -1.5635,2.23465 -0.13635,3.54297 2.17248,1.99162 2.12979,6.66887 -0.0776,8.50085 -1.53302,1.27228 -1.53302,1.65312 0,3.18615 2.23736,2.23737 2.23736,6.78436 0,8.64121 -1.53302,1.2723 -1.53302,1.65312 0,3.18615 0.95762,0.95762 1.74113,2.96852 1.74113,4.46867 0,1.50014 -0.78351,3.37779 -1.74113,4.17255 -1.53302,1.27229 -1.53302,1.65312 0,3.18615 2.10382,2.10383 2.27097,6.4829 0.32184,8.43203 -1.92456,1.92457 -6.42494,1.79198 -8.29166,-0.24427 -1.30833,-1.42715 -1.81182,-1.40777 -3.54297,0.13636 -1.79989,1.60545 -1.82489,1.99292 -0.23147,3.58635 2.20032,2.20032 1.72851,7.3414 -0.82008,8.93603 -5.5337,3.46239 -11.93024,-3.81739 -7.57898,-8.62548 1.8324,-2.0248 1.85982,-2.45677 0.25764,-4.05896 -1.57653,-1.57651 -1.9675,-1.58278 -3.23803,-0.0519 -1.85062,2.22985 -6.40139,2.23983 -8.62232,0.0189 -1.5078,-1.50781 -1.94631,-1.47099 -3.52214,0.29568 -1.57898,1.77022 -1.58738,2.2129 -0.0684,3.60643 2.16076,1.98234 1.63439,7.24052 -0.88248,8.8153 -5.5337,3.46239 -11.93025,-3.81739 -7.57899,-8.62549 1.83241,-2.02479 1.85984,-2.45675 0.25764,-4.05894 -1.57652,-1.57651 -1.96749,-1.58278 -3.23803,-0.052 -0.79475,0.95763 -2.6724,1.74112 -4.17255,1.74112 -1.50014,0 -3.51105,-0.78349 -4.46866,-1.74112 -1.53303,-1.53301 -1.91386,-1.53301 -3.18615,0 -1.85062,2.22984 -6.40138,2.23983 -8.62232,0.0189 -1.5078,-1.50781 -1.94631,-1.47099 -3.52214,0.29569 -1.54413,1.73114 -1.56351,2.23463 -0.13636,3.54297 2.03625,1.8667 2.16884,6.36709 0.24427,8.29165 -1.94912,1.94913 -6.3282,1.78199 -8.43203,-0.32184 -1.53303,-1.53302 -1.91386,-1.53302 -3.18615,0 -1.85062,2.22984 -6.40138,2.23983 -8.62232,0.0189 -1.50781,-1.50782 -1.94631,-1.471 -3.52214,0.29569 -1.54414,1.73114 -1.56351,2.23463 -0.13636,3.54297 2.17248,1.9916 2.1298,6.66887 -0.0776,8.50083 -1.53302,1.27229 -1.53302,1.65312 0,3.18615 0.95762,0.95761 1.74113,2.96852 1.74113,4.46866 0,1.50015 -0.78351,3.3778 -1.74113,4.17256 -1.53302,1.27229 -1.53302,1.65312 0,3.18615 2.10383,2.10382 2.27097,6.4829 0.32185,8.43204 -1.99026,1.99024 -6.34363,1.76656 -8.5495,-0.43931 z m 12.28805,-43.62111 c 1.11983,-1.34931 1.08742,-2.08776 -0.15085,-3.43766 -1.37836,-1.50262 -1.82932,-1.49424 -3.57932,0.0666 -1.57331,1.40319 -1.70001,2.13001 -0.59138,3.39267 1.82413,2.07756 2.58258,2.07378 4.32155,-0.0216 z m 11.82736,0 c 1.11984,-1.34931 1.08742,-2.08776 -0.15085,-3.43766 -1.37836,-1.50262 -1.82932,-1.49424 -3.57932,0.0666 -1.57331,1.40319 -1.70001,2.13001 -0.59137,3.39267 1.82413,2.07756 2.58258,2.07378 4.32154,-0.0216 z M 259.95105,342.2848 c 1.11983,-1.3493 1.08742,-2.08776 -0.15085,-3.43766 -1.37836,-1.50262 -1.82932,-1.49423 -3.57932,0.0666 -1.57331,1.40318 -1.70001,2.13001 -0.59138,3.39266 1.82413,2.07756 2.58258,2.07378 4.32155,-0.0216 z m 11.82736,0 c 1.11984,-1.3493 1.08742,-2.08776 -0.15085,-3.43766 -1.37836,-1.50262 -1.82932,-1.49423 -3.57932,0.0666 -1.57331,1.40318 -1.70001,2.13001 -0.59137,3.39266 1.82413,2.07756 2.58258,2.07378 4.32154,-0.0216 z m 11.82737,0 c 1.11983,-1.3493 1.08742,-2.08776 -0.15085,-3.43766 -1.37835,-1.50262 -1.82932,-1.49423 -3.57933,0.0666 -1.5733,1.40318 -1.69999,2.13001 -0.59137,3.39266 1.82413,2.07756 2.58258,2.07378 4.32155,-0.0216 z m 11.82736,0 c 1.11983,-1.3493 1.08742,-2.08776 -0.15085,-3.43766 -1.37835,-1.50262 -1.82932,-1.49423 -3.57932,0.0666 -1.57331,1.40318 -1.7,2.13001 -0.59136,3.39266 1.82412,2.07756 2.58257,2.07378 4.32153,-0.0216 z m 11.87358,-0.0557 c 1.92287,-2.31695 5.26136,-2.25747 7.65517,0.13635 1.7588,1.7588 2.07807,1.7588 4.0215,0 1.16109,-1.05075 2.96253,-1.91047 4.00322,-1.91047 1.04071,0 2.75189,0.85972 3.80265,1.91047 1.7588,1.7588 2.07806,1.7588 4.0215,0 2.69488,-2.43883 5.3782,-2.42766 7.83847,0.0326 1.76643,1.76642 2.11202,1.77411 3.80166,0.0845 1.68962,-1.68963 1.68193,-2.03523 -0.0845,-3.80166 -2.46026,-2.46026 -2.47142,-5.14359 -0.0326,-7.83847 1.75881,-1.94343 1.75881,-2.2627 0,-4.0215 -1.05075,-1.05075 -1.91045,-2.76193 -1.91045,-3.80264 0,-1.04069 0.8597,-2.84214 1.91045,-4.00322 1.75881,-1.94344 1.75881,-2.2627 0,-4.0215 -1.05075,-1.05076 -1.91045,-2.76195 -1.91045,-3.80265 0,-1.04068 0.8597,-2.84214 1.91045,-4.00322 1.70716,-1.88637 1.71965,-2.30185 0.11745,-3.90404 -1.57652,-1.57651 -1.96749,-1.58278 -3.23802,-0.0519 -0.79476,0.95762 -2.6724,1.74113 -4.17255,1.74113 -1.50016,0 -3.51105,-0.78351 -4.46866,-1.74113 -1.53303,-1.53302 -1.91386,-1.53302 -3.18615,0 -0.79476,0.95762 -2.67241,1.74113 -4.17257,1.74113 -1.50014,0 -3.51104,-0.78351 -4.46865,-1.74113 -1.53303,-1.53302 -1.91387,-1.53302 -3.18616,0 -1.83196,2.20737 -6.50922,2.25006 -8.50083,0.0776 -1.30833,-1.42715 -1.81182,-1.40777 -3.54297,0.13636 -1.76668,1.57583 -1.8035,2.01433 -0.29569,3.52214 2.22093,2.22093 2.21095,6.77169 -0.0189,8.62231 -1.53302,1.2723 -1.53302,1.65313 0,3.18615 0.95763,0.95762 1.74113,2.96852 1.74113,4.46867 0,1.50014 -0.7835,3.3778 -1.74113,4.17255 -1.53302,1.27229 -1.53302,1.65312 0,3.18615 2.23063,2.23062 2.23959,6.78254 0.017,8.62714 -1.35864,1.12757 -1.42133,1.7756 -0.29569,3.05668 1.85175,2.10744 2.59607,2.09753 4.38533,-0.0584 z m 11.38469,-15.39586 c -4.16677,-4.16675 -0.0852,-11.01563 5.69932,-9.56379 3.38062,0.84849 5.27609,5.83859 3.37305,8.88008 -1.63519,2.6134 -6.75671,2.99938 -9.07237,0.68371 z m -23.25827,3.62414 c 1.11983,-1.34929 1.08742,-2.08775 -0.15085,-3.43766 -1.37835,-1.50262 -1.82932,-1.49422 -3.57932,0.0666 -1.57331,1.40318 -1.7,2.13001 -0.59136,3.39266 1.82412,2.07757 2.58257,2.07378 4.32153,-0.0215 z m -47.30946,-35.48209 c 1.11984,-1.34931 1.08742,-2.08775 -0.15086,-3.43766 -1.37835,-1.50262 -1.8293,-1.49424 -3.57931,0.0665 -1.57331,1.40319 -1.70001,2.13002 -0.59137,3.39267 1.82413,2.07756 2.58258,2.07378 4.32154,-0.0215 z m 47.30946,0 c 1.11983,-1.34931 1.08742,-2.08775 -0.15085,-3.43766 -1.37835,-1.50262 -1.82932,-1.49424 -3.57932,0.0665 -1.57331,1.40319 -1.7,2.13002 -0.59136,3.39267 1.82412,2.07756 2.58257,2.07378 4.32153,-0.0215 z m -0.39647,102.82215 c -4.16676,-4.16676 -0.0853,-11.01564 5.69933,-9.56379 3.38061,0.84849 5.27609,5.83859 3.37305,8.88007 -1.63519,2.61341 -6.75671,2.99938 -9.07238,0.68372 z m 47.30947,0 c -4.16677,-4.16676 -0.0853,-11.01564 5.69932,-9.56379 3.38061,0.84849 5.27609,5.83859 3.37305,8.88007 -1.63518,2.61341 -6.75671,2.99938 -9.07237,0.68372 z m 23.65473,0 c -4.16676,-4.16676 -0.0853,-11.01564 5.69932,-9.56379 3.38061,0.84849 5.27609,5.83859 3.37305,8.88007 -1.63518,2.61341 -6.7567,2.99938 -9.07237,0.68372 z m -94.61893,-11.82736 c -4.16676,-4.16677 -0.0853,-11.01565 5.69932,-9.56379 3.38062,0.84848 5.2761,5.83857 3.37307,8.88006 -1.6352,2.61342 -6.75672,2.99939 -9.07239,0.68373 z m 47.30947,0 c -4.16677,-4.16677 -0.0852,-11.01565 5.69932,-9.56379 3.38062,0.84848 5.27609,5.83857 3.37305,8.88006 -1.63519,2.61342 -6.75671,2.99939 -9.07237,0.68373 z m 35.41788,-0.0642 c -2.38001,-2.38001 -2.36189,-5.0868 0.0519,-7.75399 1.70716,-1.88638 1.71965,-2.30186 0.11745,-3.90406 -1.57652,-1.5765 -1.9675,-1.58277 -3.23803,-0.0519 -3.08949,3.72263 -10.61729,0.83429 -10.61729,-4.07366 0,-2.53157 3.59991,-6.01252 6.21801,-6.01252 1.0407,0 2.75188,0.85971 3.80265,1.91047 1.75879,1.7588 2.07805,1.7588 4.0215,0 1.16107,-1.05076 2.96253,-1.91047 4.00322,-1.91047 4.72799,0 7.49852,7.60439 3.86822,10.61727 -1.53302,1.2723 -1.53302,1.65312 0,3.18615 2.10383,2.10383 2.27097,6.48291 0.32185,8.43204 -1.99026,1.99025 -6.34363,1.76655 -8.5495,-0.4393 z m 23.65473,0 c -2.38001,-2.38001 -2.36189,-5.0868 0.0519,-7.75399 1.7588,-1.94344 1.7588,-2.26271 0,-4.02151 -1.0508,-1.05074 -1.91051,-2.76193 -1.91051,-3.80262 0,-1.0407 0.85971,-2.84215 1.91047,-4.00322 1.7588,-1.94345 1.7588,-2.26271 0,-4.02151 -1.05076,-1.05076 -1.91047,-2.76194 -1.91047,-3.80264 0,-1.0407 0.85971,-2.84214 1.91047,-4.00323 1.7588,-1.94343 1.7588,-2.2627 0,-4.0215 -1.05076,-1.05075 -1.91047,-2.76194 -1.91047,-3.80263 0,-1.0407 0.85971,-2.84215 1.91047,-4.00323 1.70715,-1.88637 1.71965,-2.30185 0.11744,-3.90405 -1.57651,-1.5765 -1.96749,-1.58277 -3.23802,-0.0519 -3.08944,3.7226 -10.61725,0.83428 -10.61725,-4.07368 0,-2.53156 3.59991,-6.01251 6.21801,-6.01251 1.04071,0 2.75189,0.85971 3.80264,1.91046 1.75881,1.75881 2.07807,1.75881 4.02151,0 1.16108,-1.05075 2.96253,-1.91046 4.00322,-1.91046 4.728,0 7.49853,7.60438 3.86822,10.61726 -1.53301,1.27229 -1.53301,1.65313 0,3.18616 2.23738,2.23737 2.23738,6.78436 0,8.64121 -1.53301,1.2723 -1.53301,1.65312 0,3.18615 2.23738,2.23737 2.23738,6.78436 0,8.64122 -1.5309,1.27053 -1.52463,1.6615 0.052,3.23801 1.60218,1.6022 2.01768,1.5897 3.90405,-0.11744 1.16107,-1.05075 2.96253,-1.91045 4.00321,-1.91045 4.728,0 7.49853,7.60438 3.86823,10.61725 -1.53302,1.2723 -1.53302,1.65312 0,3.18615 2.10382,2.10383 2.27097,6.48291 0.32184,8.43204 -1.94912,1.94913 -6.32821,1.78198 -8.43204,-0.32185 -1.53302,-1.53301 -1.91385,-1.53301 -3.18614,0 -1.89466,2.28293 -6.41897,2.22225 -8.75868,-0.11744 z m 12.28805,-8.13902 c 1.11983,-1.3493 1.08742,-2.08775 -0.15085,-3.43766 -1.37835,-1.50262 -1.82932,-1.49424 -3.57932,0.0666 -1.57331,1.40318 -1.7,2.13001 -0.59137,3.39266 1.82413,2.07757 2.58258,2.07378 4.32154,-0.0215 z m -260.66273,-3.68838 c -2.38001,-2.37999 -2.36189,-5.08679 0.052,-7.75398 1.70715,-1.88637 1.71965,-2.30185 0.11745,-3.90405 -1.57652,-1.5765 -1.9675,-1.58277 -3.23803,-0.0519 -0.79475,0.95762 -2.67241,1.74113 -4.17255,1.74113 -1.50015,0 -3.51104,-0.78351 -4.46867,-1.74113 -1.53303,-1.53302 -1.91385,-1.53302 -3.18615,0 -3.01287,3.6303 -10.61726,0.85977 -10.61726,-3.86822 0,-1.04069 0.85971,-2.84215 1.91047,-4.00322 1.7588,-1.94345 1.7588,-2.26271 0,-4.02151 -1.05079,-1.05069 -1.9105,-2.85436 -1.9105,-4.00808 0,-2.53157 3.59992,-6.01252 6.21801,-6.01252 4.728,0 7.49853,7.60438 3.86823,10.61726 -1.53091,1.27053 -1.52464,1.66152 0.052,3.23803 1.60219,1.60219 2.01768,1.5897 3.90405,-0.11745 1.16108,-1.05075 2.96253,-1.91046 4.00321,-1.91046 1.04071,0 2.75189,0.85971 3.80265,1.91046 1.7588,1.75881 2.07807,1.75881 4.0215,0 2.69488,-2.43882 5.37821,-2.42765 7.83847,0.0326 1.76643,1.76641 2.11202,1.77411 3.80166,0.0845 1.68962,-1.68964 1.68193,-2.03523 -0.0845,-3.80166 -1.06877,-1.0687 -1.94315,-2.88704 -1.94315,-4.04076 0,-2.53157 3.59991,-6.01252 6.21801,-6.01252 4.728,0 7.49852,7.60438 3.86822,10.61726 -1.53302,1.27231 -1.53302,1.65313 0,3.18616 2.10383,2.10383 2.27097,6.48291 0.32185,8.43203 -1.92456,1.92456 -6.42494,1.79198 -8.29166,-0.24427 -1.30833,-1.42715 -1.81182,-1.40778 -3.54297,0.13636 -1.76667,1.57583 -1.80349,2.01433 -0.29569,3.52214 2.08744,2.08744 2.24529,6.47081 0.30295,8.41314 -1.99025,1.99025 -6.34363,1.76656 -8.54949,-0.43931 z m 23.71894,0.0642 c -4.16675,-4.16675 -0.0853,-11.01563 5.69932,-9.56378 3.38062,0.84849 5.27609,5.83858 3.37306,8.88007 -1.63519,2.61341 -6.75671,2.99938 -9.07238,0.68371 z m 130.03681,-0.0642 c -2.46944,-2.46944 -2.35017,-5.60907 0.30433,-8.01136 2.73365,-2.47391 5.41476,-2.48993 7.85774,-0.0469 1.7588,1.75879 2.09036,1.74766 4.1764,-0.14018 4.8081,-4.35127 12.08789,2.04528 8.62549,7.57899 -1.60036,2.55773 -6.73864,3.01745 -8.95492,0.80117 -1.58685,-1.58686 -1.98023,-1.59463 -3.25037,-0.0642 -1.89464,2.28292 -6.41897,2.22224 -8.75867,-0.11745 z M 117.62618,338.66061 c -4.16676,-4.16675 -0.0852,-11.01564 5.69933,-9.56378 3.38061,0.84848 5.27609,5.83857 3.37305,8.88006 -1.63518,2.61342 -6.75671,2.99939 -9.07238,0.68372 z m 106.4463,0 c -4.16676,-4.16675 -0.0853,-11.01564 5.69932,-9.56378 3.38062,0.84848 5.27609,5.83857 3.37306,8.88006 -1.63519,2.61342 -6.75672,2.99939 -9.07238,0.68372 z M 105.7346,326.76908 c -2.38,-2.37999 -2.36188,-5.08679 0.0519,-7.75399 1.75881,-1.94343 1.75881,-2.2627 0,-4.0215 -1.0508,-1.05075 -1.9105,-2.76194 -1.9105,-3.80264 0,-1.04069 0.8597,-2.84214 1.91046,-4.00322 1.7588,-1.94344 1.7588,-2.2627 0,-4.0215 -1.05076,-1.05076 -1.91046,-2.76194 -1.91046,-3.80265 0,-1.04069 0.8597,-2.84213 1.91046,-4.00322 1.7588,-1.94343 1.7588,-2.2627 0,-4.0215 -2.42928,-2.42927 -2.42928,-5.12154 0,-7.80586 1.70715,-1.88637 1.71965,-2.30185 0.11744,-3.90405 -1.57651,-1.5765 -1.96749,-1.58277 -3.23802,-0.0519 -0.79475,0.95762 -2.672404,1.74113 -4.17255,1.74113 -1.500148,0 -3.511049,-0.78351 -4.468664,-1.74113 -1.533027,-1.53302 -1.913856,-1.53302 -3.18615,0 -0.794752,0.95762 -2.672406,1.74113 -4.172553,1.74113 -1.500147,0 -3.511048,-0.78351 -4.468663,-1.74113 -1.533032,-1.53302 -1.913862,-1.53302 -3.186143,0 -3.08945,3.7226 -10.61726,0.83427 -10.61726,-4.07368 0,-2.53156 3.599931,-6.01251 6.218024,-6.01251 1.04069,0 2.751885,0.8597 3.802641,1.91046 1.758787,1.7588 2.078055,1.7588 4.021498,0 2.694877,-2.43882 5.378198,-2.42766 7.838468,0.0326 1.766429,1.7664 2.112024,1.7741 3.801658,0.0845 1.689622,-1.68963 1.681935,-2.03523 -0.08444,-3.80166 -1.068721,-1.06868 -1.943106,-2.88702 -1.943106,-4.04074 0,-2.53157 3.599919,-6.01251 6.218013,-6.01251 4.727997,0 7.498517,7.60437 3.868227,10.61725 -1.5309,1.27053 -1.52463,1.66152 0.0519,3.23803 1.60218,1.6022 2.01767,1.58969 3.90404,-0.11744 2.69487,-2.43883 5.3782,-2.42767 7.83846,0.0326 1.76643,1.76642 2.11203,1.7741 3.80166,0.0845 1.68962,-1.68964 1.68193,-2.03523 -0.0845,-3.80166 -2.46028,-2.46027 -2.47144,-5.1436 -0.0326,-7.83847 1.70714,-1.88637 1.71965,-2.30185 0.11744,-3.90405 -1.57652,-1.5765 -1.9675,-1.58277 -3.23803,-0.052 -3.01287,3.63031 -10.61726,0.85979 -10.61726,-3.86822 0,-1.04069 0.85971,-2.84213 1.91046,-4.00322 1.7588,-1.94343 1.7588,-2.2627 0,-4.0215 -2.42927,-2.42928 -2.42927,-5.12153 0,-7.80586 1.70715,-1.88637 1.71966,-2.30186 0.11745,-3.90405 -1.57652,-1.5765 -1.96749,-1.58277 -3.23802,-0.052 -0.79475,0.95762 -2.672404,1.74113 -4.17255,1.74113 -1.500148,0 -3.511049,-0.78351 -4.468664,-1.74113 -1.533027,-1.53302 -1.913856,-1.53302 -3.18615,0 -0.794752,0.95762 -2.672405,1.74113 -4.172552,1.74113 -1.500148,0 -3.511049,-0.78351 -4.468664,-1.74113 -1.533032,-1.53302 -1.913862,-1.53302 -3.186143,0 -3.089485,3.72263 -10.617296,0.83431 -10.617296,-4.07365 0,-2.53156 3.599931,-6.01251 6.218025,-6.01251 1.04069,0 2.751885,0.85971 3.80264,1.91046 1.758788,1.75881 2.078056,1.75881 4.021498,0 2.694877,-2.43882 5.378199,-2.42766 7.838469,0.0326 1.766429,1.76641 2.112024,1.7741 3.801658,0.0845 1.689622,-1.68964 1.681934,-2.03523 -0.08445,-3.80166 -2.460269,-2.46028 -2.471433,-5.14359 -0.03264,-7.83847 1.70715,-1.88637 1.719652,-2.30185 0.117446,-3.90405 -1.576517,-1.5765 -1.967494,-1.58277 -3.238025,-0.052 -0.794752,0.95762 -2.672406,1.74112 -4.172553,1.74112 -1.500147,0 -3.511048,-0.7835 -4.468663,-1.74112 -1.533033,-1.53302 -1.913862,-1.53302 -3.186143,0 -1.856861,2.23737 -6.403856,2.23737 -8.641227,0 -1.533016,-1.53302 -1.913857,-1.53302 -3.186139,0 -1.831965,2.20738 -6.509238,2.25006 -8.500848,0.0776 -1.30832,-1.42715 -1.811823,-1.40777 -3.542959,0.13637 -1.766689,1.57582 -1.803495,2.01433 -0.295684,3.52213 2.087435,2.08744 2.245272,6.47081 0.302934,8.41314 -1.942325,1.94233 -6.325688,1.78449 -8.413136,-0.30295 -1.507812,-1.5078 -1.946311,-1.47099 -3.522142,0.29569 -1.578977,1.77022 -1.587374,2.2129 -0.06848,3.60642 2.160777,1.98235 1.634388,7.24053 -0.882475,8.8153 -5.533705,3.46239 -11.930252,-3.81738 -7.578976,-8.62548 1.887837,-2.08605 1.898966,-2.41761 0.140177,-4.17641 -2.51795,-2.51793 -2.420055,-5.64465 0.252456,-8.06323 2.74428,-2.48355 5.416282,-2.48841 7.890343,-0.0143 1.766417,1.76642 2.112025,1.7741 3.801646,0.0845 1.689623,-1.68963 1.681947,-2.03523 -0.08444,-3.80166 -2.46027,-2.46027 -2.471435,-5.14359 -0.03264,-7.83847 1.707151,-1.88637 1.71964,-2.30185 0.117446,-3.90405 -1.576505,-1.5765 -1.967482,-1.58277 -3.238014,-0.052 -3.012879,3.63038 -10.617261,0.85986 -10.617261,-3.86814 0,-1.04069 0.859709,-2.84214 1.910475,-4.00322 1.707139,-1.88637 1.719639,-2.30185 0.117446,-3.90405 -1.576517,-1.5765 -1.967495,-1.58277 -3.238025,-0.052 -1.856849,2.23738 -6.403857,2.23738 -8.641227,0 -1.533017,-1.53301 -1.913846,-1.53301 -3.186139,0 -3.089462,3.72261 -10.6172726,0.83428 -10.6172726,-4.07366 0,-2.53157 3.5999306,-6.01252 6.2180246,-6.01252 1.04069,0 2.751884,0.8597 3.802639,1.91047 1.758789,1.75879 2.078057,1.75879 4.021506,0 2.694877,-2.43883 5.378187,-2.42767 7.838456,0.0326 1.76643,1.76642 2.112038,1.7741 3.80166,0.0845 1.689621,-1.68964 1.681945,-2.03523 -0.08445,-3.80166 -1.068685,-1.06868 -1.943071,-2.88702 -1.943071,-4.04074 0,-2.53156 3.599931,-6.01251 6.218025,-6.01251 4.72799,0 7.498515,7.60438 3.868211,10.61725 -1.533015,1.2723 -1.533015,1.65313 0,3.18615 2.237372,2.23737 2.237372,6.78437 0,8.64122 -1.530899,1.27053 -1.52463,1.66151 0.05192,3.23803 1.602194,1.60219 2.017678,1.58968 3.904048,-0.11745 2.684328,-2.42929 5.376591,-2.42929 7.805872,0 1.758789,1.7588 2.078057,1.7588 4.021494,0 1.16108,-1.05076 2.96253,-1.91047 4.003232,-1.91047 4.727989,0 7.498514,7.60438 3.868211,10.61725 -1.530898,1.27053 -1.52463,1.66152 0.05192,3.23803 1.602193,1.6022 2.017676,1.58969 3.904047,-0.11744 2.684327,-2.42929 5.37659,-2.42929 7.805873,0 1.758788,1.7588 2.078056,1.7588 4.021498,0 2.684327,-2.42929 5.376591,-2.42929 7.80586,0 1.758801,1.7588 2.078069,1.7588 4.021506,0 1.16108,-1.05076 2.96253,-1.91047 4.00322,-1.91047 4.727997,0 7.498517,7.60438 3.868227,10.61726 -1.5309,1.27053 -1.52463,1.66151 0.0519,3.23803 1.60218,1.60219 2.01767,1.5897 3.90404,-0.11745 1.16108,-1.05075 2.96253,-1.91046 4.00322,-1.91046 4.72799,0 7.49852,7.60438 3.86821,10.61727 -1.53089,1.27053 -1.52462,1.6615 0.0519,3.23801 1.60219,1.6022 2.01767,1.5897 3.90404,-0.11744 2.69488,-2.43882 5.37821,-2.42766 7.83847,0.0326 1.76643,1.76642 2.11203,1.77411 3.80166,0.0845 1.68963,-1.68963 1.68194,-2.03523 -0.0845,-3.80166 -2.46026,-2.46026 -2.47143,-5.14359 -0.0326,-7.83847 1.70715,-1.88637 1.71965,-2.30185 0.11744,-3.90404 -1.57651,-1.57651 -1.96748,-1.58278 -3.23801,-0.052 -3.01289,3.63031 -10.61727,0.85978 -10.61727,-3.86822 0,-1.04069 0.85971,-2.84214 1.91046,-4.00322 1.75881,-1.94344 1.75881,-2.26271 0,-4.0215 -1.05084,-1.05074 -1.91054,-2.85441 -1.91054,-4.00813 0,-2.53157 3.59992,-6.01251 6.21801,-6.01251 4.728,0 7.49853,7.60438 3.86823,10.61725 -1.5309,1.27053 -1.52464,1.66152 0.0519,3.23803 1.60219,1.6022 2.01768,1.58969 3.90404,-0.11744 2.69488,-2.43883 5.37821,-2.42767 7.83847,0.0326 1.76643,1.76642 2.11203,1.77411 3.80166,0.0845 1.68963,-1.68964 1.68194,-2.03523 -0.0845,-3.80166 -2.54845,-2.54846 -2.46377,-5.66721 0.21985,-8.09584 2.73364,-2.47393 5.41476,-2.48993 7.85773,-0.047 1.75881,1.75879 2.07807,1.75879 4.02151,0 1.16108,-1.05075 2.96253,-1.91046 4.00323,-1.91046 4.72799,0 7.49852,7.60438 3.86822,10.61725 -1.53302,1.2723 -1.53302,1.65313 0,3.18615 2.23737,2.23737 2.23737,6.78437 0,8.64122 -1.53042,1.27013 -1.52265,1.6635 0.0642,3.25036 2.21628,2.21628 1.75656,7.35456 -0.80118,8.95493 -5.53371,3.46239 -11.93025,-3.81739 -7.57898,-8.62549 1.8324,-2.02479 1.85982,-2.45675 0.25762,-4.05895 -1.57651,-1.5765 -1.96748,-1.58277 -3.23801,-0.052 -1.83197,2.20739 -6.50924,2.25007 -8.50084,0.0776 -1.30834,-1.42715 -1.81183,-1.40777 -3.54297,0.13637 -1.76668,1.57582 -1.8035,2.01433 -0.29568,3.52213 2.22093,2.22094 2.21094,6.7717 -0.0189,8.62232 -1.53302,1.27229 -1.53302,1.65312 0,3.18615 2.10382,2.10383 2.27097,6.48292 0.32183,8.43204 -1.94232,1.94234 -6.32569,1.78449 -8.41313,-0.30295 -1.50781,-1.50781 -1.94631,-1.471 -3.52214,0.29569 -1.54414,1.73115 -1.56351,2.23464 -0.13636,3.54297 2.17248,1.99161 2.12981,6.66887 -0.0776,8.50083 -1.53089,1.27053 -1.52462,1.66151 0.052,3.23803 1.6022,1.60219 2.01768,1.58969 3.90405,-0.11745 1.16108,-1.05075 2.96253,-1.91046 4.00323,-1.91046 4.728,0 7.49852,7.60438 3.86822,10.61726 -1.53091,1.27053 -1.52464,1.66151 0.052,3.23802 1.6022,1.6022 2.03417,1.57478 4.05895,-0.25762 4.8081,-4.35128 12.08788,2.04527 8.62549,7.57898 -1.57478,2.51686 -6.83295,3.04324 -8.81531,0.88247 -1.39352,-1.51896 -1.83621,-1.51055 -3.60641,0.0684 -1.76668,1.57583 -1.80351,2.01433 -0.29569,3.52213 2.22092,2.22094 2.21094,6.77171 -0.0189,8.62232 -1.53041,1.27014 -1.52263,1.66351 0.0642,3.25036 2.21628,2.21628 1.75657,7.35457 -0.80117,8.95493 -5.5337,3.46239 -11.93025,-3.81739 -7.57899,-8.62549 1.8324,-2.02478 1.85983,-2.45675 0.25764,-4.05894 -1.57652,-1.57651 -1.9675,-1.58278 -3.23803,-0.052 -1.85061,2.22984 -6.40138,2.23983 -8.62232,0.0189 -1.5078,-1.50781 -1.9463,-1.47099 -3.52213,0.29569 -1.54414,1.73114 -1.56351,2.23463 -0.13637,3.54297 2.17249,1.9916 2.12981,6.66887 -0.0776,8.50083 -1.5309,1.27054 -1.52463,1.66151 0.052,3.23803 1.6022,1.6022 2.03417,1.57476 4.05895,-0.25764 4.8081,-4.35126 12.08788,2.04529 8.62549,7.57899 -1.59462,2.54859 -6.73571,3.02039 -8.93602,0.82007 -1.59343,-1.59342 -1.98091,-1.56841 -3.58636,0.23148 -1.54413,1.73115 -1.5635,2.23464 -0.13635,3.54297 2.17248,1.99161 2.12979,6.66887 -0.0776,8.50083 -1.53301,1.2723 -1.53301,1.65312 0,3.18615 2.10383,2.10383 2.27098,6.48292 0.32185,8.43204 -1.99024,1.99025 -6.34363,1.76656 -8.54949,-0.4393 z m 24.11542,-55.44848 c 1.11983,-1.3493 1.08743,-2.08775 -0.15086,-3.43766 -1.37834,-1.50262 -1.82931,-1.49423 -3.57931,0.0666 -1.57332,1.40318 -1.70001,2.13001 -0.59137,3.39266 1.82412,2.07757 2.58258,2.07378 4.32154,-0.0215 z m 0,-11.82736 c 1.11983,-1.34931 1.08743,-2.08775 -0.15086,-3.43766 -1.37834,-1.50262 -1.82931,-1.49424 -3.57931,0.0665 -1.57332,1.40319 -1.70001,2.13002 -0.59137,3.39267 1.82412,2.07756 2.58258,2.07378 4.32154,-0.0215 z m -11.82736,-11.82737 c 1.11982,-1.3493 1.08742,-2.08775 -0.15086,-3.43766 -1.37835,-1.50262 -1.82932,-1.49423 -3.57931,0.0665 -1.57332,1.40318 -1.70001,2.13001 -0.59137,3.39266 1.82412,2.07757 2.58258,2.07378 4.32154,-0.0215 z m 0,-11.82736 c 1.11982,-1.34931 1.08742,-2.08775 -0.15086,-3.43766 -1.37835,-1.50262 -1.82932,-1.49424 -3.57931,0.0665 -1.57332,1.40319 -1.70001,2.13002 -0.59137,3.39267 1.82412,2.07756 2.58258,2.07378 4.32154,-0.0215 z m -11.82737,-11.82737 c 1.11983,-1.3493 1.08742,-2.08776 -0.15086,-3.43766 -1.37835,-1.50262 -1.82931,-1.49423 -3.57931,0.0665 -1.57331,1.40319 -1.7,2.13001 -0.59137,3.39266 1.82412,2.07756 2.58258,2.07377 4.32154,-0.0215 z M 58.88584,200.35641 c 1.119815,-1.3493 1.087408,-2.08776 -0.15087,-3.43767 -1.378349,-1.50262 -1.829315,-1.49422 -3.579315,0.0666 -1.573312,1.4032 -1.700008,2.13002 -0.591369,3.39268 1.824135,2.07755 2.582588,2.07376 4.321554,-0.0216 z m 94.61891,0 c 1.11984,-1.3493 1.08743,-2.08776 -0.15085,-3.43767 -1.37836,-1.50262 -1.82931,-1.49422 -3.57932,0.0666 -1.57331,1.4032 -1.70001,2.13002 -0.59137,3.39268 1.82413,2.07755 2.58258,2.07376 4.32154,-0.0216 z m 82.39509,126.47688 c -4.16676,-4.16676 -0.0852,-11.01564 5.69932,-9.56378 3.38062,0.84848 5.2761,5.83857 3.37306,8.88006 -1.63519,2.61342 -6.75672,2.99939 -9.07238,0.68372 z M 141.2167,314.94171 c -2.46944,-2.46944 -2.35018,-5.60907 0.30433,-8.01136 2.73365,-2.47392 5.41476,-2.48993 7.85773,-0.0469 1.75881,1.7588 2.09036,1.74767 4.17642,-0.14017 4.80809,-4.35127 12.08787,2.04528 8.62548,7.57898 -1.60036,2.55774 -6.73864,3.01746 -8.95493,0.80118 -1.58685,-1.58686 -1.98023,-1.59463 -3.25036,-0.0642 -1.89465,2.28292 -6.41896,2.22224 -8.75867,-0.11745 z m 224.71996,0 c -2.46945,-2.46944 -2.35019,-5.60907 0.30433,-8.01136 2.73364,-2.47392 5.41475,-2.48993 7.85773,-0.0469 1.7588,1.7588 2.09036,1.74767 4.17641,-0.14017 4.80809,-4.35127 12.08788,2.04528 8.62549,7.57898 -1.60037,2.55774 -6.73865,3.01746 -8.95493,0.80118 -1.58686,-1.58686 -1.98024,-1.59463 -3.25036,-0.0642 -1.89466,2.28292 -6.41897,2.22224 -8.75867,-0.11745 z M 11.115677,303.11435 c -2.3799973,-2.37999 -2.3618896,-5.0868 0.05192,-7.75399 1.7588,-1.94343 1.7588,-2.2627 0,-4.0215 -1.050755,-1.05075 -1.9104627,-2.76195 -1.9104627,-3.80264 0,-1.04069 0.8597077,-2.84215 1.9104747,-4.00322 1.758788,-1.94344 1.758788,-2.26271 0,-4.0215 -2.4292821,-2.42928 -2.4292821,-5.12154 0,-7.80587 1.758788,-1.94343 1.758788,-2.26271 0,-4.0215 -2.4292821,-2.42927 -2.4292821,-5.12154 0,-7.80586 1.758788,-1.94345 1.758788,-2.26271 0,-4.02151 -1.050767,-1.05076 -1.9104747,-2.76194 -1.9104747,-3.80264 0,-1.04068 0.8597077,-2.84214 1.9104747,-4.00322 1.758788,-1.94344 1.758788,-2.26271 0,-4.02151 -2.5179519,-2.51793 -2.4200567,-5.64465 0.252443,-8.06323 2.733647,-2.47392 5.414758,-2.48994 7.857747,-0.0469 1.758788,1.7588 2.078056,1.7588 4.021505,0 1.161069,-1.05075 2.962519,-1.91046 4.003221,-1.91046 4.727989,0 7.498514,7.60438 3.86821,10.61725 -1.533015,1.2723 -1.533015,1.65312 0,3.18615 2.103829,2.10383 2.270985,6.48292 0.321847,8.43204 -1.942326,1.94234 -6.325689,1.78449 -8.413137,-0.30295 -1.507812,-1.5078 -1.946311,-1.47098 -3.522142,0.29569 -1.544122,1.73115 -1.563506,2.23464 -0.136357,3.54297 2.172484,1.99161 2.129812,6.66887 -0.07758,8.50083 -1.533017,1.27231 -1.533017,1.65313 0,3.18616 2.23737,2.23737 2.23737,6.78436 0,8.64122 -1.533017,1.27229 -1.533017,1.65312 0,3.18615 2.23737,2.23737 2.23737,6.78437 0,8.64121 -1.5309,1.27053 -1.524631,1.66151 0.05192,3.23803 1.602195,1.60218 2.017678,1.58969 3.904049,-0.11746 2.694877,-2.43881 5.378199,-2.42765 7.838468,0.0326 1.766416,1.76641 2.112023,1.77411 3.801645,0.0845 1.689623,-1.68964 1.681947,-2.03523 -0.08444,-3.80166 -1.068673,-1.0687 -1.943059,-2.88703 -1.943059,-4.04076 0,-2.53157 3.599931,-6.01252 6.218025,-6.01252 4.72799,0 7.498514,7.60439 3.86821,10.61727 -1.533015,1.2723 -1.533015,1.65312 0,3.18615 2.103829,2.10383 2.270986,6.48291 0.321848,8.43204 -1.949126,1.94913 -6.32821,1.78198 -8.432037,-0.32185 -1.533017,-1.53301 -1.913858,-1.53301 -3.186139,0 -0.794763,0.95763 -2.672405,1.74113 -4.172553,1.74113 -1.500147,0 -3.511048,-0.7835 -4.468674,-1.74113 -1.533016,-1.53301 -1.913858,-1.53301 -3.186139,0 -1.894661,2.28291 -6.41897,2.22225 -8.758684,-0.11744 z m 12.288065,-55.44848 c 1.119815,-1.3493 1.087408,-2.08775 -0.15087,-3.43766 -1.37835,-1.50262 -1.829315,-1.49423 -3.579316,0.0665 -1.573311,1.40318 -1.700006,2.13001 -0.591368,3.39266 1.824134,2.07757 2.582588,2.07378 4.321554,-0.0215 z m 46.848764,55.44848 c -2.469447,-2.46945 -2.350181,-5.60907 0.30433,-8.01136 2.733647,-2.47392 5.414758,-2.48993 7.857748,-0.0469 1.758787,1.75881 2.090344,1.74768 4.176401,-0.14017 4.808096,-4.35126 12.087875,2.04529 8.625485,7.57898 -1.600362,2.55774 -6.738642,3.01747 -8.954925,0.80118 -1.586858,-1.58685 -1.980237,-1.59462 -3.250354,-0.0642 -1.894661,2.28292 -6.418971,2.22225 -8.758685,-0.11744 z m 319.403094,0.0642 c -4.16676,-4.16675 -0.0853,-11.01564 5.69933,-9.56379 3.3806,0.84848 5.27609,5.83858 3.37305,8.88008 -1.63519,2.6134 -6.75671,2.99938 -9.07238,0.68371 z M 58.489351,291.3512 c -4.166757,-4.16675 -0.08527,-11.01563 5.699324,-9.56378 3.380616,0.84849 5.276093,5.83858 3.37307,8.88007 -1.635192,2.61341 -6.756726,2.99939 -9.072394,0.68371 z M 365.93666,291.287 c -2.46945,-2.46944 -2.35019,-5.60907 0.30433,-8.01136 2.74429,-2.48354 5.41628,-2.48841 7.89034,-0.0143 1.76642,1.76641 2.11203,1.7741 3.80165,0.0845 1.68963,-1.68963 1.68194,-2.03523 -0.0845,-3.80166 -2.54846,-2.54845 -2.46378,-5.6672 0.21984,-8.09583 2.73365,-2.47392 5.41477,-2.48994 7.85774,-0.047 1.7588,1.75881 2.09036,1.74768 4.17641,-0.14017 4.80809,-4.35127 12.08788,2.04528 8.62549,7.57898 -1.57479,2.51686 -6.83296,3.04325 -8.81531,0.88248 -1.39353,-1.51896 -1.83621,-1.51056 -3.60643,0.0684 -1.76667,1.57584 -1.80349,2.01433 -0.29568,3.52215 2.08743,2.08744 2.24529,6.47079 0.30295,8.41313 -1.94913,1.94913 -6.32821,1.78198 -8.43204,-0.32185 -1.53303,-1.53301 -1.91386,-1.53301 -3.18615,0 -1.89464,2.28292 -6.41897,2.22225 -8.75867,-0.11744 z M 224.00827,279.45965 c -2.38002,-2.37999 -2.36189,-5.0868 0.052,-7.75399 1.70714,-1.88637 1.71965,-2.30185 0.11744,-3.90404 -1.57651,-1.57651 -1.96749,-1.58278 -3.23802,-0.0519 -3.01288,3.63031 -10.61726,0.85978 -10.61726,-3.86822 0,-1.04069 0.85971,-2.84214 1.91046,-4.00323 1.70715,-1.88636 1.71965,-2.30185 0.11745,-3.90404 -1.57653,-1.57651 -1.9675,-1.58278 -3.23803,-0.052 -1.85685,2.23736 -6.40385,2.23736 -8.64121,0 -1.53303,-1.53302 -1.91386,-1.53302 -3.18615,0 -3.08948,3.72265 -10.61729,0.83432 -10.61729,-4.07364 0,-2.53156 3.59992,-6.0125 6.21802,-6.0125 1.0407,0 2.76655,0.87438 3.83524,1.94306 1.76643,1.76642 2.11202,1.77411 3.80166,0.0845 1.68962,-1.68964 1.68193,-2.03523 -0.0845,-3.80166 -1.06872,-1.06865 -1.94311,-2.88699 -1.94311,-4.04072 0,-2.53157 3.59993,-6.0125 6.21801,-6.0125 4.72801,0 7.49854,7.60438 3.86824,10.61725 -1.53091,1.27053 -1.52464,1.66151 0.052,3.23803 1.60219,1.6022 2.01767,1.58969 3.90404,-0.11744 1.16108,-1.05076 2.96254,-1.91047 4.00322,-1.91047 4.728,0 7.49853,7.60438 3.86822,10.61726 -1.53089,1.27053 -1.52462,1.66151 0.052,3.23803 1.60219,1.60219 2.01767,1.58968 3.90404,-0.11745 1.16109,-1.05075 2.96253,-1.91046 4.00323,-1.91046 4.728,0 7.49852,7.60438 3.86822,10.61725 -1.53301,1.2723 -1.53301,1.65314 0,3.18615 2.10383,2.10383 2.27098,6.48292 0.32185,8.43204 -1.99025,1.99026 -6.34364,1.76656 -8.54949,-0.4393 z m 94.61893,0 c -2.38002,-2.37999 -2.3619,-5.0868 0.0519,-7.75399 1.7588,-1.94343 1.7588,-2.2627 0,-4.0215 -1.05081,-1.05075 -1.91051,-2.76193 -1.91051,-3.80264 0,-1.04069 0.8597,-2.84215 1.91045,-4.00322 1.75881,-1.94344 1.75881,-2.26271 0,-4.0215 -1.05075,-1.05076 -1.91045,-2.85442 -1.91045,-4.00815 0,-2.53156 3.59991,-6.01251 6.21801,-6.01251 4.728,0 7.49853,7.60438 3.86822,10.61726 -1.5309,1.27053 -1.52463,1.66151 0.0519,3.23803 1.60219,1.60219 2.01767,1.58968 3.90404,-0.11745 1.16109,-1.05075 2.96253,-1.91046 4.00322,-1.91046 1.04071,0 2.75189,0.85971 3.80264,1.91046 1.75881,1.7588 2.07807,1.7588 4.02151,0 2.69488,-2.43883 5.3782,-2.42766 7.83847,0.0326 1.76643,1.76642 2.11202,1.77411 3.80166,0.0845 1.68962,-1.68963 1.68193,-2.03523 -0.0845,-3.80165 -2.46026,-2.46028 -2.47142,-5.14359 -0.0326,-7.83847 1.7588,-1.94344 1.7588,-2.26271 0,-4.02151 -1.0508,-1.05076 -1.91051,-2.76195 -1.91051,-3.80265 0,-1.04069 0.85971,-2.84215 1.91047,-4.00322 1.7588,-1.94343 1.7588,-2.26271 0,-4.0215 -1.05076,-1.05077 -1.91047,-2.76195 -1.91047,-3.80265 0,-1.04068 0.85971,-2.84214 1.91047,-4.00322 1.70714,-1.88636 1.71965,-2.30185 0.11744,-3.90404 -1.57651,-1.57652 -1.96749,-1.58278 -3.23802,-0.052 -3.01288,3.63031 -10.61726,0.85978 -10.61726,-3.86823 0,-1.04068 0.85971,-2.84213 1.91046,-4.00321 1.70715,-1.88637 1.71965,-2.30186 0.11745,-3.90405 -1.57653,-1.5765 -1.9675,-1.58277 -3.23803,-0.052 -1.83196,2.20737 -6.50922,2.25006 -8.50084,0.0776 -1.30833,-1.42714 -1.81181,-1.40777 -3.54297,0.13636 -1.79989,1.60545 -1.82489,1.99293 -0.23147,3.58636 2.20032,2.20031 1.72851,7.34139 -0.82008,8.93601 -5.5337,3.46239 -11.93024,-3.81738 -7.57898,-8.62548 1.8324,-2.02479 1.85982,-2.45675 0.25764,-4.05894 -1.57653,-1.57652 -1.9675,-1.58278 -3.23803,-0.052 -3.08943,3.72269 -10.61724,0.83437 -10.61724,-4.07359 0,-2.53156 3.59992,-6.01251 6.21802,-6.01251 1.04069,0 2.75188,0.85971 3.80263,1.91047 1.7588,1.7588 2.07807,1.7588 4.02151,0 2.68433,-2.42928 5.37659,-2.42928 7.80586,0 1.7588,1.7588 2.07806,1.7588 4.02151,0 2.69487,-2.43883 5.37819,-2.42766 7.83847,0.0326 1.76642,1.76642 2.11202,1.77411 3.80165,0.0845 1.68962,-1.68964 1.68194,-2.03523 -0.0845,-3.80166 -2.46027,-2.46026 -2.47143,-5.14359 -0.0326,-7.83847 1.7588,-1.94343 1.7588,-2.2627 0,-4.0215 -2.51795,-2.51794 -2.42006,-5.64467 0.25246,-8.06324 2.74429,-2.48355 5.41628,-2.48841 7.89034,-0.0143 1.76642,1.76642 2.11203,1.77411 3.80165,0.0845 1.68963,-1.68964 1.68195,-2.03523 -0.0845,-3.80166 -1.06872,-1.06869 -1.94311,-2.88702 -1.94311,-4.04075 0,-2.53156 3.59992,-6.0125 6.21802,-6.0125 4.72799,0 7.49852,7.60438 3.86822,10.61725 -1.53302,1.2723 -1.53302,1.65313 0,3.18615 2.10383,2.10383 2.27097,6.48291 0.32185,8.43204 -1.94234,1.94233 -6.32571,1.78449 -8.41315,-0.30295 -1.5078,-1.5078 -1.94631,-1.47099 -3.52213,0.29569 -1.54414,1.73115 -1.56352,2.23463 -0.13637,3.54297 2.17249,1.99161 2.12981,6.66887 -0.0776,8.50083 -1.5309,1.27053 -1.52463,1.66152 0.0519,3.23803 1.6022,1.6022 2.01768,1.58969 3.90405,-0.11744 2.69488,-2.43883 5.3782,-2.42767 7.83847,0.0326 1.76643,1.76642 2.11202,1.7741 3.80166,0.0845 1.68962,-1.68964 1.68193,-2.03523 -0.0845,-3.80166 -2.54845,-2.54846 -2.46377,-5.66721 0.21984,-8.09584 2.73365,-2.47393 5.41476,-2.48993 7.85774,-0.047 1.7588,1.7588 2.09036,1.74768 4.1764,-0.14017 4.8081,-4.35126 12.08789,2.04528 8.62549,7.57898 -1.59462,2.54859 -6.7357,3.0204 -8.93602,0.82008 -1.59343,-1.59342 -1.98091,-1.56842 -3.58636,0.23147 -1.54413,1.73116 -1.5635,2.23464 -0.13635,3.54297 2.03625,1.86672 2.16883,6.3671 0.24427,8.29166 -1.92456,1.92456 -6.42495,1.79197 -8.29166,-0.24427 -1.30833,-1.42715 -1.81182,-1.40777 -3.54297,0.13636 -1.76667,1.57583 -1.80349,2.01433 -0.29569,3.52214 2.22093,2.22093 2.21095,6.7717 -0.0189,8.62231 -1.53089,1.27054 -1.52462,1.66152 0.052,3.23803 1.60219,1.6022 2.01768,1.58969 3.90405,-0.11744 1.16108,-1.05076 2.96253,-1.91047 4.00322,-1.91047 1.0407,0 2.75188,0.85971 3.80263,1.91047 1.75881,1.7588 2.07807,1.7588 4.02152,0 2.69487,-2.43883 5.37819,-2.42767 7.83847,0.0326 1.76643,1.76642 2.11202,1.7741 3.80166,0.0845 1.68961,-1.68963 1.68193,-2.03523 -0.0845,-3.80166 -1.06882,-1.06871 -1.9432,-2.88705 -1.9432,-4.04077 0,-2.53157 3.59992,-6.01251 6.21801,-6.01251 4.72801,0 7.49853,7.60438 3.86822,10.61725 -1.533,1.2723 -1.533,1.65312 0,3.18615 2.23738,2.23738 2.23738,6.78437 0,8.64122 -1.533,1.27229 -1.533,1.65312 0,3.18615 2.10383,2.10383 2.27097,6.48291 0.32185,8.43204 -1.94912,1.94912 -6.3282,1.78198 -8.43204,-0.32185 -1.53302,-1.53302 -1.91386,-1.53302 -3.18615,0 -0.79475,0.95763 -2.6724,1.74113 -4.17255,1.74113 -1.50015,0 -3.51104,-0.7835 -4.46866,-1.74113 -1.53303,-1.53302 -1.91386,-1.53302 -3.18615,0 -1.83197,2.20737 -6.50923,2.25006 -8.50084,0.0776 -1.30833,-1.42715 -1.81182,-1.40777 -3.54297,0.13635 -1.76667,1.57584 -1.80349,2.01433 -0.29568,3.52215 2.22093,2.22093 2.21095,6.7717 -0.0189,8.62232 -1.53302,1.27229 -1.53302,1.65312 0,3.18615 2.10382,2.10383 2.27097,6.4829 0.32184,8.43204 -1.94912,1.94912 -6.32821,1.78198 -8.43204,-0.32185 -1.53302,-1.53302 -1.91385,-1.53302 -3.18615,0 -1.85684,2.23737 -6.40384,2.23737 -8.64121,0 -1.53303,-1.53302 -1.91386,-1.53302 -3.18615,0 -1.83196,2.20738 -6.50922,2.25006 -8.50084,0.0776 -1.30832,-1.42715 -1.81181,-1.40777 -3.54297,0.13637 -1.76668,1.57582 -1.80349,2.01433 -0.29568,3.52213 2.08743,2.08744 2.24528,6.4708 0.30295,8.41314 -1.99026,1.99025 -6.34363,1.76656 -8.5495,-0.4393 z m 47.77014,-43.62111 c 1.11983,-1.34931 1.08742,-2.08775 -0.15085,-3.43766 -1.37836,-1.50262 -1.82932,-1.49424 -3.57932,0.0666 -1.57331,1.40319 -1.70001,2.13002 -0.59137,3.39267 1.82413,2.07756 2.58258,2.07378 4.32154,-0.0215 z m 11.82737,0 c 1.11983,-1.34931 1.08742,-2.08775 -0.15086,-3.43766 -1.37835,-1.50262 -1.82931,-1.49424 -3.57932,0.0666 -1.5733,1.40319 -1.70001,2.13002 -0.59137,3.39267 1.82413,2.07756 2.58258,2.07378 4.32155,-0.0215 z m 11.82736,0 c 1.11983,-1.34931 1.08742,-2.08775 -0.15085,-3.43766 -1.37835,-1.50262 -1.82932,-1.49424 -3.57932,0.0666 -1.57331,1.40319 -1.7,2.13002 -0.59137,3.39267 1.82413,2.07756 2.58258,2.07378 4.32154,-0.0215 z m -35.48209,-23.65473 c 1.11982,-1.34931 1.08742,-2.08775 -0.15087,-3.43766 -1.37834,-1.50262 -1.8293,-1.49424 -3.57931,0.0666 -1.5733,1.40319 -1.70001,2.13002 -0.59137,3.39267 1.82413,2.07757 2.58258,2.07378 4.32155,-0.0215 z M 34.770409,267.63225 c -2.469449,-2.46944 -2.350181,-5.60907 0.30433,-8.01136 2.744291,-2.48355 5.416295,-2.48841 7.890342,-0.0143 1.76643,1.76642 2.112037,1.77411 3.801659,0.0845 1.689622,-1.68963 1.681946,-2.03523 -0.08445,-3.80166 -2.460269,-2.46027 -2.471435,-5.14359 -0.03264,-7.83847 1.758801,-1.94343 1.758801,-2.2627 0,-4.0215 -2.517952,-2.51794 -2.420057,-5.64466 0.252455,-8.06324 2.733648,-2.47392 5.414758,-2.48993 7.857736,-0.0469 1.758801,1.7588 2.090357,1.74767 4.176409,-0.14017 4.808096,-4.35128 12.087875,2.04527 8.625485,7.57898 -1.594626,2.54858 -6.735709,3.02039 -8.936025,0.82008 -1.59343,-1.59342 -1.980906,-1.56842 -3.586353,0.23147 -1.544133,1.73114 -1.563519,2.23464 -0.13637,3.54297 2.172498,1.99161 2.129813,6.66887 -0.07759,8.50084 -1.533015,1.27229 -1.533015,1.65312 0,3.18615 2.10384,2.10382 2.270984,6.4829 0.321846,8.43204 -1.949126,1.94912 -6.328208,1.78198 -8.432037,-0.32185 -1.533015,-1.53302 -1.913844,-1.53302 -3.186137,0 -1.894662,2.28291 -6.418973,2.22224 -8.758686,-0.11745 z m 260.266261,0.0642 c -4.16676,-4.16676 -0.0853,-11.01564 5.69933,-9.56378 3.38061,0.84848 5.27609,5.83858 3.37305,8.88006 -1.63519,2.61341 -6.75671,2.99939 -9.07238,0.68372 z M 82.144088,255.86911 c -4.166762,-4.16676 -0.08527,-11.01565 5.699324,-9.56379 3.380616,0.84848 5.276092,5.83858 3.373058,8.88008 -1.635192,2.6134 -6.756715,2.99938 -9.072382,0.68371 z m 70.899982,-0.0642 c -2.38001,-2.38 -2.36189,-5.0868 0.052,-7.75399 1.7588,-1.94343 1.7588,-2.26271 0,-4.0215 -2.51795,-2.51794 -2.42005,-5.64466 0.25246,-8.06324 2.74429,-2.48355 5.41628,-2.4884 7.89034,-0.0143 1.76643,1.76642 2.11202,1.77411 3.80166,0.0845 1.68962,-1.68963 1.68193,-2.03523 -0.0845,-3.80166 -1.06877,-1.06868 -1.94315,-2.88702 -1.94315,-4.04075 0,-2.53156 3.59991,-6.01251 6.21801,-6.01251 4.728,0 7.49852,7.60438 3.86822,10.61727 -1.53089,1.27052 -1.52462,1.6615 0.052,3.23802 1.6022,1.60219 2.03417,1.57477 4.05896,-0.25763 4.8081,-4.35128 12.08787,2.04527 8.62548,7.57898 -1.60036,2.55774 -6.73864,3.01746 -8.95492,0.80118 -1.58686,-1.58685 -1.98023,-1.59463 -3.25036,-0.0642 -1.83197,2.20737 -6.50923,2.25006 -8.50084,0.0776 -1.30833,-1.42715 -1.81183,-1.40777 -3.54297,0.13636 -1.76668,1.57583 -1.8035,2.01433 -0.29568,3.52214 2.08743,2.08744 2.24528,6.4708 0.30294,8.41314 -1.99025,1.99025 -6.34363,1.76656 -8.54949,-0.4393 z m 94.61893,0 c -2.38002,-2.38 -2.3619,-5.0868 0.052,-7.75399 1.70715,-1.88637 1.71965,-2.30185 0.11744,-3.90404 -1.57651,-1.57651 -1.96749,-1.58278 -3.23802,-0.052 -3.08949,3.7226 -10.61729,0.83427 -10.61729,-4.07369 0,-2.53157 3.59991,-6.0125 6.21801,-6.0125 1.0407,0 2.75188,0.8597 3.80264,1.91045 1.75879,1.7588 2.07806,1.7588 4.0215,0 1.16108,-1.05075 2.96254,-1.91045 4.00322,-1.91045 4.728,0 7.49853,7.60438 3.86822,10.61725 -1.53301,1.2723 -1.53301,1.65312 0,3.18615 2.10383,2.10383 2.27098,6.48292 0.32185,8.43204 -1.99024,1.99025 -6.34363,1.76656 -8.54949,-0.4393 z m 23.65473,-11.82737 c -2.46945,-2.46944 -2.35019,-5.60906 0.30433,-8.01136 2.74429,-2.48355 5.41628,-2.4884 7.89034,-0.0143 1.76643,1.76642 2.11203,1.77411 3.80166,0.0845 1.68962,-1.68963 1.68194,-2.03523 -0.0845,-3.80166 -1.06872,-1.06868 -1.9431,-2.88702 -1.9431,-4.04075 0,-2.53156 3.59991,-6.01251 6.21801,-6.01251 4.728,0 7.49852,7.60438 3.86822,10.61727 -1.5309,1.27052 -1.52464,1.6615 0.0519,3.23802 1.6022,1.60219 2.01768,1.58969 3.90405,-0.11745 2.68433,-2.42928 5.37659,-2.42928 7.80586,0 1.7588,1.7588 2.09036,1.74767 4.17641,-0.14017 4.8081,-4.35126 12.08787,2.04527 8.62548,7.57898 -1.60035,2.55774 -6.73864,3.01746 -8.95492,0.80118 -1.58685,-1.58685 -1.98023,-1.59462 -3.25036,-0.0642 -1.85685,2.23737 -6.40385,2.23737 -8.64121,0 -1.53303,-1.53302 -1.91386,-1.53302 -3.18615,0 -1.85685,2.23737 -6.40385,2.23737 -8.64122,0 -1.53303,-1.53302 -1.91386,-1.53302 -3.18615,0 -1.89465,2.28291 -6.41898,2.22223 -8.75868,-0.11745 z m -82.72736,-11.76315 c -4.16675,-4.16676 -0.0852,-11.01565 5.69933,-9.56379 3.38061,0.84848 5.2761,5.83858 3.37306,8.88008 -1.6352,2.6134 -6.75672,2.99937 -9.07239,0.68371 z m 23.59053,-0.0642 c -2.38001,-2.38 -2.36189,-5.0868 0.052,-7.75399 1.70715,-1.88637 1.71966,-2.30185 0.11745,-3.90404 -1.57651,-1.57652 -1.9675,-1.58278 -3.23803,-0.052 -3.08948,3.72263 -10.61729,0.8343 -10.61729,-4.07365 0,-2.53157 3.59992,-6.01251 6.21801,-6.01251 1.0407,0 2.75188,0.8597 3.80264,1.91046 1.7588,1.75879 2.07807,1.75879 4.0215,0 1.16109,-1.05076 2.96253,-1.91046 4.00323,-1.91046 1.0407,0 2.75188,0.8597 3.80263,1.91046 1.7588,1.75879 2.09036,1.74766 4.17642,-0.14018 4.80809,-4.35127 12.08787,2.04528 8.62548,7.57898 -1.57478,2.51687 -6.83296,3.04324 -8.8153,0.88248 -1.39353,-1.51897 -1.83621,-1.51055 -3.60643,0.0685 -1.76668,1.57583 -1.80349,2.01433 -0.29568,3.52215 2.08743,2.08743 2.24528,6.47079 0.30295,8.41313 -1.99026,1.99025 -6.34363,1.76656 -8.5495,-0.43931 z m -35.41789,-11.76316 c -4.16675,-4.16676 -0.0852,-11.01564 5.69933,-9.56379 3.38061,0.84849 5.27609,5.83859 3.37306,8.88008 -1.6352,2.6134 -6.75672,2.99937 -9.07239,0.68371 z m 70.89999,-0.0642 c -2.46945,-2.46944 -2.35019,-5.60907 0.30433,-8.01136 2.73365,-2.47392 5.41475,-2.48993 7.85773,-0.0469 1.7588,1.7588 2.07807,1.7588 4.02151,0 1.16107,-1.05076 2.96253,-1.91047 4.00322,-1.91047 1.0407,0 2.75188,0.85971 3.80264,1.91047 1.75879,1.7588 2.09036,1.74767 4.1764,-0.14017 4.8081,-4.35128 12.08789,2.04527 8.6255,7.57898 -1.60037,2.55774 -6.73866,3.01746 -8.95494,0.80117 -1.58685,-1.58686 -1.98023,-1.59463 -3.25036,-0.0642 -1.85684,2.23737 -6.40384,2.23737 -8.64121,0 -1.53303,-1.53302 -1.91386,-1.53302 -3.18615,0 -1.89465,2.28291 -6.41897,2.22223 -8.75867,-0.11746 z m 47.37367,0.0642 c -4.16676,-4.16676 -0.0853,-11.01564 5.69933,-9.56379 3.38061,0.84849 5.27609,5.83859 3.37305,8.88008 -1.63519,2.6134 -6.75671,2.99937 -9.07238,0.68371 z M 11.179888,208.55962 c -4.1667576,-4.16675 -0.08527,-11.01564 5.699323,-9.56378 3.380616,0.84848 5.276093,5.83857 3.37307,8.88006 -1.635192,2.61342 -6.756725,2.99939 -9.072393,0.68372 z m 177.346272,-0.0642 c -2.38,-2.37999 -2.36188,-5.08679 0.052,-7.75399 1.7588,-1.94343 1.7588,-2.2627 0,-4.0215 -2.51795,-2.51794 -2.42006,-5.64465 0.25246,-8.06324 2.73365,-2.47392 5.41475,-2.48993 7.85773,-0.0469 1.7588,1.7588 2.07807,1.7588 4.02151,0 1.16107,-1.05076 2.96253,-1.91046 4.00322,-1.91046 1.0407,0 2.75188,0.8597 3.80264,1.91046 1.75879,1.7588 2.07806,1.7588 4.0215,0 2.69487,-2.43882 5.3782,-2.42766 7.83847,0.0326 1.76643,1.76641 2.11203,1.7741 3.80166,0.0845 1.68962,-1.68963 1.68194,-2.03523 -0.0845,-3.80166 -2.46027,-2.46026 -2.47144,-5.14359 -0.0326,-7.83847 1.7588,-1.94343 1.7588,-2.2627 0,-4.0215 -2.42929,-2.42927 -2.42929,-5.12153 0,-7.80586 1.70714,-1.88637 1.71965,-2.30185 0.11744,-3.90405 -1.57651,-1.5765 -1.96749,-1.58277 -3.23802,-0.052 -3.08949,3.72262 -10.61729,0.8343 -10.61729,-4.07365 0,-2.53157 3.59991,-6.01252 6.21801,-6.01252 1.0407,0 2.75188,0.85971 3.80263,1.91047 1.7588,1.7588 2.07807,1.7588 4.0215,0 2.69488,-2.43883 5.37821,-2.42766 7.83848,0.0326 1.76642,1.76642 2.11202,1.77411 3.80165,0.0845 1.68963,-1.68964 1.68194,-2.03523 -0.0845,-3.80166 -1.06872,-1.06869 -1.9431,-2.88703 -1.9431,-4.04075 0,-2.53156 3.59991,-6.01251 6.21801,-6.01251 4.728,0 7.49852,7.60439 3.86822,10.61726 -1.53091,1.27054 -1.52464,1.66151 0.052,3.23802 1.6022,1.6022 2.01768,1.5897 3.90405,-0.11744 1.16107,-1.05076 2.96253,-1.91046 4.00322,-1.91046 1.0407,0 2.75189,0.8597 3.80264,1.91046 1.7588,1.7588 2.07807,1.7588 4.0215,0 1.16109,-1.05076 2.96253,-1.91046 4.00322,-1.91046 1.04071,0 2.75189,0.8597 3.80265,1.91046 1.7588,1.7588 2.07806,1.7588 4.0215,0 1.16108,-1.05076 2.96253,-1.91046 4.00322,-1.91046 4.728,0 7.49853,7.60438 3.86823,10.61726 -1.53091,1.27053 -1.52464,1.6615 0.0519,3.23803 1.6022,1.60219 2.03417,1.57476 4.05895,-0.25764 4.80809,-4.35126 12.08788,2.04528 8.62549,7.57898 -1.60037,2.55774 -6.73865,3.01746 -8.95493,0.80118 -1.58686,-1.58685 -1.98024,-1.59462 -3.25036,-0.0642 -0.79475,0.95762 -2.67241,1.74113 -4.17256,1.74113 -1.50014,0 -3.51105,-0.78351 -4.46866,-1.74113 -1.53303,-1.53302 -1.91386,-1.53302 -3.18615,0 -1.85061,2.22985 -6.40138,2.23983 -8.62232,0.0189 -1.5078,-1.50781 -1.94631,-1.471 -3.52213,0.29569 -1.54414,1.73115 -1.56352,2.23464 -0.13637,3.54297 2.03625,1.86671 2.16884,6.3671 0.24428,8.29166 -1.94234,1.94233 -6.32571,1.78448 -8.41314,-0.30296 -1.50781,-1.5078 -1.94631,-1.47098 -3.52214,0.29569 -1.54413,1.73115 -1.56351,2.23464 -0.13636,3.54297 2.17249,1.99161 2.1298,6.66887 -0.0776,8.50084 -1.53043,1.27012 -1.52265,1.6635 0.0642,3.25036 2.21629,2.21628 1.75657,7.35456 -0.80117,8.95493 -5.53371,3.46239 -11.93026,-3.8174 -7.57898,-8.62549 1.8324,-2.02478 1.85982,-2.45676 0.25762,-4.05895 -1.57651,-1.5765 -1.96749,-1.58277 -3.23802,-0.052 -1.85685,2.23737 -6.40384,2.23737 -8.64122,0 -1.53303,-1.53302 -1.91386,-1.53302 -3.18615,0 -1.85685,2.23737 -6.40383,2.23737 -8.64121,0 -1.53303,-1.53302 -1.91386,-1.53302 -3.18615,0 -1.83197,2.20737 -6.50923,2.25006 -8.50084,0.0776 -1.30833,-1.42715 -1.81182,-1.40777 -3.54297,0.13636 -1.76668,1.57583 -1.80349,2.01433 -0.29568,3.52214 2.08743,2.08744 2.24529,6.4708 0.30295,8.41314 -1.99026,1.99025 -6.34363,1.76656 -8.5495,-0.4393 z m 47.77016,-19.96638 c 1.11982,-1.3493 1.08742,-2.08775 -0.15086,-3.43766 -1.37835,-1.50262 -1.82932,-1.49423 -3.57931,0.0665 -1.57332,1.4032 -1.70001,2.13003 -0.59137,3.39268 1.82411,2.07755 2.58257,2.07377 4.32154,-0.0216 z m 0,-11.82737 c 1.11982,-1.34929 1.08742,-2.08775 -0.15086,-3.43766 -1.37835,-1.50262 -1.82932,-1.49422 -3.57931,0.0666 -1.57332,1.40318 -1.70001,2.13001 -0.59137,3.39267 1.82411,2.07756 2.58257,2.07377 4.32154,-0.0216 z m 11.82736,0 c 1.11984,-1.34929 1.08742,-2.08775 -0.15086,-3.43766 -1.37835,-1.50262 -1.8293,-1.49422 -3.57931,0.0666 -1.57331,1.40318 -1.70001,2.13001 -0.59137,3.39267 1.82413,2.07756 2.58258,2.07377 4.32154,-0.0216 z m -11.82736,-11.82736 c 1.11982,-1.34931 1.08742,-2.08775 -0.15086,-3.43766 -1.37835,-1.50262 -1.82932,-1.49423 -3.57931,0.0665 -1.57332,1.40319 -1.70001,2.13002 -0.59137,3.39268 1.82411,2.07755 2.58257,2.07377 4.32154,-0.0216 z m 11.82736,0 c 1.11984,-1.34931 1.08742,-2.08775 -0.15086,-3.43766 -1.37835,-1.50262 -1.8293,-1.49423 -3.57931,0.0665 -1.57331,1.40319 -1.70001,2.13002 -0.59137,3.39268 1.82413,2.07755 2.58258,2.07377 4.32154,-0.0216 z m 11.82737,0 c 1.11983,-1.34931 1.08742,-2.08775 -0.15085,-3.43766 -1.37836,-1.50262 -1.82932,-1.49423 -3.57932,0.0665 -1.57331,1.40319 -1.70001,2.13002 -0.59138,3.39268 1.82413,2.07755 2.58258,2.07377 4.32155,-0.0216 z m 11.82736,0 c 1.11984,-1.34931 1.08742,-2.08775 -0.15085,-3.43766 -1.37836,-1.50262 -1.82932,-1.49423 -3.57932,0.0665 -1.57331,1.40319 -1.70001,2.13002 -0.59137,3.39268 1.82413,2.07755 2.58258,2.07377 4.32154,-0.0216 z m 11.43089,31.85795 c -4.16675,-4.16675 -0.0852,-11.01563 5.69932,-9.56378 3.38062,0.84849 5.2761,5.83858 3.37307,8.88007 -1.6352,2.61341 -6.75672,2.99938 -9.07239,0.68371 z M 70.252506,184.84069 c -2.379997,-2.37999 -2.361889,-5.0868 0.05192,-7.75398 1.758801,-1.94344 1.758801,-2.26272 0,-4.02151 -1.050755,-1.05075 -1.910462,-2.85442 -1.910462,-4.00814 0,-2.53156 3.599931,-6.01251 6.218024,-6.01251 4.72799,0 7.49852,7.60438 3.868212,10.61725 -1.530899,1.27054 -1.52463,1.66152 0.05192,3.23803 1.602195,1.6022 2.017678,1.5897 3.904053,-0.11744 1.16108,-1.05076 2.96253,-1.91047 4.00322,-1.91047 1.040702,0 2.751885,0.85971 3.80264,1.91047 1.758801,1.7588 2.078069,1.7588 4.021506,0 2.694877,-2.43883 5.378199,-2.42766 7.838471,0.0326 1.76642,1.76642 2.11202,1.77411 3.80165,0.0845 1.68962,-1.68964 1.68194,-2.03523 -0.0844,-3.80166 -2.54845,-2.54846 -2.46377,-5.66721 0.21984,-8.09584 2.7443,-2.48354 5.41629,-2.48841 7.89035,-0.0143 1.76643,1.76641 2.11202,1.7741 3.80166,0.0845 1.68962,-1.68964 1.68193,-2.03523 -0.0845,-3.80166 -1.06875,-1.0687 -1.94313,-2.88703 -1.94313,-4.04076 0,-2.53157 3.59991,-6.01252 6.21801,-6.01252 4.728,0 7.49852,7.60439 3.86822,10.61727 -1.5309,1.27053 -1.52463,1.6615 0.0519,3.23803 1.6022,1.60218 2.01768,1.58969 3.90406,-0.11746 2.69487,-2.43882 5.37819,-2.42766 7.83846,0.0326 1.76643,1.76641 2.11202,1.7741 3.80166,0.0845 1.68962,-1.68964 1.68193,-2.03523 -0.0845,-3.80166 -2.46027,-2.46027 -2.47143,-5.14359 -0.0326,-7.83847 1.7588,-1.94344 1.7588,-2.2627 0,-4.02151 -1.0508,-1.05076 -1.91051,-2.85443 -1.91051,-4.00815 0,-2.53156 3.59992,-6.01251 6.21801,-6.01251 4.72801,0 7.49853,7.60439 3.86823,10.61726 -1.53091,1.27054 -1.52464,1.66151 0.052,3.23803 1.6022,1.60219 2.03417,1.57476 4.05895,-0.25764 4.8081,-4.35126 12.08788,2.04529 8.62549,7.57899 -1.57479,2.51687 -6.83295,3.04324 -8.81531,0.88248 -1.39352,-1.51897 -1.83621,-1.51057 -3.60642,0.0685 -1.76667,1.57583 -1.8035,2.01432 -0.29569,3.52214 2.08744,2.08744 2.24529,6.47079 0.30295,8.41313 -1.94234,1.94234 -6.32569,1.78449 -8.41314,-0.30295 -1.50781,-1.5078 -1.9463,-1.47098 -3.52214,0.29569 -1.57897,1.77021 -1.58739,2.2129 -0.0685,3.60642 2.16076,1.98236 1.63438,7.24053 -0.88249,8.81531 -5.5337,3.46239 -11.93024,-3.81739 -7.57898,-8.62549 1.8324,-2.02478 1.85982,-2.45675 0.25763,-4.05895 -1.57651,-1.5765 -1.96749,-1.58277 -3.23802,-0.052 -1.83196,2.20738 -6.50923,2.25006 -8.50084,0.0776 -1.30833,-1.42715 -1.81182,-1.40777 -3.54297,0.13637 -1.76667,1.57582 -1.8035,2.01433 -0.29568,3.52213 2.08744,2.08744 2.24528,6.47081 0.30294,8.41315 -1.94912,1.94912 -6.3282,1.78197 -8.43203,-0.32185 -1.53303,-1.53302 -1.91386,-1.53302 -3.18615,0 -1.85685,2.23737 -6.403844,2.23737 -8.641216,0 -1.533027,-1.53302 -1.913856,-1.53302 -3.18615,0 -1.856849,2.23737 -6.403844,2.23737 -8.641216,0 -1.533031,-1.53302 -1.913861,-1.53302 -3.186143,0 -1.894661,2.28292 -6.418971,2.22224 -8.758685,-0.11745 z m 94.618924,0 c -2.38001,-2.37999 -2.36189,-5.0868 0.052,-7.75398 1.7588,-1.94344 1.7588,-2.26272 0,-4.02151 -2.51796,-2.51794 -2.42006,-5.64466 0.25246,-8.06324 2.74428,-2.48355 5.41627,-2.4884 7.89033,-0.0143 1.76643,1.76642 2.11203,1.77411 3.80166,0.0845 1.68963,-1.68963 1.68194,-2.03522 -0.0845,-3.80165 -2.54845,-2.54845 -2.46377,-5.66722 0.21986,-8.09585 2.74428,-2.48354 5.41628,-2.48841 7.89033,-0.0143 1.76643,1.76641 2.11203,1.7741 3.80166,0.0845 1.68963,-1.68964 1.68193,-2.03523 -0.0845,-3.80166 -2.46028,-2.46026 -2.47144,-5.14359 -0.0326,-7.83847 1.7588,-1.94343 1.7588,-2.2627 0,-4.0215 -1.05083,-1.05076 -1.91054,-2.85441 -1.91054,-4.00814 0,-2.53157 3.59991,-6.01251 6.21801,-6.01251 4.728,0 7.49852,7.60438 3.86822,10.61726 -1.53089,1.27053 -1.52462,1.6615 0.052,3.23803 1.6022,1.60219 2.03417,1.57476 4.05896,-0.25764 4.8081,-4.35126 12.08787,2.04528 8.62548,7.57898 -1.59462,2.54859 -6.73571,3.0204 -8.93602,0.82008 -1.59344,-1.59342 -1.98091,-1.56842 -3.58635,0.23147 -1.54414,1.73115 -1.56351,2.23465 -0.13636,3.54297 2.03624,1.86672 2.16883,6.36711 0.24426,8.29166 -1.94233,1.94234 -6.32569,1.78449 -8.41313,-0.30295 -1.50781,-1.5078 -1.94631,-1.47099 -3.52215,0.29569 -1.54412,1.73115 -1.5635,2.23464 -0.13635,3.54297 2.17249,1.99161 2.1298,6.66887 -0.0776,8.50083 -1.53301,1.2723 -1.53301,1.65313 0,3.18615 2.10383,2.10383 2.27097,6.48292 0.32185,8.43204 -1.94913,1.94913 -6.32821,1.78198 -8.43204,-0.32184 -1.53302,-1.53302 -1.91386,-1.53302 -3.18615,0 -1.89465,2.28292 -6.41897,2.22224 -8.75867,-0.11745 z m 12.28805,-8.13901 c 1.11984,-1.3493 1.08743,-2.08776 -0.15085,-3.43767 -1.37835,-1.50261 -1.82931,-1.49422 -3.57932,0.0666 -1.57331,1.40319 -1.7,2.13001 -0.59137,3.39268 1.82413,2.07755 2.58258,2.07376 4.32154,-0.0216 z m 117.87719,8.20322 c -4.16676,-4.16675 -0.0853,-11.01564 5.69933,-9.56378 3.38061,0.84847 5.27609,5.83857 3.37305,8.88007 -1.63519,2.61341 -6.75671,2.99938 -9.07238,0.68371 z m 23.65474,0 c -4.16677,-4.16675 -0.0852,-11.01564 5.69932,-9.56378 3.38062,0.84847 5.27609,5.83857 3.37305,8.88007 -1.63519,2.61341 -6.75671,2.99938 -9.07237,0.68371 z m -11.82738,-11.82737 c -4.16675,-4.16675 -0.0852,-11.01563 5.69933,-9.56378 3.38062,0.84848 5.27609,5.83858 3.37306,8.88007 -1.6352,2.61341 -6.75672,2.99939 -9.07239,0.68371 z m 70.9642,0 c -4.16675,-4.16675 -0.0852,-11.01563 5.69932,-9.56378 3.38062,0.84848 5.2761,5.83858 3.37307,8.88007 -1.6352,2.61341 -6.75672,2.99939 -9.07239,0.68371 z M 82.144088,161.25017 c -4.166762,-4.16676 -0.08527,-11.01565 5.699324,-9.56379 3.380616,0.84848 5.276092,5.83858 3.373058,8.88008 -1.635192,2.6134 -6.756715,2.99938 -9.072382,0.68371 z m 236.483112,-0.0642 c -2.38002,-2.38 -2.3619,-5.0868 0.0519,-7.75399 1.7588,-1.94343 1.7588,-2.26271 0,-4.0215 -1.05081,-1.05074 -1.91051,-2.76193 -1.91051,-3.80263 0,-1.04069 0.8597,-2.84214 1.91045,-4.00322 1.75881,-1.94343 1.75881,-2.26271 0,-4.0215 -2.51794,-2.51794 -2.42005,-5.64467 0.25247,-8.06324 2.74428,-2.48355 5.41628,-2.48841 7.89033,-0.0143 1.76643,1.76642 2.11203,1.77411 3.80166,0.0845 1.68963,-1.68964 1.68194,-2.03523 -0.0845,-3.80166 -2.54846,-2.54846 -2.46378,-5.66721 0.21984,-8.09584 2.73365,-2.47393 5.41476,-2.48993 7.85773,-0.0469 1.75881,1.7588 2.07807,1.7588 4.02152,0 2.69487,-2.43882 5.37819,-2.42766 7.83847,0.0326 1.76643,1.76641 2.11202,1.7741 3.80166,0.0845 1.68961,-1.68964 1.68193,-2.03523 -0.0845,-3.80166 -2.54846,-2.54845 -2.46376,-5.66721 0.21985,-8.09585 2.73365,-2.47391 5.41476,-2.48993 7.85774,-0.047 1.7588,1.7588 2.09035,1.74768 4.1764,-0.14017 4.8081,-4.35127 12.08788,2.04528 8.62549,7.57898 -1.59462,2.54859 -6.73571,3.02039 -8.93602,0.82007 -1.59344,-1.59342 -1.98092,-1.56841 -3.58636,0.23148 -1.54414,1.73115 -1.5635,2.23463 -0.13635,3.54297 2.17248,1.99161 2.12979,6.66887 -0.0776,8.50083 -1.53089,1.27054 -1.52462,1.66151 0.052,3.23803 1.6022,1.6022 2.01768,1.58969 3.90405,-0.11744 1.16109,-1.05076 2.96253,-1.91047 4.00323,-1.91047 1.0407,0 2.75188,0.85971 3.80263,1.91047 1.75881,1.75879 2.07807,1.75879 4.02152,0 1.16107,-1.05076 2.96252,-1.91047 4.00321,-1.91047 1.0407,0 2.75188,0.85971 3.80264,1.91047 1.7588,1.75879 2.07807,1.75879 4.02151,0 1.16108,-1.05076 2.96253,-1.91047 4.00322,-1.91047 4.728,0 7.49852,7.60438 3.86822,10.61726 -1.53041,1.27013 -1.52264,1.66351 0.0642,3.25036 2.21628,2.21628 1.75656,7.35457 -0.80118,8.95493 -5.53369,3.46239 -11.93024,-3.81739 -7.57898,-8.62549 1.8324,-2.02479 1.85983,-2.45675 0.25764,-4.05895 -1.57653,-1.5765 -1.9675,-1.58277 -3.23803,-0.052 -1.85062,2.22985 -6.40138,2.23984 -8.62232,0.0189 -1.5078,-1.50781 -1.94631,-1.47099 -3.52213,0.29569 -1.54414,1.73114 -1.56352,2.23463 -0.13637,3.54297 2.03625,1.8667 2.16884,6.36709 0.24427,8.29165 -1.94912,1.94913 -6.3282,1.78199 -8.43203,-0.32184 -1.53303,-1.53302 -1.91386,-1.53302 -3.18615,0 -1.85062,2.22984 -6.40138,2.23983 -8.62232,0.0189 -1.50781,-1.50782 -1.94631,-1.471 -3.52214,0.29568 -1.57898,1.77021 -1.58738,2.21291 -0.0684,3.60643 2.16076,1.98234 1.63439,7.24052 -0.88248,8.8153 -5.5337,3.46239 -11.93025,-3.8174 -7.57898,-8.62548 1.8324,-2.02479 1.85982,-2.45677 0.25763,-4.05896 -1.57652,-1.5765 -1.96749,-1.58277 -3.23802,-0.052 -1.83197,2.20737 -6.50924,2.25006 -8.50084,0.0776 -1.30834,-1.42715 -1.81183,-1.40778 -3.54297,0.13635 -1.76668,1.57584 -1.8035,2.01433 -0.29568,3.52215 2.08743,2.08744 2.24528,6.47079 0.30294,8.41313 -1.99025,1.99025 -6.34363,1.76656 -8.5495,-0.4393 z m 12.28805,-19.96638 c 1.11982,-1.34931 1.08742,-2.08775 -0.15087,-3.43766 -1.37834,-1.50262 -1.82931,-1.49424 -3.57931,0.0665 -1.57331,1.40319 -1.70001,2.13002 -0.59137,3.39267 1.82412,2.07757 2.58258,2.07378 4.32155,-0.0215 z m 11.87356,-0.0557 c 1.93182,-2.32771 5.26436,-2.25446 7.68778,0.16896 1.76643,1.76642 2.11203,1.77411 3.80166,0.0845 1.68963,-1.68964 1.68194,-2.03523 -0.0845,-3.80166 -2.46028,-2.46027 -2.47144,-5.14359 -0.0326,-7.83847 1.70715,-1.88637 1.71965,-2.30185 0.11744,-3.90405 -1.57651,-1.5765 -1.96748,-1.58277 -3.23801,-0.052 -1.85062,2.22985 -6.40139,2.23983 -8.62232,0.0189 -1.50782,-1.50781 -1.94631,-1.471 -3.52215,0.29568 -1.54412,1.73115 -1.5635,2.23465 -0.13635,3.54297 2.16565,1.98535 2.13221,6.66687 -0.0607,8.48677 -1.35864,1.12757 -1.42133,1.7756 -0.29568,3.05668 1.85174,2.10742 2.59607,2.09752 4.38532,-0.0584 z m 23.60853,0.0557 c 1.11983,-1.34931 1.08742,-2.08775 -0.15085,-3.43766 -1.37836,-1.50262 -1.82932,-1.49424 -3.57932,0.0665 -1.57331,1.40319 -1.70001,2.13002 -0.59137,3.39267 1.82413,2.07757 2.58258,2.07378 4.32154,-0.0215 z m -355.217452,8.2032 c -4.1667576,-4.16676 -0.08527,-11.01564 5.699323,-9.56379 3.380616,0.84849 5.276093,5.83859 3.37307,8.88007 -1.635192,2.61341 -6.756725,2.99939 -9.072393,0.68372 z m 23.590521,-0.0642 c -2.469449,-2.46944 -2.350181,-5.60907 0.30433,-8.01136 2.744291,-2.48355 5.416295,-2.48841 7.890342,-0.0143 1.76643,1.76642 2.112037,1.77411 3.801659,0.0845 1.689622,-1.68963 1.681946,-2.03523 -0.08445,-3.80166 -2.460269,-2.46027 -2.471435,-5.14359 -0.03264,-7.83847 1.758801,-1.94343 1.758801,-2.26271 0,-4.0215 -1.050755,-1.0508 -1.910462,-2.76198 -1.910462,-3.80268 0,-1.04068 0.859707,-2.84214 1.910474,-4.00321 1.758789,-1.94345 1.758789,-2.26271 0,-4.02152 -2.517951,-2.51793 -2.420056,-5.64465 0.252443,-8.06323 2.733648,-2.47392 5.414758,-2.48993 7.857748,-0.0469 1.758789,1.7588 2.090356,1.74767 4.176397,-0.14018 4.808096,-4.35126 12.087875,2.04529 8.625497,7.57898 -1.574779,2.51687 -6.832966,3.04324 -8.815303,0.88248 -1.393524,-1.51896 -1.83621,-1.51055 -3.606424,0.0685 -1.766689,1.57584 -1.803496,2.01433 -0.295684,3.52215 2.220918,2.22093 2.210948,6.77169 -0.01892,8.62231 -1.530899,1.27054 -1.524642,1.66151 0.05192,3.23802 1.602182,1.6022 2.017678,1.5897 3.904048,-0.11744 2.694877,-2.43883 5.378187,-2.42766 7.838456,0.0326 1.76643,1.76642 2.112036,1.77411 3.801658,0.0845 1.689623,-1.68963 1.681947,-2.03523 -0.08444,-3.80166 -1.068685,-1.06875 -1.94307,-2.88709 -1.94307,-4.04081 0,-2.53157 3.599931,-6.01252 6.218025,-6.01252 4.727989,0 7.498519,7.60438 3.868211,10.61726 -1.530899,1.27053 -1.52463,1.66151 0.05192,3.23803 1.602195,1.60219 2.034165,1.57476 4.058957,-0.25764 4.808096,-4.35126 12.087874,2.04528 8.625484,7.57899 -1.574778,2.51686 -6.832953,3.04324 -8.815302,0.88247 -1.393524,-1.51895 -1.836216,-1.51055 -3.606429,0.0685 -1.799889,1.60545 -1.824892,1.99292 -0.231473,3.58635 2.200316,2.20031 1.728511,7.3414 -0.820074,8.93602 -5.533705,3.46239 -11.930252,-3.81738 -7.578988,-8.62548 1.832402,-2.02479 1.859829,-2.45676 0.257635,-4.05896 -1.576517,-1.5765 -1.967494,-1.58277 -3.238025,-0.052 -1.831964,2.20738 -6.509226,2.25006 -8.500837,0.0776 -1.308331,-1.42715 -1.811822,-1.40778 -3.54297,0.13636 -1.766677,1.57583 -1.803496,2.01433 -0.295684,3.52214 2.087448,2.08744 2.245284,6.4708 0.302947,8.41314 -1.949127,1.94912 -6.328209,1.78199 -8.432037,-0.32185 -1.533028,-1.53301 -1.913858,-1.53301 -3.186151,0 -1.89465,2.28292 -6.418972,2.22224 -8.758673,-0.11745 z m 130.165231,0.0642 c -4.16675,-4.16676 -0.0852,-11.01564 5.69932,-9.56379 3.38062,0.84849 5.27611,5.83859 3.37307,8.88007 -1.6352,2.61341 -6.75671,2.99939 -9.07239,0.68372 z m 118.20945,-0.0642 c -2.38,-2.38 -2.36189,-5.0868 0.052,-7.75398 1.75881,-1.94345 1.75881,-2.26271 0,-4.02151 -1.05079,-1.05079 -1.9105,-2.76197 -1.9105,-3.80267 0,-1.0407 0.85971,-2.84214 1.91046,-4.00323 1.7588,-1.94343 1.7588,-2.2627 0,-4.0215 -1.05075,-1.05076 -1.91046,-2.76194 -1.91046,-3.80265 0,-1.04068 0.85971,-2.84213 1.91046,-4.00321 1.7588,-1.94344 1.7588,-2.2627 0,-4.02151 -1.05075,-1.05075 -1.91046,-2.76193 -1.91046,-3.80264 0,-1.04069 0.85971,-2.84214 1.91046,-4.00322 1.70715,-1.88637 1.71965,-2.30185 0.11744,-3.90405 -1.57651,-1.5765 -1.96749,-1.58277 -3.23802,-0.0519 -3.01288,3.63031 -10.61726,0.85978 -10.61726,-3.868219 0,-1.04069 0.85971,-2.842139 1.91046,-4.00322 1.75881,-1.943437 1.75881,-2.262705 0,-4.021506 -1.05074,-1.050708 -1.91045,-2.854369 -1.91045,-4.008093 0,-2.531565 3.59993,-6.01251 6.21801,-6.01251 4.72801,0 7.49854,7.604379 3.86822,10.617259 -1.53089,1.27053 -1.52462,1.661508 0.052,3.238025 1.60218,1.602195 2.01766,1.589693 3.90404,-0.117445 1.16108,-1.050755 2.96253,-1.910464 4.00322,-1.910464 4.728,0 7.49852,7.604382 3.86822,10.617263 -1.53089,1.27053 -1.52463,1.66151 0.0519,3.23802 1.6022,1.6022 2.03417,1.57477 4.05895,-0.25763 4.80811,-4.35127 12.08788,2.04528 8.62549,7.57898 -1.59462,2.54858 -6.7357,3.0204 -8.93602,0.82008 -1.59343,-1.59342 -1.9809,-1.56842 -3.58636,0.23147 -1.54412,1.73115 -1.5635,2.23464 -0.13635,3.54298 2.17249,1.9916 2.1298,6.66887 -0.0776,8.50083 -1.5309,1.27053 -1.52463,1.6615 0.052,3.23803 1.60218,1.60218 2.03416,1.57476 4.05895,-0.25764 4.80809,-4.35126 12.08787,2.04528 8.62548,7.57898 -1.57478,2.51687 -6.83296,3.04324 -8.8153,0.88248 -1.39353,-1.51896 -1.83621,-1.51056 -3.60643,0.0685 -1.76668,1.57584 -1.80349,2.01433 -0.29568,3.52215 2.08743,2.08743 2.24528,6.47079 0.30295,8.41313 -1.99026,1.99025 -6.34363,1.76656 -8.5495,-0.4393 z M 22.943042,137.5312 c -2.379997,-2.37999 -2.361889,-5.08679 0.05192,-7.75399 1.758799,-1.94343 1.758799,-2.2627 0,-4.0215 -1.050755,-1.05079 -1.910463,-2.85445 -1.910463,-4.00817 0,-2.53157 3.59993,-6.01252 6.218025,-6.01252 4.727989,0 7.498514,7.60438 3.86821,10.61726 -1.533015,1.27229 -1.533015,1.65313 0,3.18616 2.103829,2.10383 2.270985,6.48291 0.321847,8.43203 -1.99025,1.99025 -6.343632,1.76656 -8.549495,-0.4393 z m 82.791558,0 c -2.38,-2.37999 -2.36188,-5.08679 0.0519,-7.75399 1.75881,-1.94343 1.75881,-2.2627 0,-4.0215 -2.51794,-2.51794 -2.42005,-5.64465 0.25246,-8.06324 2.74429,-2.48354 5.41629,-2.48841 7.89034,-0.0143 1.76643,1.76642 2.11203,1.7741 3.80166,0.0845 1.68962,-1.68962 1.68193,-2.03523 -0.0845,-3.80166 -2.46028,-2.46026 -2.47144,-5.14358 -0.0326,-7.83846 1.75879,-1.94344 1.75879,-2.26271 0,-4.02151 -1.05081,-1.05079 -1.91052,-2.854448 -1.91052,-4.008172 0,-2.531564 3.59992,-6.012512 6.21801,-6.012512 4.72801,0 7.49853,7.604381 3.86823,10.617264 -1.53302,1.27229 -1.53302,1.65312 0,3.18615 0.95762,0.95761 1.74112,2.96851 1.74112,4.46866 0,1.50015 -0.7835,3.3778 -1.74112,4.17255 -1.53302,1.2723 -1.53302,1.65313 0,3.18615 2.10383,2.10383 2.27097,6.48291 0.32184,8.43204 -1.92456,1.92456 -6.42494,1.79197 -8.29165,-0.24427 -1.30834,-1.42715 -1.81183,-1.40777 -3.54297,0.13636 -1.76668,1.57583 -1.8035,2.01433 -0.29569,3.52214 2.08744,2.08743 2.24528,6.4708 0.30294,8.41314 -1.99024,1.99024 -6.34363,1.76655 -8.54949,-0.4393 z m 23.71895,0.0642 c -4.16676,-4.16675 -0.0853,-11.01564 5.69932,-9.56378 3.38062,0.84848 5.27609,5.83857 3.37306,8.88007 -1.63519,2.61341 -6.75672,2.99938 -9.07238,0.68371 z m 82.72735,-0.0642 c -2.38001,-2.37999 -2.36189,-5.08679 0.052,-7.75399 1.75881,-1.94343 1.75881,-2.2627 0,-4.0215 -1.0508,-1.05079 -1.9105,-2.85445 -1.9105,-4.00817 0,-2.53157 3.59991,-6.01252 6.21801,-6.01252 4.728,0 7.49852,7.60438 3.86822,10.61726 -1.53091,1.27053 -1.52464,1.66151 0.0519,3.23803 1.6022,1.60219 2.03417,1.57477 4.05895,-0.25763 4.8081,-4.35127 12.08788,2.04527 8.62549,7.57898 -1.60036,2.55774 -6.73864,3.01746 -8.95492,0.80117 -1.58686,-1.58684 -1.98024,-1.59462 -3.25036,-0.0642 -1.89465,2.28291 -6.41898,2.22224 -8.75868,-0.11745 z m 35.4821,0 c -2.46945,-2.46945 -2.35019,-5.60907 0.30433,-8.01136 2.73365,-2.47391 5.41475,-2.48993 7.85773,-0.0469 1.7588,1.7588 2.09035,1.74767 4.17641,-0.14018 4.8081,-4.35126 12.08787,2.04529 8.62548,7.57899 -1.60036,2.55774 -6.73864,3.01746 -8.95492,0.80117 -1.58686,-1.58685 -1.98024,-1.59462 -3.25036,-0.0642 -1.89465,2.28292 -6.41897,2.22225 -8.75867,-0.11744 z M 141.28091,125.76804 c -4.16676,-4.16675 -0.0852,-11.01563 5.69932,-9.56378 3.38062,0.84849 5.2761,5.83858 3.37306,8.88007 -1.63519,2.61341 -6.7567,2.99938 -9.07238,0.68371 z m 94.55472,-0.0642 c -2.38001,-2.37999 -2.36189,-5.08679 0.052,-7.75398 1.70716,-1.88637 1.71966,-2.30185 0.11745,-3.90405 -1.57652,-1.5765 -1.9675,-1.58277 -3.23803,-0.0519 -3.08948,3.72258 -10.61729,0.83426 -10.61729,-4.0737 0,-2.53156 3.59992,-6.01251 6.21801,-6.01251 1.0407,0 2.75188,0.85971 3.80264,1.91046 1.7588,1.7588 2.07807,1.7588 4.02151,0 1.16108,-1.05075 2.96253,-1.91046 4.00322,-1.91046 4.728,0 7.49852,7.60438 3.86822,10.61725 -1.53302,1.2723 -1.53302,1.65314 0,3.18615 2.10383,2.10384 2.27097,6.48292 0.32185,8.43204 -1.99026,1.99026 -6.34363,1.76657 -8.5495,-0.4393 z m 71.0284,0.0642 c -4.16675,-4.16675 -0.0852,-11.01563 5.69933,-9.56378 3.38062,0.84849 5.27609,5.83858 3.37306,8.88007 -1.6352,2.61341 -6.75672,2.99938 -9.07239,0.68371 z M 82.079877,113.87649 c -2.469452,-2.46945 -2.350186,-5.60906 0.304329,-8.01136 2.733648,-2.47391 5.414758,-2.48993 7.857736,-0.0469 1.7588,1.7588 2.090357,1.74767 4.176408,-0.14017 4.808097,-4.35127 12.08787,2.04528 8.62549,7.57898 -1.60036,2.55774 -6.738647,3.01746 -8.954929,0.80118 -1.586854,-1.58686 -1.980232,-1.59463 -3.250361,-0.0642 -1.894649,2.28291 -6.418972,2.22224 -8.758673,-0.11745 z m 82.855763,0.0642 c -4.16675,-4.16675 -0.0852,-11.01564 5.69932,-9.56378 3.38062,0.84848 5.27611,5.83858 3.37307,8.88007 -1.6352,2.61341 -6.75671,2.99938 -9.07239,0.68371 z m 23.65473,0 c -4.16675,-4.16675 -0.0852,-11.01564 5.69933,-9.56378 3.38061,0.84848 5.2761,5.83858 3.37306,8.88007 -1.6352,2.61341 -6.75672,2.99938 -9.07239,0.68371 z m -35.5463,-11.89154 c -2.38001,-2.379996 -2.36189,-5.086796 0.052,-7.753985 1.7588,-1.943438 1.7588,-2.262705 0,-4.021506 -1.0508,-1.050766 -1.91051,-2.854428 -1.91051,-4.008152 0,-2.531565 3.59993,-6.012511 6.21801,-6.012511 4.728,0 7.49853,7.604381 3.86823,10.61726 -1.53302,1.272293 -1.53302,1.653122 0,3.18615 2.10382,2.103828 2.27097,6.482914 0.32184,8.432034 -1.99024,1.99025 -6.34363,1.76656 -8.54949,-0.4393 z m 59.20104,0.0642 c -4.16676,-4.166757 -0.0852,-11.015641 5.69932,-9.563785 3.38062,0.848483 5.2761,5.838579 3.37306,8.880065 -1.6352,2.61342 -6.75672,2.99939 -9.07238,0.68372 z m 35.41789,-0.0642 c -2.38002,-2.379996 -2.3619,-5.086796 0.052,-7.753985 1.7588,-1.943438 1.7588,-2.262705 0,-4.021506 -1.0508,-1.050766 -1.91051,-2.854428 -1.91051,-4.008152 0,-2.531565 3.59992,-6.012511 6.21801,-6.012511 4.728,0 7.49853,7.604381 3.86822,10.61726 -1.53301,1.272293 -1.53301,1.653122 0,3.18615 2.10383,2.103828 2.27098,6.482914 0.32185,8.432034 -1.99024,1.99025 -6.34363,1.76656 -8.54949,-0.4393 z M 33.503189,91.177935 C 25.038994,88.402371 14.012388,77.195222 11.274708,68.585478 c -2.7044931,-8.505345 -2.7044931,-26.113737 0,-34.619086 2.827166,-8.891193 13.768792,-19.832818 22.65999,-22.659994 8.505343,-2.7044877 26.113736,-2.7044877 34.619091,0 8.891186,2.827176 19.832817,13.768801 22.659996,22.659994 2.704481,8.505349 2.704481,26.113741 0,34.619086 -2.827179,8.891199 -13.76881,19.832825 -22.659996,22.660002 -8.330322,2.648834 -26.875856,2.613092 -35.0506,-0.06754 z M 64.339971,78.122357 c 10.682654,-5.503168 16.410257,-14.873263 16.410257,-26.84642 0,-11.977139 -5.628667,-21.181719 -16.495888,-26.975773 -6.610965,-3.52476 -19.409227,-3.52476 -26.020205,0 -10.86722,5.794054 -16.495887,14.998634 -16.495887,26.975773 0,13.929453 7.983921,24.590917 21.81055,29.125093 4.700597,1.54147 15.719918,0.33378 20.791173,-2.278673 z M 36.933125,65.58705 C 32.976173,61.630094 32.91182,61.401089 32.91182,51.275937 c 0,-10.125153 0.06434,-10.354156 4.021305,-14.311113 3.956963,-3.956956 4.185966,-4.021304 14.311113,-4.021304 10.125159,0 10.354161,0.06435 14.311113,4.021304 3.956963,3.956957 4.021304,4.18596 4.021304,14.311113 0,10.125152 -0.06434,10.354157 -4.021304,14.311113 -3.956952,3.956954 -4.185954,4.021306 -14.311113,4.021306 -10.125147,0 -10.35415,-0.06434 -14.311113,-4.021306 z M 341.0147,91.177935 c -8.4642,-2.775564 -19.49081,-13.982713 -22.22849,-22.592457 -2.70449,-8.505345 -2.70449,-26.113737 0,-34.619086 2.82718,-8.891193 13.76881,-19.832818 22.65999,-22.659994 8.50536,-2.7044877 26.11375,-2.7044877 34.6191,0 8.8912,2.827176 19.83282,13.768801 22.65999,22.659994 2.70449,8.505349 2.70449,26.113741 0,34.619086 -2.82717,8.891199 -13.76879,19.832825 -22.65999,22.660002 -8.33032,2.648834 -26.87586,2.613092 -35.0506,-0.06754 z m 30.83678,-13.055578 c 10.68264,-5.503168 16.41026,-14.873263 16.41026,-26.84642 0,-11.977139 -5.62866,-21.181719 -16.49589,-26.975773 -6.61097,-3.52476 -19.40922,-3.52476 -26.0202,0 -10.86722,5.794054 -16.49589,14.998634 -16.49589,26.975773 0,13.929453 7.98393,24.590917 21.81055,29.125093 4.7006,1.54147 15.71992,0.33378 20.79117,-2.278673 z M 344.44463,65.58705 c -3.95694,-3.956956 -4.02129,-4.185961 -4.02129,-14.311113 0,-10.125153 0.0643,-10.354156 4.02129,-14.311113 3.95696,-3.956956 4.18597,-4.021304 14.31113,-4.021304 10.12514,0 10.35416,0.06435 14.31111,4.021304 3.95694,3.956957 4.0213,4.18596 4.0213,14.311113 0,10.125152 -0.0643,10.354157 -4.0213,14.311113 -3.95695,3.956954 -4.18597,4.021306 -14.31111,4.021306 -10.12516,0 -10.35417,-0.06434 -14.31113,-4.021306 z M 105.79882,90.285974 c -4.16676,-4.166758 -0.0853,-11.015641 5.69932,-9.563784 3.38062,0.848481 5.27609,5.838577 3.37306,8.880067 -1.6352,2.61341 -6.75672,2.999384 -9.07238,0.683717 z m 23.65473,0 c -4.16676,-4.166758 -0.0853,-11.015641 5.69932,-9.563784 3.38062,0.848481 5.27609,5.838577 3.37306,8.880067 -1.63519,2.61341 -6.75672,2.999384 -9.07238,0.683717 z m 47.24525,-0.06422 c -2.38,-2.379997 -2.36188,-5.086796 0.052,-7.753985 1.70715,-1.88637 1.71966,-2.301853 0.11745,-3.904048 -1.57652,-1.576516 -1.96749,-1.582772 -3.23802,-0.05192 -3.01292,3.630314 -10.6173,0.859778 -10.6173,-3.868211 0,-1.040702 0.85971,-2.84214 1.91046,-4.00322 1.7588,-1.943449 1.7588,-2.262706 0,-4.021506 -2.42929,-2.429276 -2.42929,-5.121535 0,-7.805858 1.70716,-1.886372 1.71965,-2.301861 0.11745,-3.90405 -1.57652,-1.576513 -1.9675,-1.582776 -3.23803,-0.05188 -3.01287,3.630298 -10.61725,0.859772 -10.61725,-3.868223 0,-1.040697 0.85971,-2.842145 1.91047,-4.003218 1.70714,-1.886372 1.71965,-2.30186 0.11744,-3.904049 -1.57651,-1.576513 -1.9675,-1.582776 -3.23803,-0.05188 -3.01286,3.630298 -10.61724,0.859772 -10.61724,-3.868223 0,-1.040697 0.85971,-2.842145 1.91046,-4.003218 1.7588,-1.943446 1.7588,-2.262709 0,-4.021503 -1.05075,-1.050756 -1.91046,-2.761946 -1.91046,-3.802644 0,-1.040698 0.85971,-2.842146 1.91046,-4.003218 1.7588,-1.943447 1.7588,-2.26271 0,-4.021504 -1.05075,-1.050757 -1.91046,-2.854423 -1.91046,-4.008148 0,-2.531565 3.59991,-6.0125113 6.21801,-6.0125113 4.728,0 7.49852,7.6043803 3.86822,10.6172643 -1.53302,1.272291 -1.53302,1.653124 0,3.186142 0.95762,0.957623 1.74113,2.968525 1.74113,4.468672 0,1.500148 -0.78351,3.377795 -1.74113,4.172552 -1.53089,1.27053 -1.52462,1.661508 0.052,3.23802 1.6022,1.60219 2.01768,1.589689 3.90405,-0.117457 1.16104,-1.050752 2.96249,-1.910462 4.00317,-1.910462 4.72801,0 7.49854,7.604382 3.86824,10.617265 -1.53091,1.270531 -1.52464,1.661508 0.052,3.238021 1.60219,1.602189 2.01768,1.589688 3.90404,-0.117458 2.69487,-2.438831 5.3782,-2.427668 7.83847,0.03261 1.76643,1.766426 2.11203,1.774105 3.80166,0.08449 1.68962,-1.689625 1.68194,-2.035229 -0.0845,-3.801653 -2.46027,-2.460272 -2.47144,-5.143588 -0.0326,-7.838464 1.7588,-1.943447 1.7588,-2.26271 0,-4.021505 -2.51795,-2.517949 -2.42006,-5.644658 0.25245,-8.063244 2.73365,-2.473916 5.41476,-2.489934 7.85774,-0.04695 1.75879,1.758796 2.07807,1.758796 4.0215,0 2.69488,-2.43883 5.3782,-2.427669 7.83847,0.03261 1.76643,1.766425 2.11203,1.774105 3.80166,0.08449 1.68962,-1.689625 1.68194,-2.035231 -0.0845,-3.801654 -2.54845,-2.548456 -2.46377,-5.66721 0.21984,-8.095846 2.73365,-2.4739163 5.41477,-2.4899353 7.85774,-0.04696 1.75881,1.758795 2.09036,1.747666 4.17641,-0.140181 4.80809,-4.3512652 12.08788,2.045281 8.62549,7.578985 -1.57479,2.516862 -6.83295,3.043243 -8.81531,0.882474 -1.39352,-1.518956 -1.83621,-1.510557 -3.60641,0.06842 -1.76669,1.57583 -1.80351,2.014335 -0.29569,3.522144 2.08744,2.087438 2.24528,6.470804 0.30294,8.413137 -1.92456,1.924561 -6.42494,1.791977 -8.29166,-0.244275 -1.30833,-1.427148 -1.81182,-1.407769 -3.54297,0.136359 -1.76667,1.575832 -1.80349,2.014335 -0.29567,3.522145 2.22092,2.220926 2.21094,6.771705 -0.0189,8.62232 -1.53302,1.272291 -1.53302,1.653123 0,3.186142 2.10382,2.10383 2.27097,6.48291 0.32184,8.432041 -1.94912,1.949132 -6.32821,1.781983 -8.43204,-0.321847 -1.53301,-1.533019 -1.91385,-1.533019 -3.18615,0 -1.83196,2.20738 -6.50922,2.250061 -8.50083,0.07757 -1.30833,-1.427148 -1.81182,-1.407768 -3.54297,0.13636 -1.76667,1.575831 -1.80349,2.014334 -0.29569,3.522145 2.22094,2.220926 2.21096,6.771704 -0.0189,8.622315 -1.53089,1.270532 -1.52462,1.661509 0.052,3.238026 1.60219,1.602194 2.01767,1.589692 3.90404,-0.117446 1.161,-1.050755 2.96246,-1.910463 4.00314,-1.910463 1.0407,0 2.75189,0.859708 3.80265,1.910463 1.75879,1.7588 2.07807,1.7588 4.0215,0 1.16108,-1.050755 2.96253,-1.910463 4.00322,-1.910463 1.04071,0 2.75189,0.859708 3.80264,1.910463 1.7588,1.7588 2.07807,1.7588 4.02151,0 1.16108,-1.050755 2.96253,-1.910463 4.00321,-1.910463 4.72801,0 7.49854,7.604382 3.86823,10.617261 -1.53042,1.270129 -1.52265,1.663507 0.0642,3.25036 2.21628,2.216283 1.75657,7.354564 -0.80117,8.954924 -5.53371,3.462391 -11.93026,-3.817389 -7.579,-8.625485 1.83241,-2.024784 1.85984,-2.456755 0.25764,-4.05895 -1.57651,-1.576517 -1.96749,-1.582772 -3.23803,-0.05192 -1.83196,2.207376 -6.50922,2.250061 -8.50083,0.07758 -1.30833,-1.427149 -1.81182,-1.407764 -3.54297,0.136357 -1.76667,1.575832 -1.80349,2.014331 -0.29569,3.522142 2.08744,2.087435 2.24529,6.470799 0.30295,8.413137 -1.99025,1.990249 -6.34363,1.766559 -8.54949,-0.439304 z M 188.98686,46.60064 c 1.11982,-1.349301 1.08741,-2.087754 -0.15086,-3.437664 -1.37835,-1.502609 -1.82932,-1.494226 -3.57932,0.06654 -1.57331,1.403193 -1.7,2.130015 -0.59136,3.392675 1.82411,2.077554 2.58256,2.07377 4.32154,-0.02154 z m 0,-11.827365 c 1.11982,-1.349302 1.08741,-2.087756 -0.15086,-3.437664 -1.37835,-1.50261 -1.82932,-1.494227 -3.57932,0.06654 -1.57331,1.403193 -1.7,2.130015 -0.59136,3.392676 1.82411,2.077553 2.58256,2.073769 4.32154,-0.02155 z m 35.08562,55.512688 c -4.16676,-4.166758 -0.0853,-11.015641 5.69932,-9.563784 3.38062,0.848481 5.27609,5.838578 3.37306,8.880067 -1.63519,2.613411 -6.75672,2.999385 -9.07238,0.683717 z m 70.89998,-0.06422 c -2.38001,-2.379998 -2.36189,-5.086797 0.052,-7.753987 1.75879,-1.943435 1.75879,-2.262704 0,-4.021503 -1.05081,-1.050732 -1.91052,-2.854393 -1.91052,-4.008117 0,-2.531565 3.59992,-6.012513 6.21801,-6.012513 4.72801,0 7.49854,7.604382 3.86823,10.617261 -1.53301,1.272294 -1.53301,1.653123 0,3.186149 2.10383,2.103828 2.27098,6.482911 0.32184,8.432037 -1.99024,1.99025 -6.34363,1.766559 -8.54948,-0.439304 z M 141.28091,78.458609 c -4.16676,-4.166757 -0.0852,-11.015642 5.69932,-9.563786 3.38062,0.848484 5.2761,5.838579 3.37306,8.88007 -1.63519,2.61341 -6.7567,2.999384 -9.07238,0.683716 z m 118.27366,0 c -4.16675,-4.166757 -0.0852,-11.015642 5.69932,-9.563786 3.38062,0.848484 5.27609,5.838579 3.37306,8.88007 -1.63519,2.61341 -6.75671,2.999384 -9.07238,0.683716 z M 129.38934,66.567032 c -2.38001,-2.380003 -2.36189,-5.086795 0.052,-7.753983 1.70715,-1.886372 1.71965,-2.301861 0.11745,-3.90405 -1.57652,-1.576513 -1.9675,-1.582776 -3.23803,-0.05188 -0.79478,0.957618 -2.67244,1.741128 -4.17259,1.741128 -1.50014,0 -3.51105,-0.78351 -4.46866,-1.741132 -1.53303,-1.533018 -1.91386,-1.533018 -3.18615,0 -3.01288,3.630301 -10.61726,0.859775 -10.61726,-3.868219 0,-1.040698 0.85971,-2.842146 1.91046,-4.003218 1.7588,-1.943447 1.7588,-2.26271 0,-4.021505 -1.05075,-1.050755 -1.91046,-2.854422 -1.91046,-4.008147 0,-2.531565 3.59992,-6.012511 6.21801,-6.012511 4.728,0 7.49853,7.604381 3.86823,10.617264 -1.53091,1.270531 -1.52464,1.661508 0.052,3.238021 1.60219,1.602189 2.01768,1.589688 3.90405,-0.117458 1.16103,-1.050753 2.96248,-1.910461 4.00317,-1.910461 1.0407,0 2.75189,0.859708 3.80264,1.910464 1.7588,1.758796 2.07807,1.758796 4.02151,0 1.16107,-1.050756 2.96253,-1.910464 4.00321,-1.910464 4.728,0 7.49853,7.604381 3.86823,10.617264 -1.53302,1.272291 -1.53302,1.653124 0,3.186142 2.10382,2.10383 2.27097,6.482911 0.32184,8.432044 -1.99024,1.99025 -6.34363,1.766559 -8.54949,-0.439304 z m 118.33787,0.06422 c -4.16677,-4.166756 -0.0853,-11.015643 5.69932,-9.56379 3.38062,0.848481 5.27609,5.838581 3.37306,8.880067 -1.63519,2.613418 -6.75671,2.999392 -9.07238,0.683723 z m 35.41788,-0.06422 c -2.38,-2.380003 -2.36189,-5.086795 0.052,-7.753983 1.75881,-1.943447 1.75881,-2.26271 0,-4.021505 -1.05079,-1.050756 -1.9105,-2.761945 -1.9105,-3.802643 0,-1.040698 0.85971,-2.842146 1.91046,-4.003218 1.7588,-1.943447 1.7588,-2.262709 0,-4.021505 -2.51795,-2.517948 -2.42005,-5.644658 0.25245,-8.063243 2.7443,-2.483545 5.41629,-2.488404 7.89035,-0.01435 1.76643,1.766426 2.11202,1.774105 3.80166,0.08449 1.68962,-1.689625 1.68193,-2.035229 -0.0845,-3.801653 -2.46027,-2.460272 -2.47144,-5.143588 -0.0326,-7.838464 1.75881,-1.943447 1.75881,-2.262711 0,-4.021505 -1.05075,-1.050758 -1.91046,-2.854425 -1.91046,-4.00815 0,-2.531564 3.59992,-6.0125108 6.21801,-6.0125108 4.72801,0 7.49854,7.6043808 3.86822,10.6172638 -1.533,1.272291 -1.533,1.653125 0,3.186142 2.23738,2.237371 2.23738,6.784372 0,8.641224 -1.533,1.272291 -1.533,1.653124 0,3.186142 2.23738,2.237371 2.23738,6.784372 0,8.641224 -1.533,1.272291 -1.533,1.653124 0,3.186142 2.10384,2.103831 2.27099,6.482911 0.32185,8.432042 -1.92456,1.924561 -6.42494,1.791977 -8.29165,-0.244275 -1.30833,-1.427148 -1.81183,-1.407769 -3.54297,0.136359 -1.76668,1.575831 -1.8035,2.014334 -0.29568,3.522145 2.08743,2.087438 2.24528,6.470804 0.30294,8.413139 -1.99025,1.99025 -6.34363,1.766559 -8.5495,-0.439304 z m 12.28805,-19.966381 c 1.11983,-1.349301 1.08742,-2.087755 -0.15085,-3.437664 -1.37835,-1.502609 -1.82932,-1.494226 -3.57932,0.06654 -1.57331,1.403193 -1.7,2.130014 -0.59136,3.392675 1.82412,2.077554 2.58257,2.07377 4.32153,-0.02154 z m -35.94278,8.139014 c -2.38001,-2.380002 -2.36189,-5.086794 0.0519,-7.753982 1.75881,-1.943447 1.75881,-2.262709 0,-4.021505 -1.05079,-1.050755 -1.9105,-2.761945 -1.9105,-3.802642 0,-1.040699 0.85971,-2.842147 1.91046,-4.003218 1.70714,-1.886373 1.71965,-2.301862 0.11744,-3.904051 -1.57651,-1.576512 -1.96749,-1.582776 -3.23802,-0.05188 -3.01287,3.630298 -10.61725,0.859771 -10.61725,-3.868223 0,-1.040698 0.85971,-2.842146 1.91046,-4.003218 1.70715,-1.886373 1.71966,-2.301861 0.11745,-3.904051 -1.57651,-1.576511 -1.9675,-1.582776 -3.23803,-0.05188 -3.08944,3.722558 -10.61724,0.834223 -10.61724,-4.073727 0,-2.531565 3.59991,-6.0125113 6.21801,-6.0125113 1.0407,0 2.75188,0.8597093 3.80264,1.9104653 1.75879,1.758795 2.07806,1.758795 4.0215,0 2.68433,-2.4292797 5.37659,-2.4292797 7.80587,0 1.75879,1.758795 2.07807,1.758795 4.0215,0 2.68432,-2.4292797 5.37659,-2.4292797 7.80586,0 1.7588,1.758795 2.09036,1.747666 4.1764,-0.140181 4.8081,-4.351265 12.08789,2.045281 8.6255,7.578985 -1.59463,2.548583 -6.73571,3.020394 -8.93603,0.820082 -1.59343,-1.593427 -1.98091,-1.568418 -3.58636,0.231473 -1.54413,1.73114 -1.5635,2.234638 -0.13635,3.542962 2.17248,1.991608 2.12979,6.66888 -0.0776,8.500844 -1.53302,1.272291 -1.53302,1.653123 0,3.186142 0.95762,0.957623 1.74113,2.968525 1.74113,4.468672 0,1.500148 -0.78351,3.377795 -1.74113,4.172552 -1.53302,1.272291 -1.53302,1.653123 0,3.186142 2.10383,2.103831 2.27097,6.482911 0.32185,8.432041 -1.99026,1.990249 -6.34363,1.766557 -8.5495,-0.439303 z m 0.46069,-31.793745 c 1.11983,-1.349302 1.08742,-2.087755 -0.15085,-3.437664 -1.37836,-1.502611 -1.82932,-1.494227 -3.57932,0.06654 -1.57331,1.403193 -1.70001,2.130014 -0.59138,3.392676 1.82413,2.077553 2.58258,2.07377 4.32155,-0.02155 z M 212.1809,42.912299 c -2.46945,-2.469444 -2.35018,-5.609065 0.30433,-8.011364 2.73364,-2.473916 5.41476,-2.489935 7.85773,-0.04695 1.7588,1.758795 2.07807,1.758795 4.0215,0 2.68434,-2.429279 5.3766,-2.429279 7.80587,0 1.7588,1.758795 2.09035,1.747666 4.17641,-0.14018 4.8081,-4.351265 12.08787,2.045281 8.62548,7.578984 -1.60036,2.557748 -6.73864,3.01746 -8.95492,0.801178 -1.58686,-1.586852 -1.98023,-1.594624 -3.25036,-0.06421 -0.79476,0.957625 -2.67241,1.741135 -4.17255,1.741135 -1.50015,0 -3.51105,-0.78351 -4.46867,-1.741131 -1.53303,-1.533019 -1.91385,-1.533019 -3.18615,0 -1.89465,2.282921 -6.41898,2.22225 -8.75867,-0.117458 z M 117.62618,31.149145 c -4.16676,-4.166756 -0.0852,-11.015642 5.69933,-9.56379 3.38061,0.848482 5.27609,5.838582 3.37305,8.880068 -1.63518,2.613416 -6.75671,2.99939 -9.07238,0.683722 z"
       id="path1" />
  </g>
</svg>
