<svg xmlns="http://www.w3.org/2000/svg" width="290" height="290" viewBox="0 0 29 29">
<path d="M 5.8,4 L 9.2,4 Q 11,4 11,5.8 L 11,9.2 Q 11,11 9.2,11 L 5.8,11 Q 4,11 4,9.2 L 4,5.8 Q 4,4 5.8,4 Z M 6.3,5.0 L 8.7,5.0 Q 10.0,5.0 10.0,6.3 L 10.0,8.7 Q 10.0,10.0 8.7,10.0 L 6.3,10.0 Q 5.0,10.0 5.0,8.7 L 5.0,6.3 Q 5.0,5.0 6.3,5.0 Z" fill="black" fill-rule="evenodd"/>
<path d="M 6.9,6.0 L 8.1,6.0 Q 9.0,6.0 9.0,6.9 L 9.0,8.1 Q 9.0,9.0 8.1,9.0 L 6.9,9.0 Q 6.0,9.0 6.0,8.1 L 6.0,6.9 Q 6.0,6.0 6.9,6.0 Z" fill="black"/>
<path d="M 19.8,4 L 23.2,4 Q 25,4 25,5.8 L 25,9.2 Q 25,11 23.2,11 L 19.8,11 Q 18,11 18,9.2 L 18,5.8 Q 18,4 19.8,4 Z M 20.3,5.0 L 22.7,5.0 Q 24.0,5.0 24.0,6.3 L 24.0,8.7 Q 24.0,10.0 22.7,10.0 L 20.3,10.0 Q 19.0,10.0 19.0,8.7 L 19.0,6.3 Q 19.0,5.0 20.3,5.0 Z" fill="black" fill-rule="evenodd"/>
<path d="M 20.9,6.0 L 22.1,6.0 Q 23.0,6.0 23.0,6.9 L 23.0,8.1 Q 23.0,9.0 22.1,9.0 L 20.9,9.0 Q 20.0,9.0 20.0,8.1 L 20.0,6.9 Q 20.0,6.0 20.9,6.0 Z" fill="black"/>
<path d="M 5.8,18 L 9.2,18 Q 11,18 11,19.8 L 11,23.2 Q 11,25 9.2,25 L 5.8,25 Q 4,25 4,23.2 L 4,19.8 Q 4,18 5.8,18 Z M 6.3,19.0 L 8.7,19.0 Q 10.0,19.0 10.0,20.3 L 10.0,22.7 Q 10.0,24.0 8.7,24.0 L 6.3,24.0 Q 5.0,24.0 5.0,22.7 L 5.0,20.3 Q 5.0,19.0 6.3,19.0 Z" fill="black" fill-rule="evenodd"/>
<path d="M 6.9,20.0 L 8.1,20.0 Q 9.0,20.0 9.0,20.9 L 9.0,22.1 Q 9.0,23.0 8.1,23.0 L 6.9,23.0 Q 6.0,23.0 6.0,22.1 L 6.0,20.9 Q 6.0,20.0 6.9,20.0 Z" fill="black"/>
<path d="M 13.450,4.000 L 14.150,4.000 Q 14.150,4.000 14.150,4.000 L 14.150,5.000 Q 14.150,5.000 14.150,5.000 L 13.450,5.000 Q 13.000,5.000 13.000,4.550 L 13.000,4.450 Q 13.000,4.000 13.450,4.000 Z" fill="black"/>
<path d="M 13.850,4.000 L 15.150,4.000 Q 15.150,4.000 15.150,4.000 L 15.150,5.000 Q 15.150,5.000 15.150,5.000 L 13.850,5.000 Q 13.850,5.000 13.850,5.000 L 13.850,4.000 Q 13.850,4.000 13.850,4.000 Z" fill="black"/>
<path d="M 14.850,4.000 L 15.550,4.000 Q 16.000,4.000 16.000,4.450 L 16.000,5.150 Q 16.000,5.150 16.000,5.150 L 14.850,5.150 Q 14.850,5.150 14.850,5.150 L 14.850,4.000 Q 14.850,4.000 14.850,4.000 Z" fill="black"/>
<path d="M 15.000,4.850 L 16.150,4.850 Q 16.150,4.850 16.150,4.850 L 16.150,6.000 Q 16.150,6.000 16.150,6.000 L 15.450,6.000 Q 15.000,6.000 15.000,5.550 L 15.000,4.850 Q 15.000,4.850 15.000,4.850 Z" fill="black"/>
<path d="M 15.850,5.000 L 16.550,5.000 Q 17.000,5.000 17.000,5.450 L 17.000,6.150 Q 17.000,6.150 17.000,6.150 L 15.850,6.150 Q 15.850,6.150 15.850,6.150 L 15.850,5.000 Q 15.850,5.000 15.850,5.000 Z" fill="black"/>
<path d="M 12.450,6.000 L 13.150,6.000 Q 13.150,6.000 13.150,6.000 L 13.150,7.150 Q 13.150,7.150 13.150,7.150 L 12.000,7.150 Q 12.000,7.150 12.000,7.150 L 12.000,6.450 Q 12.000,6.000 12.450,6.000 Z" fill="black"/>
<path d="M 12.850,6.000 L 14.150,6.000 Q 14.150,6.000 14.150,6.000 L 14.150,7.150 Q 14.150,7.150 14.150,7.150 L 12.850,7.150 Q 12.850,7.150 12.850,7.150 L 12.850,6.000 Q 12.850,6.000 12.850,6.000 Z" fill="black"/>
<path d="M 13.850,6.000 L 14.550,6.000 Q 15.000,6.000 15.000,6.450 L 15.000,6.550 Q 15.000,7.000 14.550,7.000 L 13.850,7.000 Q 13.850,7.000 13.850,7.000 L 13.850,6.000 Q 13.850,6.000 13.850,6.000 Z" fill="black"/>
<path d="M 16.000,5.850 L 17.000,5.850 Q 17.000,5.850 17.000,5.850 L 17.000,7.150 Q 17.000,7.150 17.000,7.150 L 16.000,7.150 Q 16.000,7.150 16.000,7.150 L 16.000,5.850 Q 16.000,5.850 16.000,5.850 Z" fill="black"/>
<path d="M 12.000,6.850 L 13.150,6.850 Q 13.150,6.850 13.150,6.850 L 13.150,8.150 Q 13.150,8.150 13.150,8.150 L 12.000,8.150 Q 12.000,8.150 12.000,8.150 L 12.000,6.850 Q 12.000,6.850 12.000,6.850 Z" fill="black"/>
<path d="M 12.850,6.850 L 14.000,6.850 Q 14.000,6.850 14.000,6.850 L 14.000,7.550 Q 14.000,8.000 13.550,8.000 L 12.850,8.000 Q 12.850,8.000 12.850,8.000 L 12.850,6.850 Q 12.850,6.850 12.850,6.850 Z" fill="black"/>
<path d="M 16.000,6.850 L 17.000,6.850 Q 17.000,6.850 17.000,6.850 L 17.000,8.150 Q 17.000,8.150 17.000,8.150 L 16.000,8.150 Q 16.000,8.150 16.000,8.150 L 16.000,6.850 Q 16.000,6.850 16.000,6.850 Z" fill="black"/>
<path d="M 12.000,7.850 L 13.000,7.850 Q 13.000,7.850 13.000,7.850 L 13.000,9.150 Q 13.000,9.150 13.000,9.150 L 12.000,9.150 Q 12.000,9.150 12.000,9.150 L 12.000,7.850 Q 12.000,7.850 12.000,7.850 Z" fill="black"/>
<path d="M 15.450,8.000 L 16.150,8.000 Q 16.150,8.000 16.150,8.000 L 16.150,9.000 Q 16.150,9.000 16.150,9.000 L 15.450,9.000 Q 15.000,9.000 15.000,8.550 L 15.000,8.450 Q 15.000,8.000 15.450,8.000 Z" fill="black"/>
<path d="M 15.850,7.850 L 17.000,7.850 Q 17.000,7.850 17.000,7.850 L 17.000,9.150 Q 17.000,9.150 17.000,9.150 L 15.850,9.150 Q 15.850,9.150 15.850,9.150 L 15.850,7.850 Q 15.850,7.850 15.850,7.850 Z" fill="black"/>
<path d="M 12.000,8.850 L 13.000,8.850 Q 13.000,8.850 13.000,8.850 L 13.000,10.150 Q 13.000,10.150 13.000,10.150 L 12.000,10.150 Q 12.000,10.150 12.000,10.150 L 12.000,8.850 Q 12.000,8.850 12.000,8.850 Z" fill="black"/>
<path d="M 16.000,8.850 L 17.000,8.850 Q 17.000,8.850 17.000,8.850 L 17.000,10.150 Q 17.000,10.150 17.000,10.150 L 16.000,10.150 Q 16.000,10.150 16.000,10.150 L 16.000,8.850 Q 16.000,8.850 16.000,8.850 Z" fill="black"/>
<path d="M 12.000,9.850 L 13.000,9.850 Q 13.000,9.850 13.000,9.850 L 13.000,11.150 Q 13.000,11.150 13.000,11.150 L 12.000,11.150 Q 12.000,11.150 12.000,11.150 L 12.000,9.850 Q 12.000,9.850 12.000,9.850 Z" fill="black"/>
<path d="M 14.450,10.000 L 14.550,10.000 Q 15.000,10.000 15.000,10.450 L 15.000,10.550 Q 15.000,11.000 14.550,11.000 L 14.450,11.000 Q 14.000,11.000 14.000,10.550 L 14.000,10.450 Q 14.000,10.000 14.450,10.000 Z" fill="black"/>
<path d="M 16.000,9.850 L 17.000,9.850 Q 17.000,9.850 17.000,9.850 L 17.000,11.150 Q 17.000,11.150 17.000,11.150 L 16.000,11.150 Q 16.000,11.150 16.000,11.150 L 16.000,9.850 Q 16.000,9.850 16.000,9.850 Z" fill="black"/>
<path d="M 12.000,10.850 L 13.000,10.850 Q 13.000,10.850 13.000,10.850 L 13.000,11.550 Q 13.000,12.000 12.550,12.000 L 12.450,12.000 Q 12.000,12.000 12.000,11.550 L 12.000,10.850 Q 12.000,10.850 12.000,10.850 Z" fill="black"/>
<path d="M 15.450,11.000 L 16.150,11.000 Q 16.150,11.000 16.150,11.000 L 16.150,12.000 Q 16.150,12.000 16.150,12.000 L 15.450,12.000 Q 15.000,12.000 15.000,11.550 L 15.000,11.450 Q 15.000,11.000 15.450,11.000 Z" fill="black"/>
<path d="M 15.850,10.850 L 17.000,10.850 Q 17.000,10.850 17.000,10.850 L 17.000,12.150 Q 17.000,12.150 17.000,12.150 L 15.850,12.150 Q 15.850,12.150 15.850,12.150 L 15.850,10.850 Q 15.850,10.850 15.850,10.850 Z" fill="black"/>
<path d="M 4.450,12.000 L 4.550,12.000 Q 5.000,12.000 5.000,12.450 L 5.000,12.550 Q 5.000,13.000 4.550,13.000 L 4.450,13.000 Q 4.000,13.000 4.000,12.550 L 4.000,12.450 Q 4.000,12.000 4.450,12.000 Z" fill="black"/>
<path d="M 6.450,12.000 L 7.150,12.000 Q 7.150,12.000 7.150,12.000 L 7.150,13.000 Q 7.150,13.000 7.150,13.000 L 6.450,13.000 Q 6.000,13.000 6.000,12.550 L 6.000,12.450 Q 6.000,12.000 6.450,12.000 Z" fill="black"/>
<path d="M 6.850,12.000 L 8.150,12.000 Q 8.150,12.000 8.150,12.000 L 8.150,13.150 Q 8.150,13.150 8.150,13.150 L 6.850,13.150 Q 6.850,13.150 6.850,13.150 L 6.850,12.000 Q 6.850,12.000 6.850,12.000 Z" fill="black"/>
<path d="M 7.850,12.000 L 9.150,12.000 Q 9.150,12.000 9.150,12.000 L 9.150,13.150 Q 9.150,13.150 9.150,13.150 L 7.850,13.150 Q 7.850,13.150 7.850,13.150 L 7.850,12.000 Q 7.850,12.000 7.850,12.000 Z" fill="black"/>
<path d="M 8.850,12.000 L 10.150,12.000 Q 10.150,12.000 10.150,12.000 L 10.150,13.000 Q 10.150,13.000 10.150,13.000 L 8.850,13.000 Q 8.850,13.000 8.850,13.000 L 8.850,12.000 Q 8.850,12.000 8.850,12.000 Z" fill="black"/>
<path d="M 9.850,12.000 L 10.550,12.000 Q 11.000,12.000 11.000,12.450 L 11.000,12.550 Q 11.000,13.000 10.550,13.000 L 9.850,13.000 Q 9.850,13.000 9.850,13.000 L 9.850,12.000 Q 9.850,12.000 9.850,12.000 Z" fill="black"/>
<path d="M 13.450,12.000 L 14.150,12.000 Q 14.150,12.000 14.150,12.000 L 14.150,13.150 Q 14.150,13.150 14.150,13.150 L 13.000,13.150 Q 13.000,13.150 13.000,13.150 L 13.000,12.450 Q 13.000,12.000 13.450,12.000 Z" fill="black"/>
<path d="M 13.850,12.000 L 14.550,12.000 Q 15.000,12.000 15.000,12.450 L 15.000,13.150 Q 15.000,13.150 15.000,13.150 L 13.850,13.150 Q 13.850,13.150 13.850,13.150 L 13.850,12.000 Q 13.850,12.000 13.850,12.000 Z" fill="black"/>
<path d="M 16.000,11.850 L 17.000,11.850 Q 17.000,11.850 17.000,11.850 L 17.000,13.150 Q 17.000,13.150 17.000,13.150 L 16.000,13.150 Q 16.000,13.150 16.000,13.150 L 16.000,11.850 Q 16.000,11.850 16.000,11.850 Z" fill="black"/>
<path d="M 18.450,12.000 L 19.150,12.000 Q 19.150,12.000 19.150,12.000 L 19.150,13.000 Q 19.150,13.000 19.150,13.000 L 18.450,13.000 Q 18.000,13.000 18.000,12.550 L 18.000,12.450 Q 18.000,12.000 18.450,12.000 Z" fill="black"/>
<path d="M 18.850,12.000 L 20.150,12.000 Q 20.150,12.000 20.150,12.000 L 20.150,13.150 Q 20.150,13.150 20.150,13.150 L 18.850,13.150 Q 18.850,13.150 18.850,13.150 L 18.850,12.000 Q 18.850,12.000 18.850,12.000 Z" fill="black"/>
<path d="M 19.850,12.000 L 21.150,12.000 Q 21.150,12.000 21.150,12.000 L 21.150,13.150 Q 21.150,13.150 21.150,13.150 L 19.850,13.150 Q 19.850,13.150 19.850,13.150 L 19.850,12.000 Q 19.850,12.000 19.850,12.000 Z" fill="black"/>
<path d="M 20.850,12.000 L 22.150,12.000 Q 22.150,12.000 22.150,12.000 L 22.150,13.150 Q 22.150,13.150 22.150,13.150 L 20.850,13.150 Q 20.850,13.150 20.850,13.150 L 20.850,12.000 Q 20.850,12.000 20.850,12.000 Z" fill="black"/>
<path d="M 21.850,12.000 L 22.550,12.000 Q 23.000,12.000 23.000,12.450 L 23.000,12.550 Q 23.000,13.000 22.550,13.000 L 21.850,13.000 Q 21.850,13.000 21.850,13.000 L 21.850,12.000 Q 21.850,12.000 21.850,12.000 Z" fill="black"/>
<path d="M 5.450,13.000 L 5.550,13.000 Q 6.000,13.000 6.000,13.450 L 6.000,13.550 Q 6.000,14.000 5.550,14.000 L 5.450,14.000 Q 5.000,14.000 5.000,13.550 L 5.000,13.450 Q 5.000,13.000 5.450,13.000 Z" fill="black"/>
<path d="M 7.000,12.850 L 8.150,12.850 Q 8.150,12.850 8.150,12.850 L 8.150,14.150 Q 8.150,14.150 8.150,14.150 L 7.000,14.150 Q 7.000,14.150 7.000,14.150 L 7.000,12.850 Q 7.000,12.850 7.000,12.850 Z" fill="black"/>
<path d="M 7.850,12.850 L 9.000,12.850 Q 9.000,12.850 9.000,12.850 L 9.000,14.150 Q 9.000,14.150 9.000,14.150 L 7.850,14.150 Q 7.850,14.150 7.850,14.150 L 7.850,12.850 Q 7.850,12.850 7.850,12.850 Z" fill="black"/>
<path d="M 12.450,13.000 L 13.150,13.000 Q 13.150,13.000 13.150,13.000 L 13.150,14.000 Q 13.150,14.000 13.150,14.000 L 12.450,14.000 Q 12.000,14.000 12.000,13.550 L 12.000,13.450 Q 12.000,13.000 12.450,13.000 Z" fill="black"/>
<path d="M 12.850,12.850 L 14.150,12.850 Q 14.150,12.850 14.150,12.850 L 14.150,14.000 Q 14.150,14.000 14.150,14.000 L 12.850,14.000 Q 12.850,14.000 12.850,14.000 L 12.850,12.850 Q 12.850,12.850 12.850,12.850 Z" fill="black"/>
<path d="M 13.850,12.850 L 15.000,12.850 Q 15.000,12.850 15.000,12.850 L 15.000,13.550 Q 15.000,14.000 14.550,14.000 L 13.850,14.000 Q 13.850,14.000 13.850,14.000 L 13.850,12.850 Q 13.850,12.850 13.850,12.850 Z" fill="black"/>
<path d="M 16.000,12.850 L 17.000,12.850 Q 17.000,12.850 17.000,12.850 L 17.000,13.550 Q 17.000,14.000 16.550,14.000 L 16.450,14.000 Q 16.000,14.000 16.000,13.550 L 16.000,12.850 Q 16.000,12.850 16.000,12.850 Z" fill="black"/>
<path d="M 19.000,12.850 L 20.150,12.850 Q 20.150,12.850 20.150,12.850 L 20.150,14.000 Q 20.150,14.000 20.150,14.000 L 19.450,14.000 Q 19.000,14.000 19.000,13.550 L 19.000,12.850 Q 19.000,12.850 19.000,12.850 Z" fill="black"/>
<path d="M 19.850,12.850 L 21.150,12.850 Q 21.150,12.850 21.150,12.850 L 21.150,14.000 Q 21.150,14.000 21.150,14.000 L 19.850,14.000 Q 19.850,14.000 19.850,14.000 L 19.850,12.850 Q 19.850,12.850 19.850,12.850 Z" fill="black"/>
<path d="M 20.850,12.850 L 22.000,12.850 Q 22.000,12.850 22.000,12.850 L 22.000,14.150 Q 22.000,14.150 22.000,14.150 L 20.850,14.150 Q 20.850,14.150 20.850,14.150 L 20.850,12.850 Q 20.850,12.850 20.850,12.850 Z" fill="black"/>
<path d="M 24.450,13.000 L 24.550,13.000 Q 25.000,13.000 25.000,13.450 L 25.000,13.550 Q 25.000,14.000 24.550,14.000 L 24.450,14.000 Q 24.000,14.000 24.000,13.550 L 24.000,13.450 Q 24.000,13.000 24.450,13.000 Z" fill="black"/>
<path d="M 4.450,14.000 L 4.550,14.000 Q 5.000,14.000 5.000,14.450 L 5.000,14.550 Q 5.000,15.000 4.550,15.000 L 4.450,15.000 Q 4.000,15.000 4.000,14.550 L 4.000,14.450 Q 4.000,14.000 4.450,14.000 Z" fill="black"/>
<path d="M 6.450,14.000 L 7.150,14.000 Q 7.150,14.000 7.150,14.000 L 7.150,15.000 Q 7.150,15.000 7.150,15.000 L 6.450,15.000 Q 6.000,15.000 6.000,14.550 L 6.000,14.450 Q 6.000,14.000 6.450,14.000 Z" fill="black"/>
<path d="M 6.850,13.850 L 8.150,13.850 Q 8.150,13.850 8.150,13.850 L 8.150,15.150 Q 8.150,15.150 8.150,15.150 L 6.850,15.150 Q 6.850,15.150 6.850,15.150 L 6.850,13.850 Q 6.850,13.850 6.850,13.850 Z" fill="black"/>
<path d="M 7.850,13.850 L 9.150,13.850 Q 9.150,13.850 9.150,13.850 L 9.150,15.000 Q 9.150,15.000 9.150,15.000 L 7.850,15.000 Q 7.850,15.000 7.850,15.000 L 7.850,13.850 Q 7.850,13.850 7.850,13.850 Z" fill="black"/>
<path d="M 8.850,14.000 L 10.150,14.000 Q 10.150,14.000 10.150,14.000 L 10.150,15.000 Q 10.150,15.000 10.150,15.000 L 8.850,15.000 Q 8.850,15.000 8.850,15.000 L 8.850,14.000 Q 8.850,14.000 8.850,14.000 Z" fill="black"/>
<path d="M 9.850,14.000 L 10.550,14.000 Q 11.000,14.000 11.000,14.450 L 11.000,14.550 Q 11.000,15.000 10.550,15.000 L 9.850,15.000 Q 9.850,15.000 9.850,15.000 L 9.850,14.000 Q 9.850,14.000 9.850,14.000 Z" fill="black"/>
<path d="M 15.450,14.000 L 15.550,14.000 Q 16.000,14.000 16.000,14.450 L 16.000,14.550 Q 16.000,15.000 15.550,15.000 L 15.450,15.000 Q 15.000,15.000 15.000,14.550 L 15.000,14.450 Q 15.000,14.000 15.450,14.000 Z" fill="black"/>
<path d="M 17.450,14.000 L 18.150,14.000 Q 18.150,14.000 18.150,14.000 L 18.150,15.150 Q 18.150,15.150 18.150,15.150 L 17.000,15.150 Q 17.000,15.150 17.000,15.150 L 17.000,14.450 Q 17.000,14.000 17.450,14.000 Z" fill="black"/>
<path d="M 17.850,14.000 L 18.550,14.000 Q 19.000,14.000 19.000,14.450 L 19.000,14.550 Q 19.000,15.000 18.550,15.000 L 17.850,15.000 Q 17.850,15.000 17.850,15.000 L 17.850,14.000 Q 17.850,14.000 17.850,14.000 Z" fill="black"/>
<path d="M 21.000,13.850 L 22.000,13.850 Q 22.000,13.850 22.000,13.850 L 22.000,15.150 Q 22.000,15.150 22.000,15.150 L 21.000,15.150 Q 21.000,15.150 21.000,15.150 L 21.000,13.850 Q 21.000,13.850 21.000,13.850 Z" fill="black"/>
<path d="M 23.450,14.000 L 23.550,14.000 Q 24.000,14.000 24.000,14.450 L 24.000,15.150 Q 24.000,15.150 24.000,15.150 L 23.000,15.150 Q 23.000,15.150 23.000,15.150 L 23.000,14.450 Q 23.000,14.000 23.450,14.000 Z" fill="black"/>
<path d="M 5.450,15.000 L 5.550,15.000 Q 6.000,15.000 6.000,15.450 L 6.000,15.550 Q 6.000,16.000 5.550,16.000 L 5.450,16.000 Q 5.000,16.000 5.000,15.550 L 5.000,15.450 Q 5.000,15.000 5.450,15.000 Z" fill="black"/>
<path d="M 7.000,14.850 L 8.000,14.850 Q 8.000,14.850 8.000,14.850 L 8.000,16.150 Q 8.000,16.150 8.000,16.150 L 7.000,16.150 Q 7.000,16.150 7.000,16.150 L 7.000,14.850 Q 7.000,14.850 7.000,14.850 Z" fill="black"/>
<path d="M 17.000,14.850 L 18.000,14.850 Q 18.000,14.850 18.000,14.850 L 18.000,15.550 Q 18.000,16.000 17.550,16.000 L 17.450,16.000 Q 17.000,16.000 17.000,15.550 L 17.000,14.850 Q 17.000,14.850 17.000,14.850 Z" fill="black"/>
<path d="M 19.450,15.000 L 20.150,15.000 Q 20.150,15.000 20.150,15.000 L 20.150,16.000 Q 20.150,16.000 20.150,16.000 L 19.450,16.000 Q 19.000,16.000 19.000,15.550 L 19.000,15.450 Q 19.000,15.000 19.450,15.000 Z" fill="black"/>
<path d="M 19.850,15.000 L 21.150,15.000 Q 21.150,15.000 21.150,15.000 L 21.150,16.150 Q 21.150,16.150 21.150,16.150 L 19.850,16.150 Q 19.850,16.150 19.850,16.150 L 19.850,15.000 Q 19.850,15.000 19.850,15.000 Z" fill="black"/>
<path d="M 20.850,14.850 L 22.150,14.850 Q 22.150,14.850 22.150,14.850 L 22.150,16.150 Q 22.150,16.150 22.150,16.150 L 20.850,16.150 Q 20.850,16.150 20.850,16.150 L 20.850,14.850 Q 20.850,14.850 20.850,14.850 Z" fill="black"/>
<path d="M 21.850,15.000 L 23.150,15.000 Q 23.150,15.000 23.150,15.000 L 23.150,16.000 Q 23.150,16.000 23.150,16.000 L 21.850,16.000 Q 21.850,16.000 21.850,16.000 L 21.850,15.000 Q 21.850,15.000 21.850,15.000 Z" fill="black"/>
<path d="M 22.850,14.850 L 24.150,14.850 Q 24.150,14.850 24.150,14.850 L 24.150,16.000 Q 24.150,16.000 24.150,16.000 L 22.850,16.000 Q 22.850,16.000 22.850,16.000 L 22.850,14.850 Q 22.850,14.850 22.850,14.850 Z" fill="black"/>
<path d="M 23.850,15.000 L 24.550,15.000 Q 25.000,15.000 25.000,15.450 L 25.000,15.550 Q 25.000,16.000 24.550,16.000 L 23.850,16.000 Q 23.850,16.000 23.850,16.000 L 23.850,15.000 Q 23.850,15.000 23.850,15.000 Z" fill="black"/>
<path d="M 6.450,16.000 L 7.150,16.000 Q 7.150,16.000 7.150,16.000 L 7.150,17.000 Q 7.150,17.000 7.150,17.000 L 6.450,17.000 Q 6.000,17.000 6.000,16.550 L 6.000,16.450 Q 6.000,16.000 6.450,16.000 Z" fill="black"/>
<path d="M 6.850,15.850 L 8.150,15.850 Q 8.150,15.850 8.150,15.850 L 8.150,17.000 Q 8.150,17.000 8.150,17.000 L 6.850,17.000 Q 6.850,17.000 6.850,17.000 L 6.850,15.850 Q 6.850,15.850 6.850,15.850 Z" fill="black"/>
<path d="M 7.850,16.000 L 9.150,16.000 Q 9.150,16.000 9.150,16.000 L 9.150,17.000 Q 9.150,17.000 9.150,17.000 L 7.850,17.000 Q 7.850,17.000 7.850,17.000 L 7.850,16.000 Q 7.850,16.000 7.850,16.000 Z" fill="black"/>
<path d="M 8.850,16.000 L 10.150,16.000 Q 10.150,16.000 10.150,16.000 L 10.150,17.000 Q 10.150,17.000 10.150,17.000 L 8.850,17.000 Q 8.850,17.000 8.850,17.000 L 8.850,16.000 Q 8.850,16.000 8.850,16.000 Z" fill="black"/>
<path d="M 9.850,16.000 L 11.150,16.000 Q 11.150,16.000 11.150,16.000 L 11.150,17.000 Q 11.150,17.000 11.150,17.000 L 9.850,17.000 Q 9.850,17.000 9.850,17.000 L 9.850,16.000 Q 9.850,16.000 9.850,16.000 Z" fill="black"/>
<path d="M 10.850,16.000 L 11.550,16.000 Q 12.000,16.000 12.000,16.450 L 12.000,16.550 Q 12.000,17.000 11.550,17.000 L 10.850,17.000 Q 10.850,17.000 10.850,17.000 L 10.850,16.000 Q 10.850,16.000 10.850,16.000 Z" fill="black"/>
<path d="M 14.450,16.000 L 15.150,16.000 Q 15.150,16.000 15.150,16.000 L 15.150,17.150 Q 15.150,17.150 15.150,17.150 L 14.000,17.150 Q 14.000,17.150 14.000,17.150 L 14.000,16.450 Q 14.000,16.000 14.450,16.000 Z" fill="black"/>
<path d="M 14.850,16.000 L 15.550,16.000 Q 16.000,16.000 16.000,16.450 L 16.000,16.550 Q 16.000,17.000 15.550,17.000 L 14.850,17.000 Q 14.850,17.000 14.850,17.000 L 14.850,16.000 Q 14.850,16.000 14.850,16.000 Z" fill="black"/>
<path d="M 18.450,16.000 L 18.550,16.000 Q 19.000,16.000 19.000,16.450 L 19.000,17.150 Q 19.000,17.150 19.000,17.150 L 18.000,17.150 Q 18.000,17.150 18.000,17.150 L 18.000,16.450 Q 18.000,16.000 18.450,16.000 Z" fill="black"/>
<path d="M 20.000,15.850 L 21.150,15.850 Q 21.150,15.850 21.150,15.850 L 21.150,17.150 Q 21.150,17.150 21.150,17.150 L 20.000,17.150 Q 20.000,17.150 20.000,17.150 L 20.000,15.850 Q 20.000,15.850 20.000,15.850 Z" fill="black"/>
<path d="M 20.850,15.850 L 22.000,15.850 Q 22.000,15.850 22.000,15.850 L 22.000,17.150 Q 22.000,17.150 22.000,17.150 L 20.850,17.150 Q 20.850,17.150 20.850,17.150 L 20.850,15.850 Q 20.850,15.850 20.850,15.850 Z" fill="black"/>
<path d="M 12.450,17.000 L 13.150,17.000 Q 13.150,17.000 13.150,17.000 L 13.150,18.000 Q 13.150,18.000 13.150,18.000 L 12.450,18.000 Q 12.000,18.000 12.000,17.550 L 12.000,17.450 Q 12.000,17.000 12.450,17.000 Z" fill="black"/>
<path d="M 12.850,17.000 L 14.150,17.000 Q 14.150,17.000 14.150,17.000 L 14.150,18.000 Q 14.150,18.000 14.150,18.000 L 12.850,18.000 Q 12.850,18.000 12.850,18.000 L 12.850,17.000 Q 12.850,17.000 12.850,17.000 Z" fill="black"/>
<path d="M 13.850,16.850 L 15.000,16.850 Q 15.000,16.850 15.000,16.850 L 15.000,17.550 Q 15.000,18.000 14.550,18.000 L 13.850,18.000 Q 13.850,18.000 13.850,18.000 L 13.850,16.850 Q 13.850,16.850 13.850,16.850 Z" fill="black"/>
<path d="M 16.450,17.000 L 17.150,17.000 Q 17.150,17.000 17.150,17.000 L 17.150,18.150 Q 17.150,18.150 17.150,18.150 L 16.000,18.150 Q 16.000,18.150 16.000,18.150 L 16.000,17.450 Q 16.000,17.000 16.450,17.000 Z" fill="black"/>
<path d="M 16.850,17.000 L 18.150,17.000 Q 18.150,17.000 18.150,17.000 L 18.150,18.000 Q 18.150,18.000 18.150,18.000 L 16.850,18.000 Q 16.850,18.000 16.850,18.000 L 16.850,17.000 Q 16.850,17.000 16.850,17.000 Z" fill="black"/>
<path d="M 17.850,16.850 L 19.150,16.850 Q 19.150,16.850 19.150,16.850 L 19.150,18.000 Q 19.150,18.000 19.150,18.000 L 17.850,18.000 Q 17.850,18.000 17.850,18.000 L 17.850,16.850 Q 17.850,16.850 17.850,16.850 Z" fill="black"/>
<path d="M 18.850,17.000 L 20.150,17.000 Q 20.150,17.000 20.150,17.000 L 20.150,18.150 Q 20.150,18.150 20.150,18.150 L 18.850,18.150 Q 18.850,18.150 18.850,18.150 L 18.850,17.000 Q 18.850,17.000 18.850,17.000 Z" fill="black"/>
<path d="M 19.850,16.850 L 21.150,16.850 Q 21.150,16.850 21.150,16.850 L 21.150,18.000 Q 21.150,18.000 21.150,18.000 L 19.850,18.000 Q 19.850,18.000 19.850,18.000 L 19.850,16.850 Q 19.850,16.850 19.850,16.850 Z" fill="black"/>
<path d="M 20.850,16.850 L 22.150,16.850 Q 22.150,16.850 22.150,16.850 L 22.150,18.150 Q 22.150,18.150 22.150,18.150 L 20.850,18.150 Q 20.850,18.150 20.850,18.150 L 20.850,16.850 Q 20.850,16.850 20.850,16.850 Z" fill="black"/>
<path d="M 21.850,17.000 L 23.150,17.000 Q 23.150,17.000 23.150,17.000 L 23.150,18.150 Q 23.150,18.150 23.150,18.150 L 21.850,18.150 Q 21.850,18.150 21.850,18.150 L 21.850,17.000 Q 21.850,17.000 21.850,17.000 Z" fill="black"/>
<path d="M 22.850,17.000 L 24.150,17.000 Q 24.150,17.000 24.150,17.000 L 24.150,18.150 Q 24.150,18.150 24.150,18.150 L 22.850,18.150 Q 22.850,18.150 22.850,18.150 L 22.850,17.000 Q 22.850,17.000 22.850,17.000 Z" fill="black"/>
<path d="M 23.850,17.000 L 24.550,17.000 Q 25.000,17.000 25.000,17.450 L 25.000,17.550 Q 25.000,18.000 24.550,18.000 L 23.850,18.000 Q 23.850,18.000 23.850,18.000 L 23.850,17.000 Q 23.850,17.000 23.850,17.000 Z" fill="black"/>
<path d="M 16.000,17.850 L 17.000,17.850 Q 17.000,17.850 17.000,17.850 L 17.000,19.150 Q 17.000,19.150 17.000,19.150 L 16.000,19.150 Q 16.000,19.150 16.000,19.150 L 16.000,17.850 Q 16.000,17.850 16.000,17.850 Z" fill="black"/>
<path d="M 19.000,17.850 L 20.000,17.850 Q 20.000,17.850 20.000,17.850 L 20.000,18.550 Q 20.000,19.000 19.550,19.000 L 19.450,19.000 Q 19.000,19.000 19.000,18.550 L 19.000,17.850 Q 19.000,17.850 19.000,17.850 Z" fill="black"/>
<path d="M 21.000,17.850 L 22.150,17.850 Q 22.150,17.850 22.150,17.850 L 22.150,19.150 Q 22.150,19.150 22.150,19.150 L 21.000,19.150 Q 21.000,19.150 21.000,19.150 L 21.000,17.850 Q 21.000,17.850 21.000,17.850 Z" fill="black"/>
<path d="M 21.850,17.850 L 23.150,17.850 Q 23.150,17.850 23.150,17.850 L 23.150,19.150 Q 23.150,19.150 23.150,19.150 L 21.850,19.150 Q 21.850,19.150 21.850,19.150 L 21.850,17.850 Q 21.850,17.850 21.850,17.850 Z" fill="black"/>
<path d="M 22.850,17.850 L 24.000,17.850 Q 24.000,17.850 24.000,17.850 L 24.000,18.550 Q 24.000,19.000 23.550,19.000 L 22.850,19.000 Q 22.850,19.000 22.850,19.000 L 22.850,17.850 Q 22.850,17.850 22.850,17.850 Z" fill="black"/>
<path d="M 12.450,19.000 L 12.550,19.000 Q 13.000,19.000 13.000,19.450 L 13.000,20.150 Q 13.000,20.150 13.000,20.150 L 12.000,20.150 Q 12.000,20.150 12.000,20.150 L 12.000,19.450 Q 12.000,19.000 12.450,19.000 Z" fill="black"/>
<path d="M 14.450,19.000 L 14.550,19.000 Q 15.000,19.000 15.000,19.450 L 15.000,19.550 Q 15.000,20.000 14.550,20.000 L 14.450,20.000 Q 14.000,20.000 14.000,19.550 L 14.000,19.450 Q 14.000,19.000 14.450,19.000 Z" fill="black"/>
<path d="M 16.000,18.850 L 17.150,18.850 Q 17.150,18.850 17.150,18.850 L 17.150,20.150 Q 17.150,20.150 17.150,20.150 L 16.000,20.150 Q 16.000,20.150 16.000,20.150 L 16.000,18.850 Q 16.000,18.850 16.000,18.850 Z" fill="black"/>
<path d="M 16.850,19.000 L 17.550,19.000 Q 18.000,19.000 18.000,19.450 L 18.000,19.550 Q 18.000,20.000 17.550,20.000 L 16.850,20.000 Q 16.850,20.000 16.850,20.000 L 16.850,19.000 Q 16.850,19.000 16.850,19.000 Z" fill="black"/>
<path d="M 20.450,19.000 L 21.150,19.000 Q 21.150,19.000 21.150,19.000 L 21.150,20.000 Q 21.150,20.000 21.150,20.000 L 20.450,20.000 Q 20.000,20.000 20.000,19.550 L 20.000,19.450 Q 20.000,19.000 20.450,19.000 Z" fill="black"/>
<path d="M 20.850,18.850 L 22.150,18.850 Q 22.150,18.850 22.150,18.850 L 22.150,20.000 Q 22.150,20.000 22.150,20.000 L 20.850,20.000 Q 20.850,20.000 20.850,20.000 L 20.850,18.850 Q 20.850,18.850 20.850,18.850 Z" fill="black"/>
<path d="M 21.850,18.850 L 23.000,18.850 Q 23.000,18.850 23.000,18.850 L 23.000,19.550 Q 23.000,20.000 22.550,20.000 L 21.850,20.000 Q 21.850,20.000 21.850,20.000 L 21.850,18.850 Q 21.850,18.850 21.850,18.850 Z" fill="black"/>
<path d="M 12.000,19.850 L 13.150,19.850 Q 13.150,19.850 13.150,19.850 L 13.150,21.150 Q 13.150,21.150 13.150,21.150 L 12.000,21.150 Q 12.000,21.150 12.000,21.150 L 12.000,19.850 Q 12.000,19.850 12.000,19.850 Z" fill="black"/>
<path d="M 12.850,20.000 L 13.550,20.000 Q 14.000,20.000 14.000,20.450 L 14.000,21.150 Q 14.000,21.150 14.000,21.150 L 12.850,21.150 Q 12.850,21.150 12.850,21.150 L 12.850,20.000 Q 12.850,20.000 12.850,20.000 Z" fill="black"/>
<path d="M 15.450,20.000 L 16.150,20.000 Q 16.150,20.000 16.150,20.000 L 16.150,21.000 Q 16.150,21.000 16.150,21.000 L 15.450,21.000 Q 15.000,21.000 15.000,20.550 L 15.000,20.450 Q 15.000,20.000 15.450,20.000 Z" fill="black"/>
<path d="M 15.850,19.850 L 17.000,19.850 Q 17.000,19.850 17.000,19.850 L 17.000,20.550 Q 17.000,21.000 16.550,21.000 L 15.850,21.000 Q 15.850,21.000 15.850,21.000 L 15.850,19.850 Q 15.850,19.850 15.850,19.850 Z" fill="black"/>
<path d="M 18.450,20.000 L 19.150,20.000 Q 19.150,20.000 19.150,20.000 L 19.150,21.150 Q 19.150,21.150 19.150,21.150 L 18.000,21.150 Q 18.000,21.150 18.000,21.150 L 18.000,20.450 Q 18.000,20.000 18.450,20.000 Z" fill="black"/>
<path d="M 18.850,20.000 L 19.550,20.000 Q 20.000,20.000 20.000,20.450 L 20.000,20.550 Q 20.000,21.000 19.550,21.000 L 18.850,21.000 Q 18.850,21.000 18.850,21.000 L 18.850,20.000 Q 18.850,20.000 18.850,20.000 Z" fill="black"/>
<path d="M 23.450,20.000 L 24.150,20.000 Q 24.150,20.000 24.150,20.000 L 24.150,21.000 Q 24.150,21.000 24.150,21.000 L 23.450,21.000 Q 23.000,21.000 23.000,20.550 L 23.000,20.450 Q 23.000,20.000 23.450,20.000 Z" fill="black"/>
<path d="M 23.850,20.000 L 24.550,20.000 Q 25.000,20.000 25.000,20.450 L 25.000,20.550 Q 25.000,21.000 24.550,21.000 L 23.850,21.000 Q 23.850,21.000 23.850,21.000 L 23.850,20.000 Q 23.850,20.000 23.850,20.000 Z" fill="black"/>
<path d="M 12.000,20.850 L 13.150,20.850 Q 13.150,20.850 13.150,20.850 L 13.150,22.150 Q 13.150,22.150 13.150,22.150 L 12.000,22.150 Q 12.000,22.150 12.000,22.150 L 12.000,20.850 Q 12.000,20.850 12.000,20.850 Z" fill="black"/>
<path d="M 12.850,20.850 L 14.150,20.850 Q 14.150,20.850 14.150,20.850 L 14.150,22.000 Q 14.150,22.000 14.150,22.000 L 12.850,22.000 Q 12.850,22.000 12.850,22.000 L 12.850,20.850 Q 12.850,20.850 12.850,20.850 Z" fill="black"/>
<path d="M 13.850,21.000 L 14.550,21.000 Q 15.000,21.000 15.000,21.450 L 15.000,22.150 Q 15.000,22.150 15.000,22.150 L 13.850,22.150 Q 13.850,22.150 13.850,22.150 L 13.850,21.000 Q 13.850,21.000 13.850,21.000 Z" fill="black"/>
<path d="M 17.450,21.000 L 18.150,21.000 Q 18.150,21.000 18.150,21.000 L 18.150,22.150 Q 18.150,22.150 18.150,22.150 L 17.000,22.150 Q 17.000,22.150 17.000,22.150 L 17.000,21.450 Q 17.000,21.000 17.450,21.000 Z" fill="black"/>
<path d="M 17.850,20.850 L 19.000,20.850 Q 19.000,20.850 19.000,20.850 L 19.000,22.150 Q 19.000,22.150 19.000,22.150 L 17.850,22.150 Q 17.850,22.150 17.850,22.150 L 17.850,20.850 Q 17.850,20.850 17.850,20.850 Z" fill="black"/>
<path d="M 20.450,21.000 L 21.150,21.000 Q 21.150,21.000 21.150,21.000 L 21.150,22.000 Q 21.150,22.000 21.150,22.000 L 20.450,22.000 Q 20.000,22.000 20.000,21.550 L 20.000,21.450 Q 20.000,21.000 20.450,21.000 Z" fill="black"/>
<path d="M 20.850,21.000 L 21.550,21.000 Q 22.000,21.000 22.000,21.450 L 22.000,21.550 Q 22.000,22.000 21.550,22.000 L 20.850,22.000 Q 20.850,22.000 20.850,22.000 L 20.850,21.000 Q 20.850,21.000 20.850,21.000 Z" fill="black"/>
<path d="M 12.000,21.850 L 13.000,21.850 Q 13.000,21.850 13.000,21.850 L 13.000,22.550 Q 13.000,23.000 12.550,23.000 L 12.450,23.000 Q 12.000,23.000 12.000,22.550 L 12.000,21.850 Q 12.000,21.850 12.000,21.850 Z" fill="black"/>
<path d="M 14.000,21.850 L 15.150,21.850 Q 15.150,21.850 15.150,21.850 L 15.150,23.000 Q 15.150,23.000 15.150,23.000 L 14.450,23.000 Q 14.000,23.000 14.000,22.550 L 14.000,21.850 Q 14.000,21.850 14.000,21.850 Z" fill="black"/>
<path d="M 14.850,22.000 L 16.150,22.000 Q 16.150,22.000 16.150,22.000 L 16.150,23.150 Q 16.150,23.150 16.150,23.150 L 14.850,23.150 Q 14.850,23.150 14.850,23.150 L 14.850,22.000 Q 14.850,22.000 14.850,22.000 Z" fill="black"/>
<path d="M 15.850,22.000 L 17.150,22.000 Q 17.150,22.000 17.150,22.000 L 17.150,23.150 Q 17.150,23.150 17.150,23.150 L 15.850,23.150 Q 15.850,23.150 15.850,23.150 L 15.850,22.000 Q 15.850,22.000 15.850,22.000 Z" fill="black"/>
<path d="M 16.850,21.850 L 18.150,21.850 Q 18.150,21.850 18.150,21.850 L 18.150,23.150 Q 18.150,23.150 18.150,23.150 L 16.850,23.150 Q 16.850,23.150 16.850,23.150 L 16.850,21.850 Q 16.850,21.850 16.850,21.850 Z" fill="black"/>
<path d="M 17.850,21.850 L 19.150,21.850 Q 19.150,21.850 19.150,21.850 L 19.150,23.000 Q 19.150,23.000 19.150,23.000 L 17.850,23.000 Q 17.850,23.000 17.850,23.000 L 17.850,21.850 Q 17.850,21.850 17.850,21.850 Z" fill="black"/>
<path d="M 18.850,22.000 L 19.550,22.000 Q 20.000,22.000 20.000,22.450 L 20.000,23.150 Q 20.000,23.150 20.000,23.150 L 18.850,23.150 Q 18.850,23.150 18.850,23.150 L 18.850,22.000 Q 18.850,22.000 18.850,22.000 Z" fill="black"/>
<path d="M 22.450,22.000 L 22.550,22.000 Q 23.000,22.000 23.000,22.450 L 23.000,23.150 Q 23.000,23.150 23.000,23.150 L 22.000,23.150 Q 22.000,23.150 22.000,23.150 L 22.000,22.450 Q 22.000,22.000 22.450,22.000 Z" fill="black"/>
<path d="M 13.450,23.000 L 13.550,23.000 Q 14.000,23.000 14.000,23.450 L 14.000,24.150 Q 14.000,24.150 14.000,24.150 L 13.000,24.150 Q 13.000,24.150 13.000,24.150 L 13.000,23.450 Q 13.000,23.000 13.450,23.000 Z" fill="black"/>
<path d="M 15.000,22.850 L 16.150,22.850 Q 16.150,22.850 16.150,22.850 L 16.150,24.150 Q 16.150,24.150 16.150,24.150 L 15.000,24.150 Q 15.000,24.150 15.000,24.150 L 15.000,22.850 Q 15.000,22.850 15.000,22.850 Z" fill="black"/>
<path d="M 15.850,22.850 L 17.150,22.850 Q 17.150,22.850 17.150,22.850 L 17.150,24.150 Q 17.150,24.150 17.150,24.150 L 15.850,24.150 Q 15.850,24.150 15.850,24.150 L 15.850,22.850 Q 15.850,22.850 15.850,22.850 Z" fill="black"/>
<path d="M 16.850,22.850 L 18.000,22.850 Q 18.000,22.850 18.000,22.850 L 18.000,24.150 Q 18.000,24.150 18.000,24.150 L 16.850,24.150 Q 16.850,24.150 16.850,24.150 L 16.850,22.850 Q 16.850,22.850 16.850,22.850 Z" fill="black"/>
<path d="M 19.000,22.850 L 20.150,22.850 Q 20.150,22.850 20.150,22.850 L 20.150,24.150 Q 20.150,24.150 20.150,24.150 L 19.000,24.150 Q 19.000,24.150 19.000,24.150 L 19.000,22.850 Q 19.000,22.850 19.000,22.850 Z" fill="black"/>
<path d="M 19.850,23.000 L 20.550,23.000 Q 21.000,23.000 21.000,23.450 L 21.000,23.550 Q 21.000,24.000 20.550,24.000 L 19.850,24.000 Q 19.850,24.000 19.850,24.000 L 19.850,23.000 Q 19.850,23.000 19.850,23.000 Z" fill="black"/>
<path d="M 22.000,22.850 L 23.000,22.850 Q 23.000,22.850 23.000,22.850 L 23.000,23.550 Q 23.000,24.000 22.550,24.000 L 22.450,24.000 Q 22.000,24.000 22.000,23.550 L 22.000,22.850 Q 22.000,22.850 22.000,22.850 Z" fill="black"/>
<path d="M 12.450,24.000 L 13.150,24.000 Q 13.150,24.000 13.150,24.000 L 13.150,25.000 Q 13.150,25.000 13.150,25.000 L 12.450,25.000 Q 12.000,25.000 12.000,24.550 L 12.000,24.450 Q 12.000,24.000 12.450,24.000 Z" fill="black"/>
<path d="M 12.850,23.850 L 14.150,23.850 Q 14.150,23.850 14.150,23.850 L 14.150,25.000 Q 14.150,25.000 14.150,25.000 L 12.850,25.000 Q 12.850,25.000 12.850,25.000 L 12.850,23.850 Q 12.850,23.850 12.850,23.850 Z" fill="black"/>
<path d="M 13.850,24.000 L 15.150,24.000 Q 15.150,24.000 15.150,24.000 L 15.150,25.000 Q 15.150,25.000 15.150,25.000 L 13.850,25.000 Q 13.850,25.000 13.850,25.000 L 13.850,24.000 Q 13.850,24.000 13.850,24.000 Z" fill="black"/>
<path d="M 14.850,23.850 L 16.150,23.850 Q 16.150,23.850 16.150,23.850 L 16.150,25.000 Q 16.150,25.000 16.150,25.000 L 14.850,25.000 Q 14.850,25.000 14.850,25.000 L 14.850,23.850 Q 14.850,23.850 14.850,23.850 Z" fill="black"/>
<path d="M 15.850,23.850 L 17.150,23.850 Q 17.150,23.850 17.150,23.850 L 17.150,25.000 Q 17.150,25.000 17.150,25.000 L 15.850,25.000 Q 15.850,25.000 15.850,25.000 L 15.850,23.850 Q 15.850,23.850 15.850,23.850 Z" fill="black"/>
<path d="M 16.850,23.850 L 18.150,23.850 Q 18.150,23.850 18.150,23.850 L 18.150,25.000 Q 18.150,25.000 18.150,25.000 L 16.850,25.000 Q 16.850,25.000 16.850,25.000 L 16.850,23.850 Q 16.850,23.850 16.850,23.850 Z" fill="black"/>
<path d="M 17.850,24.000 L 19.150,24.000 Q 19.150,24.000 19.150,24.000 L 19.150,25.000 Q 19.150,25.000 19.150,25.000 L 17.850,25.000 Q 17.850,25.000 17.850,25.000 L 17.850,24.000 Q 17.850,24.000 17.850,24.000 Z" fill="black"/>
<path d="M 18.850,23.850 L 20.000,23.850 Q 20.000,23.850 20.000,23.850 L 20.000,24.550 Q 20.000,25.000 19.550,25.000 L 18.850,25.000 Q 18.850,25.000 18.850,25.000 L 18.850,23.850 Q 18.850,23.850 18.850,23.850 Z" fill="black"/>
<path d="M 21.450,24.000 L 21.550,24.000 Q 22.000,24.000 22.000,24.450 L 22.000,24.550 Q 22.000,25.000 21.550,25.000 L 21.450,25.000 Q 21.000,25.000 21.000,24.550 L 21.000,24.450 Q 21.000,24.000 21.450,24.000 Z" fill="black"/>
<path d="M 23.450,24.000 L 23.550,24.000 Q 24.000,24.000 24.000,24.450 L 24.000,24.550 Q 24.000,25.000 23.550,25.000 L 23.450,25.000 Q 23.000,25.000 23.000,24.550 L 23.000,24.450 Q 23.000,24.000 23.450,24.000 Z" fill="black"/>
</svg>