<svg xmlns="http://www.w3.org/2000/svg" width="330" height="330" viewBox="0 0 33 33">
<path d="M 5.8,4 L 9.2,4 Q 11,4 11,5.8 L 11,9.2 Q 11,11 9.2,11 L 5.8,11 Q 4,11 4,9.2 L 4,5.8 Q 4,4 5.8,4 Z M 6.3,5.0 L 8.7,5.0 Q 10.0,5.0 10.0,6.3 L 10.0,8.7 Q 10.0,10.0 8.7,10.0 L 6.3,10.0 Q 5.0,10.0 5.0,8.7 L 5.0,6.3 Q 5.0,5.0 6.3,5.0 Z" fill="black" fill-rule="evenodd"/>
<path d="M 6.9,6.0 L 8.1,6.0 Q 9.0,6.0 9.0,6.9 L 9.0,8.1 Q 9.0,9.0 8.1,9.0 L 6.9,9.0 Q 6.0,9.0 6.0,8.1 L 6.0,6.9 Q 6.0,6.0 6.9,6.0 Z" fill="black"/>
<path d="M 23.8,4 L 27.2,4 Q 29,4 29,5.8 L 29,9.2 Q 29,11 27.2,11 L 23.8,11 Q 22,11 22,9.2 L 22,5.8 Q 22,4 23.8,4 Z M 24.3,5.0 L 26.7,5.0 Q 28.0,5.0 28.0,6.3 L 28.0,8.7 Q 28.0,10.0 26.7,10.0 L 24.3,10.0 Q 23.0,10.0 23.0,8.7 L 23.0,6.3 Q 23.0,5.0 24.3,5.0 Z" fill="black" fill-rule="evenodd"/>
<path d="M 24.9,6.0 L 26.1,6.0 Q 27.0,6.0 27.0,6.9 L 27.0,8.1 Q 27.0,9.0 26.1,9.0 L 24.9,9.0 Q 24.0,9.0 24.0,8.1 L 24.0,6.9 Q 24.0,6.0 24.9,6.0 Z" fill="black"/>
<path d="M 5.8,22 L 9.2,22 Q 11,22 11,23.8 L 11,27.2 Q 11,29 9.2,29 L 5.8,29 Q 4,29 4,27.2 L 4,23.8 Q 4,22 5.8,22 Z M 6.3,23.0 L 8.7,23.0 Q 10.0,23.0 10.0,24.3 L 10.0,26.7 Q 10.0,28.0 8.7,28.0 L 6.3,28.0 Q 5.0,28.0 5.0,26.7 L 5.0,24.3 Q 5.0,23.0 6.3,23.0 Z" fill="black" fill-rule="evenodd"/>
<path d="M 6.9,24.0 L 8.1,24.0 Q 9.0,24.0 9.0,24.9 L 9.0,26.1 Q 9.0,27.0 8.1,27.0 L 6.9,27.0 Q 6.0,27.0 6.0,26.1 L 6.0,24.9 Q 6.0,24.0 6.9,24.0 Z" fill="black"/>
<path d="M 12.450,4.000 L 13.150,4.000 Q 13.150,4.000 13.150,4.000 L 13.150,5.000 Q 13.150,5.000 13.150,5.000 L 12.450,5.000 Q 12.000,5.000 12.000,4.550 L 12.000,4.450 Q 12.000,4.000 12.450,4.000 Z" fill="black"/>
<path d="M 12.850,4.000 L 14.150,4.000 Q 14.150,4.000 14.150,4.000 L 14.150,5.000 Q 14.150,5.000 14.150,5.000 L 12.850,5.000 Q 12.850,5.000 12.850,5.000 L 12.850,4.000 Q 12.850,4.000 12.850,4.000 Z" fill="black"/>
<path d="M 13.850,4.000 L 15.150,4.000 Q 15.150,4.000 15.150,4.000 L 15.150,5.150 Q 15.150,5.150 15.150,5.150 L 13.850,5.150 Q 13.850,5.150 13.850,5.150 L 13.850,4.000 Q 13.850,4.000 13.850,4.000 Z" fill="black"/>
<path d="M 14.850,4.000 L 16.150,4.000 Q 16.150,4.000 16.150,4.000 L 16.150,5.000 Q 16.150,5.000 16.150,5.000 L 14.850,5.000 Q 14.850,5.000 14.850,5.000 L 14.850,4.000 Q 14.850,4.000 14.850,4.000 Z" fill="black"/>
<path d="M 15.850,4.000 L 16.550,4.000 Q 17.000,4.000 17.000,4.450 L 17.000,5.150 Q 17.000,5.150 17.000,5.150 L 15.850,5.150 Q 15.850,5.150 15.850,5.150 L 15.850,4.000 Q 15.850,4.000 15.850,4.000 Z" fill="black"/>
<path d="M 18.450,4.000 L 18.550,4.000 Q 19.000,4.000 19.000,4.450 L 19.000,4.550 Q 19.000,5.000 18.550,5.000 L 18.450,5.000 Q 18.000,5.000 18.000,4.550 L 18.000,4.450 Q 18.000,4.000 18.450,4.000 Z" fill="black"/>
<path d="M 14.000,4.850 L 15.000,4.850 Q 15.000,4.850 15.000,4.850 L 15.000,6.150 Q 15.000,6.150 15.000,6.150 L 14.000,6.150 Q 14.000,6.150 14.000,6.150 L 14.000,4.850 Q 14.000,4.850 14.000,4.850 Z" fill="black"/>
<path d="M 16.000,4.850 L 17.000,4.850 Q 17.000,4.850 17.000,4.850 L 17.000,5.550 Q 17.000,6.000 16.550,6.000 L 16.450,6.000 Q 16.000,6.000 16.000,5.550 L 16.000,4.850 Q 16.000,4.850 16.000,4.850 Z" fill="black"/>
<path d="M 13.450,6.000 L 14.150,6.000 Q 14.150,6.000 14.150,6.000 L 14.150,7.000 Q 14.150,7.000 14.150,7.000 L 13.450,7.000 Q 13.000,7.000 13.000,6.550 L 13.000,6.450 Q 13.000,6.000 13.450,6.000 Z" fill="black"/>
<path d="M 13.850,5.850 L 15.150,5.850 Q 15.150,5.850 15.150,5.850 L 15.150,7.150 Q 15.150,7.150 15.150,7.150 L 13.850,7.150 Q 13.850,7.150 13.850,7.150 L 13.850,5.850 Q 13.850,5.850 13.850,5.850 Z" fill="black"/>
<path d="M 14.850,6.000 L 15.550,6.000 Q 16.000,6.000 16.000,6.450 L 16.000,7.150 Q 16.000,7.150 16.000,7.150 L 14.850,7.150 Q 14.850,7.150 14.850,7.150 L 14.850,6.000 Q 14.850,6.000 14.850,6.000 Z" fill="black"/>
<path d="M 17.450,6.000 L 17.550,6.000 Q 18.000,6.000 18.000,6.450 L 18.000,6.550 Q 18.000,7.000 17.550,7.000 L 17.450,7.000 Q 17.000,7.000 17.000,6.550 L 17.000,6.450 Q 17.000,6.000 17.450,6.000 Z" fill="black"/>
<path d="M 19.450,6.000 L 20.150,6.000 Q 20.150,6.000 20.150,6.000 L 20.150,7.000 Q 20.150,7.000 20.150,7.000 L 19.450,7.000 Q 19.000,7.000 19.000,6.550 L 19.000,6.450 Q 19.000,6.000 19.450,6.000 Z" fill="black"/>
<path d="M 19.850,6.000 L 20.550,6.000 Q 21.000,6.000 21.000,6.450 L 21.000,6.550 Q 21.000,7.000 20.550,7.000 L 19.850,7.000 Q 19.850,7.000 19.850,7.000 L 19.850,6.000 Q 19.850,6.000 19.850,6.000 Z" fill="black"/>
<path d="M 12.450,7.000 L 12.550,7.000 Q 13.000,7.000 13.000,7.450 L 13.000,8.150 Q 13.000,8.150 13.000,8.150 L 12.000,8.150 Q 12.000,8.150 12.000,8.150 L 12.000,7.450 Q 12.000,7.000 12.450,7.000 Z" fill="black"/>
<path d="M 14.000,6.850 L 15.150,6.850 Q 15.150,6.850 15.150,6.850 L 15.150,8.150 Q 15.150,8.150 15.150,8.150 L 14.000,8.150 Q 14.000,8.150 14.000,8.150 L 14.000,6.850 Q 14.000,6.850 14.000,6.850 Z" fill="black"/>
<path d="M 14.850,6.850 L 16.000,6.850 Q 16.000,6.850 16.000,6.850 L 16.000,8.150 Q 16.000,8.150 16.000,8.150 L 14.850,8.150 Q 14.850,8.150 14.850,8.150 L 14.850,6.850 Q 14.850,6.850 14.850,6.850 Z" fill="black"/>
<path d="M 18.450,7.000 L 18.550,7.000 Q 19.000,7.000 19.000,7.450 L 19.000,8.150 Q 19.000,8.150 19.000,8.150 L 18.000,8.150 Q 18.000,8.150 18.000,8.150 L 18.000,7.450 Q 18.000,7.000 18.450,7.000 Z" fill="black"/>
<path d="M 12.000,7.850 L 13.150,7.850 Q 13.150,7.850 13.150,7.850 L 13.150,9.150 Q 13.150,9.150 13.150,9.150 L 12.000,9.150 Q 12.000,9.150 12.000,9.150 L 12.000,7.850 Q 12.000,7.850 12.000,7.850 Z" fill="black"/>
<path d="M 12.850,8.000 L 14.150,8.000 Q 14.150,8.000 14.150,8.000 L 14.150,9.000 Q 14.150,9.000 14.150,9.000 L 12.850,9.000 Q 12.850,9.000 12.850,9.000 L 12.850,8.000 Q 12.850,8.000 12.850,8.000 Z" fill="black"/>
<path d="M 13.850,7.850 L 15.150,7.850 Q 15.150,7.850 15.150,7.850 L 15.150,9.150 Q 15.150,9.150 15.150,9.150 L 13.850,9.150 Q 13.850,9.150 13.850,9.150 L 13.850,7.850 Q 13.850,7.850 13.850,7.850 Z" fill="black"/>
<path d="M 14.850,7.850 L 16.150,7.850 Q 16.150,7.850 16.150,7.850 L 16.150,9.150 Q 16.150,9.150 16.150,9.150 L 14.850,9.150 Q 14.850,9.150 14.850,9.150 L 14.850,7.850 Q 14.850,7.850 14.850,7.850 Z" fill="black"/>
<path d="M 15.850,8.000 L 17.150,8.000 Q 17.150,8.000 17.150,8.000 L 17.150,9.150 Q 17.150,9.150 17.150,9.150 L 15.850,9.150 Q 15.850,9.150 15.850,9.150 L 15.850,8.000 Q 15.850,8.000 15.850,8.000 Z" fill="black"/>
<path d="M 16.850,8.000 L 18.150,8.000 Q 18.150,8.000 18.150,8.000 L 18.150,9.150 Q 18.150,9.150 18.150,9.150 L 16.850,9.150 Q 16.850,9.150 16.850,9.150 L 16.850,8.000 Q 16.850,8.000 16.850,8.000 Z" fill="black"/>
<path d="M 17.850,7.850 L 19.150,7.850 Q 19.150,7.850 19.150,7.850 L 19.150,9.150 Q 19.150,9.150 19.150,9.150 L 17.850,9.150 Q 17.850,9.150 17.850,9.150 L 17.850,7.850 Q 17.850,7.850 17.850,7.850 Z" fill="black"/>
<path d="M 18.850,8.000 L 20.150,8.000 Q 20.150,8.000 20.150,8.000 L 20.150,9.000 Q 20.150,9.000 20.150,9.000 L 18.850,9.000 Q 18.850,9.000 18.850,9.000 L 18.850,8.000 Q 18.850,8.000 18.850,8.000 Z" fill="black"/>
<path d="M 19.850,8.000 L 20.550,8.000 Q 21.000,8.000 21.000,8.450 L 21.000,9.150 Q 21.000,9.150 21.000,9.150 L 19.850,9.150 Q 19.850,9.150 19.850,9.150 L 19.850,8.000 Q 19.850,8.000 19.850,8.000 Z" fill="black"/>
<path d="M 12.000,8.850 L 13.000,8.850 Q 13.000,8.850 13.000,8.850 L 13.000,10.150 Q 13.000,10.150 13.000,10.150 L 12.000,10.150 Q 12.000,10.150 12.000,10.150 L 12.000,8.850 Q 12.000,8.850 12.000,8.850 Z" fill="black"/>
<path d="M 14.000,8.850 L 15.150,8.850 Q 15.150,8.850 15.150,8.850 L 15.150,10.150 Q 15.150,10.150 15.150,10.150 L 14.000,10.150 Q 14.000,10.150 14.000,10.150 L 14.000,8.850 Q 14.000,8.850 14.000,8.850 Z" fill="black"/>
<path d="M 14.850,8.850 L 16.150,8.850 Q 16.150,8.850 16.150,8.850 L 16.150,10.000 Q 16.150,10.000 16.150,10.000 L 14.850,10.000 Q 14.850,10.000 14.850,10.000 L 14.850,8.850 Q 14.850,8.850 14.850,8.850 Z" fill="black"/>
<path d="M 15.850,8.850 L 17.150,8.850 Q 17.150,8.850 17.150,8.850 L 17.150,10.150 Q 17.150,10.150 17.150,10.150 L 15.850,10.150 Q 15.850,10.150 15.850,10.150 L 15.850,8.850 Q 15.850,8.850 15.850,8.850 Z" fill="black"/>
<path d="M 16.850,8.850 L 18.150,8.850 Q 18.150,8.850 18.150,8.850 L 18.150,10.000 Q 18.150,10.000 18.150,10.000 L 16.850,10.000 Q 16.850,10.000 16.850,10.000 L 16.850,8.850 Q 16.850,8.850 16.850,8.850 Z" fill="black"/>
<path d="M 17.850,8.850 L 19.000,8.850 Q 19.000,8.850 19.000,8.850 L 19.000,10.150 Q 19.000,10.150 19.000,10.150 L 17.850,10.150 Q 17.850,10.150 17.850,10.150 L 17.850,8.850 Q 17.850,8.850 17.850,8.850 Z" fill="black"/>
<path d="M 20.000,8.850 L 21.000,8.850 Q 21.000,8.850 21.000,8.850 L 21.000,10.150 Q 21.000,10.150 21.000,10.150 L 20.000,10.150 Q 20.000,10.150 20.000,10.150 L 20.000,8.850 Q 20.000,8.850 20.000,8.850 Z" fill="black"/>
<path d="M 12.000,9.850 L 13.000,9.850 Q 13.000,9.850 13.000,9.850 L 13.000,11.150 Q 13.000,11.150 13.000,11.150 L 12.000,11.150 Q 12.000,11.150 12.000,11.150 L 12.000,9.850 Q 12.000,9.850 12.000,9.850 Z" fill="black"/>
<path d="M 14.000,9.850 L 15.000,9.850 Q 15.000,9.850 15.000,9.850 L 15.000,10.550 Q 15.000,11.000 14.550,11.000 L 14.450,11.000 Q 14.000,11.000 14.000,10.550 L 14.000,9.850 Q 14.000,9.850 14.000,9.850 Z" fill="black"/>
<path d="M 16.000,9.850 L 17.000,9.850 Q 17.000,9.850 17.000,9.850 L 17.000,11.150 Q 17.000,11.150 17.000,11.150 L 16.000,11.150 Q 16.000,11.150 16.000,11.150 L 16.000,9.850 Q 16.000,9.850 16.000,9.850 Z" fill="black"/>
<path d="M 18.000,9.850 L 19.000,9.850 Q 19.000,9.850 19.000,9.850 L 19.000,11.150 Q 19.000,11.150 19.000,11.150 L 18.000,11.150 Q 18.000,11.150 18.000,11.150 L 18.000,9.850 Q 18.000,9.850 18.000,9.850 Z" fill="black"/>
<path d="M 20.000,9.850 L 21.000,9.850 Q 21.000,9.850 21.000,9.850 L 21.000,10.550 Q 21.000,11.000 20.550,11.000 L 20.450,11.000 Q 20.000,11.000 20.000,10.550 L 20.000,9.850 Q 20.000,9.850 20.000,9.850 Z" fill="black"/>
<path d="M 12.000,10.850 L 13.000,10.850 Q 13.000,10.850 13.000,10.850 L 13.000,12.150 Q 13.000,12.150 13.000,12.150 L 12.000,12.150 Q 12.000,12.150 12.000,12.150 L 12.000,10.850 Q 12.000,10.850 12.000,10.850 Z" fill="black"/>
<path d="M 16.000,10.850 L 17.000,10.850 Q 17.000,10.850 17.000,10.850 L 17.000,11.550 Q 17.000,12.000 16.550,12.000 L 16.450,12.000 Q 16.000,12.000 16.000,11.550 L 16.000,10.850 Q 16.000,10.850 16.000,10.850 Z" fill="black"/>
<path d="M 18.000,10.850 L 19.150,10.850 Q 19.150,10.850 19.150,10.850 L 19.150,12.150 Q 19.150,12.150 19.150,12.150 L 18.000,12.150 Q 18.000,12.150 18.000,12.150 L 18.000,10.850 Q 18.000,10.850 18.000,10.850 Z" fill="black"/>
<path d="M 18.850,11.000 L 19.550,11.000 Q 20.000,11.000 20.000,11.450 L 20.000,12.150 Q 20.000,12.150 20.000,12.150 L 18.850,12.150 Q 18.850,12.150 18.850,12.150 L 18.850,11.000 Q 18.850,11.000 18.850,11.000 Z" fill="black"/>
<path d="M 4.450,12.000 L 4.550,12.000 Q 5.000,12.000 5.000,12.450 L 5.000,12.550 Q 5.000,13.000 4.550,13.000 L 4.450,13.000 Q 4.000,13.000 4.000,12.550 L 4.000,12.450 Q 4.000,12.000 4.450,12.000 Z" fill="black"/>
<path d="M 8.450,12.000 L 8.550,12.000 Q 9.000,12.000 9.000,12.450 L 9.000,12.550 Q 9.000,13.000 8.550,13.000 L 8.450,13.000 Q 8.000,13.000 8.000,12.550 L 8.000,12.450 Q 8.000,12.000 8.450,12.000 Z" fill="black"/>
<path d="M 10.450,12.000 L 11.150,12.000 Q 11.150,12.000 11.150,12.000 L 11.150,13.000 Q 11.150,13.000 11.150,13.000 L 10.450,13.000 Q 10.000,13.000 10.000,12.550 L 10.000,12.450 Q 10.000,12.000 10.450,12.000 Z" fill="black"/>
<path d="M 10.850,12.000 L 12.150,12.000 Q 12.150,12.000 12.150,12.000 L 12.150,13.150 Q 12.150,13.150 12.150,13.150 L 10.850,13.150 Q 10.850,13.150 10.850,13.150 L 10.850,12.000 Q 10.850,12.000 10.850,12.000 Z" fill="black"/>
<path d="M 11.850,11.850 L 13.000,11.850 Q 13.000,11.850 13.000,11.850 L 13.000,13.150 Q 13.000,13.150 13.000,13.150 L 11.850,13.150 Q 11.850,13.150 11.850,13.150 L 11.850,11.850 Q 11.850,11.850 11.850,11.850 Z" fill="black"/>
<path d="M 14.450,12.000 L 14.550,12.000 Q 15.000,12.000 15.000,12.450 L 15.000,12.550 Q 15.000,13.000 14.550,13.000 L 14.450,13.000 Q 14.000,13.000 14.000,12.550 L 14.000,12.450 Q 14.000,12.000 14.450,12.000 Z" fill="black"/>
<path d="M 17.450,12.000 L 18.150,12.000 Q 18.150,12.000 18.150,12.000 L 18.150,13.000 Q 18.150,13.000 18.150,13.000 L 17.450,13.000 Q 17.000,13.000 17.000,12.550 L 17.000,12.450 Q 17.000,12.000 17.450,12.000 Z" fill="black"/>
<path d="M 17.850,11.850 L 19.150,11.850 Q 19.150,11.850 19.150,11.850 L 19.150,13.000 Q 19.150,13.000 19.150,13.000 L 17.850,13.000 Q 17.850,13.000 17.850,13.000 L 17.850,11.850 Q 17.850,11.850 17.850,11.850 Z" fill="black"/>
<path d="M 18.850,11.850 L 20.000,11.850 Q 20.000,11.850 20.000,11.850 L 20.000,13.150 Q 20.000,13.150 20.000,13.150 L 18.850,13.150 Q 18.850,13.150 18.850,13.150 L 18.850,11.850 Q 18.850,11.850 18.850,11.850 Z" fill="black"/>
<path d="M 21.450,12.000 L 22.150,12.000 Q 22.150,12.000 22.150,12.000 L 22.150,13.000 Q 22.150,13.000 22.150,13.000 L 21.450,13.000 Q 21.000,13.000 21.000,12.550 L 21.000,12.450 Q 21.000,12.000 21.450,12.000 Z" fill="black"/>
<path d="M 21.850,12.000 L 23.150,12.000 Q 23.150,12.000 23.150,12.000 L 23.150,13.000 Q 23.150,13.000 23.150,13.000 L 21.850,13.000 Q 21.850,13.000 21.850,13.000 L 21.850,12.000 Q 21.850,12.000 21.850,12.000 Z" fill="black"/>
<path d="M 22.850,12.000 L 24.150,12.000 Q 24.150,12.000 24.150,12.000 L 24.150,13.000 Q 24.150,13.000 24.150,13.000 L 22.850,13.000 Q 22.850,13.000 22.850,13.000 L 22.850,12.000 Q 22.850,12.000 22.850,12.000 Z" fill="black"/>
<path d="M 23.850,12.000 L 25.150,12.000 Q 25.150,12.000 25.150,12.000 L 25.150,13.150 Q 25.150,13.150 25.150,13.150 L 23.850,13.150 Q 23.850,13.150 23.850,13.150 L 23.850,12.000 Q 23.850,12.000 23.850,12.000 Z" fill="black"/>
<path d="M 24.850,12.000 L 25.550,12.000 Q 26.000,12.000 26.000,12.450 L 26.000,13.150 Q 26.000,13.150 26.000,13.150 L 24.850,13.150 Q 24.850,13.150 24.850,13.150 L 24.850,12.000 Q 24.850,12.000 24.850,12.000 Z" fill="black"/>
<path d="M 28.450,12.000 L 28.550,12.000 Q 29.000,12.000 29.000,12.450 L 29.000,12.550 Q 29.000,13.000 28.550,13.000 L 28.450,13.000 Q 28.000,13.000 28.000,12.550 L 28.000,12.450 Q 28.000,12.000 28.450,12.000 Z" fill="black"/>
<path d="M 6.450,13.000 L 6.550,13.000 Q 7.000,13.000 7.000,13.450 L 7.000,13.550 Q 7.000,14.000 6.550,14.000 L 6.450,14.000 Q 6.000,14.000 6.000,13.550 L 6.000,13.450 Q 6.000,13.000 6.450,13.000 Z" fill="black"/>
<path d="M 11.000,12.850 L 12.150,12.850 Q 12.150,12.850 12.150,12.850 L 12.150,14.150 Q 12.150,14.150 12.150,14.150 L 11.000,14.150 Q 11.000,14.150 11.000,14.150 L 11.000,12.850 Q 11.000,12.850 11.000,12.850 Z" fill="black"/>
<path d="M 11.850,12.850 L 13.150,12.850 Q 13.150,12.850 13.150,12.850 L 13.150,14.000 Q 13.150,14.000 13.150,14.000 L 11.850,14.000 Q 11.850,14.000 11.850,14.000 L 11.850,12.850 Q 11.850,12.850 11.850,12.850 Z" fill="black"/>
<path d="M 12.850,13.000 L 13.550,13.000 Q 14.000,13.000 14.000,13.450 L 14.000,13.550 Q 14.000,14.000 13.550,14.000 L 12.850,14.000 Q 12.850,14.000 12.850,14.000 L 12.850,13.000 Q 12.850,13.000 12.850,13.000 Z" fill="black"/>
<path d="M 19.000,12.850 L 20.150,12.850 Q 20.150,12.850 20.150,12.850 L 20.150,14.150 Q 20.150,14.150 20.150,14.150 L 19.000,14.150 Q 19.000,14.150 19.000,14.150 L 19.000,12.850 Q 19.000,12.850 19.000,12.850 Z" fill="black"/>
<path d="M 19.850,13.000 L 20.550,13.000 Q 21.000,13.000 21.000,13.450 L 21.000,14.150 Q 21.000,14.150 21.000,14.150 L 19.850,14.150 Q 19.850,14.150 19.850,14.150 L 19.850,13.000 Q 19.850,13.000 19.850,13.000 Z" fill="black"/>
<path d="M 24.000,12.850 L 25.150,12.850 Q 25.150,12.850 25.150,12.850 L 25.150,14.150 Q 25.150,14.150 25.150,14.150 L 24.000,14.150 Q 24.000,14.150 24.000,14.150 L 24.000,12.850 Q 24.000,12.850 24.000,12.850 Z" fill="black"/>
<path d="M 24.850,12.850 L 26.000,12.850 Q 26.000,12.850 26.000,12.850 L 26.000,14.150 Q 26.000,14.150 26.000,14.150 L 24.850,14.150 Q 24.850,14.150 24.850,14.150 L 24.850,12.850 Q 24.850,12.850 24.850,12.850 Z" fill="black"/>
<path d="M 27.450,13.000 L 27.550,13.000 Q 28.000,13.000 28.000,13.450 L 28.000,13.550 Q 28.000,14.000 27.550,14.000 L 27.450,14.000 Q 27.000,14.000 27.000,13.550 L 27.000,13.450 Q 27.000,13.000 27.450,13.000 Z" fill="black"/>
<path d="M 4.450,14.000 L 5.150,14.000 Q 5.150,14.000 5.150,14.000 L 5.150,15.000 Q 5.150,15.000 5.150,15.000 L 4.450,15.000 Q 4.000,15.000 4.000,14.550 L 4.000,14.450 Q 4.000,14.000 4.450,14.000 Z" fill="black"/>
<path d="M 4.850,14.000 L 5.550,14.000 Q 6.000,14.000 6.000,14.450 L 6.000,15.150 Q 6.000,15.150 6.000,15.150 L 4.850,15.150 Q 4.850,15.150 4.850,15.150 L 4.850,14.000 Q 4.850,14.000 4.850,14.000 Z" fill="black"/>
<path d="M 10.450,14.000 L 11.150,14.000 Q 11.150,14.000 11.150,14.000 L 11.150,15.000 Q 11.150,15.000 11.150,15.000 L 10.450,15.000 Q 10.000,15.000 10.000,14.550 L 10.000,14.450 Q 10.000,14.000 10.450,14.000 Z" fill="black"/>
<path d="M 10.850,13.850 L 12.000,13.850 Q 12.000,13.850 12.000,13.850 L 12.000,14.550 Q 12.000,15.000 11.550,15.000 L 10.850,15.000 Q 10.850,15.000 10.850,15.000 L 10.850,13.850 Q 10.850,13.850 10.850,13.850 Z" fill="black"/>
<path d="M 15.450,14.000 L 15.550,14.000 Q 16.000,14.000 16.000,14.450 L 16.000,14.550 Q 16.000,15.000 15.550,15.000 L 15.450,15.000 Q 15.000,15.000 15.000,14.550 L 15.000,14.450 Q 15.000,14.000 15.450,14.000 Z" fill="black"/>
<path d="M 17.450,14.000 L 18.150,14.000 Q 18.150,14.000 18.150,14.000 L 18.150,15.150 Q 18.150,15.150 18.150,15.150 L 17.000,15.150 Q 17.000,15.150 17.000,15.150 L 17.000,14.450 Q 17.000,14.000 17.450,14.000 Z" fill="black"/>
<path d="M 17.850,14.000 L 19.150,14.000 Q 19.150,14.000 19.150,14.000 L 19.150,15.000 Q 19.150,15.000 19.150,15.000 L 17.850,15.000 Q 17.850,15.000 17.850,15.000 L 17.850,14.000 Q 17.850,14.000 17.850,14.000 Z" fill="black"/>
<path d="M 18.850,13.850 L 20.150,13.850 Q 20.150,13.850 20.150,13.850 L 20.150,15.000 Q 20.150,15.000 20.150,15.000 L 18.850,15.000 Q 18.850,15.000 18.850,15.000 L 18.850,13.850 Q 18.850,13.850 18.850,13.850 Z" fill="black"/>
<path d="M 19.850,13.850 L 21.000,13.850 Q 21.000,13.850 21.000,13.850 L 21.000,14.550 Q 21.000,15.000 20.550,15.000 L 19.850,15.000 Q 19.850,15.000 19.850,15.000 L 19.850,13.850 Q 19.850,13.850 19.850,13.850 Z" fill="black"/>
<path d="M 22.450,14.000 L 23.150,14.000 Q 23.150,14.000 23.150,14.000 L 23.150,15.150 Q 23.150,15.150 23.150,15.150 L 22.000,15.150 Q 22.000,15.150 22.000,15.150 L 22.000,14.450 Q 22.000,14.000 22.450,14.000 Z" fill="black"/>
<path d="M 22.850,14.000 L 24.150,14.000 Q 24.150,14.000 24.150,14.000 L 24.150,15.000 Q 24.150,15.000 24.150,15.000 L 22.850,15.000 Q 22.850,15.000 22.850,15.000 L 22.850,14.000 Q 22.850,14.000 22.850,14.000 Z" fill="black"/>
<path d="M 23.850,13.850 L 25.150,13.850 Q 25.150,13.850 25.150,13.850 L 25.150,15.000 Q 25.150,15.000 25.150,15.000 L 23.850,15.000 Q 23.850,15.000 23.850,15.000 L 23.850,13.850 Q 23.850,13.850 23.850,13.850 Z" fill="black"/>
<path d="M 24.850,13.850 L 26.150,13.850 Q 26.150,13.850 26.150,13.850 L 26.150,15.000 Q 26.150,15.000 26.150,15.000 L 24.850,15.000 Q 24.850,15.000 24.850,15.000 L 24.850,13.850 Q 24.850,13.850 24.850,13.850 Z" fill="black"/>
<path d="M 25.850,14.000 L 26.550,14.000 Q 27.000,14.000 27.000,14.450 L 27.000,15.150 Q 27.000,15.150 27.000,15.150 L 25.850,15.150 Q 25.850,15.150 25.850,15.150 L 25.850,14.000 Q 25.850,14.000 25.850,14.000 Z" fill="black"/>
<path d="M 5.000,14.850 L 6.000,14.850 Q 6.000,14.850 6.000,14.850 L 6.000,16.150 Q 6.000,16.150 6.000,16.150 L 5.000,16.150 Q 5.000,16.150 5.000,16.150 L 5.000,14.850 Q 5.000,14.850 5.000,14.850 Z" fill="black"/>
<path d="M 12.450,15.000 L 13.150,15.000 Q 13.150,15.000 13.150,15.000 L 13.150,16.150 Q 13.150,16.150 13.150,16.150 L 12.000,16.150 Q 12.000,16.150 12.000,16.150 L 12.000,15.450 Q 12.000,15.000 12.450,15.000 Z" fill="black"/>
<path d="M 12.850,15.000 L 13.550,15.000 Q 14.000,15.000 14.000,15.450 L 14.000,16.150 Q 14.000,16.150 14.000,16.150 L 12.850,16.150 Q 12.850,16.150 12.850,16.150 L 12.850,15.000 Q 12.850,15.000 12.850,15.000 Z" fill="black"/>
<path d="M 17.000,14.850 L 18.000,14.850 Q 18.000,14.850 18.000,14.850 L 18.000,16.150 Q 18.000,16.150 18.000,16.150 L 17.000,16.150 Q 17.000,16.150 17.000,16.150 L 17.000,14.850 Q 17.000,14.850 17.000,14.850 Z" fill="black"/>
<path d="M 22.000,14.850 L 23.000,14.850 Q 23.000,14.850 23.000,14.850 L 23.000,16.150 Q 23.000,16.150 23.000,16.150 L 22.000,16.150 Q 22.000,16.150 22.000,16.150 L 22.000,14.850 Q 22.000,14.850 22.000,14.850 Z" fill="black"/>
<path d="M 26.000,14.850 L 27.150,14.850 Q 27.150,14.850 27.150,14.850 L 27.150,16.150 Q 27.150,16.150 27.150,16.150 L 26.000,16.150 Q 26.000,16.150 26.000,16.150 L 26.000,14.850 Q 26.000,14.850 26.000,14.850 Z" fill="black"/>
<path d="M 26.850,15.000 L 27.550,15.000 Q 28.000,15.000 28.000,15.450 L 28.000,16.150 Q 28.000,16.150 28.000,16.150 L 26.850,16.150 Q 26.850,16.150 26.850,16.150 L 26.850,15.000 Q 26.850,15.000 26.850,15.000 Z" fill="black"/>
<path d="M 4.450,16.000 L 5.150,16.000 Q 5.150,16.000 5.150,16.000 L 5.150,17.150 Q 5.150,17.150 5.150,17.150 L 4.000,17.150 Q 4.000,17.150 4.000,17.150 L 4.000,16.450 Q 4.000,16.000 4.450,16.000 Z" fill="black"/>
<path d="M 4.850,15.850 L 6.150,15.850 Q 6.150,15.850 6.150,15.850 L 6.150,17.000 Q 6.150,17.000 6.150,17.000 L 4.850,17.000 Q 4.850,17.000 4.850,17.000 L 4.850,15.850 Q 4.850,15.850 4.850,15.850 Z" fill="black"/>
<path d="M 5.850,16.000 L 6.550,16.000 Q 7.000,16.000 7.000,16.450 L 7.000,17.150 Q 7.000,17.150 7.000,17.150 L 5.850,17.150 Q 5.850,17.150 5.850,17.150 L 5.850,16.000 Q 5.850,16.000 5.850,16.000 Z" fill="black"/>
<path d="M 9.450,16.000 L 10.150,16.000 Q 10.150,16.000 10.150,16.000 L 10.150,17.000 Q 10.150,17.000 10.150,17.000 L 9.450,17.000 Q 9.000,17.000 9.000,16.550 L 9.000,16.450 Q 9.000,16.000 9.450,16.000 Z" fill="black"/>
<path d="M 9.850,16.000 L 10.550,16.000 Q 11.000,16.000 11.000,16.450 L 11.000,16.550 Q 11.000,17.000 10.550,17.000 L 9.850,17.000 Q 9.850,17.000 9.850,17.000 L 9.850,16.000 Q 9.850,16.000 9.850,16.000 Z" fill="black"/>
<path d="M 12.000,15.850 L 13.150,15.850 Q 13.150,15.850 13.150,15.850 L 13.150,17.150 Q 13.150,17.150 13.150,17.150 L 12.000,17.150 Q 12.000,17.150 12.000,17.150 L 12.000,15.850 Q 12.000,15.850 12.000,15.850 Z" fill="black"/>
<path d="M 12.850,15.850 L 14.000,15.850 Q 14.000,15.850 14.000,15.850 L 14.000,17.150 Q 14.000,17.150 14.000,17.150 L 12.850,17.150 Q 12.850,17.150 12.850,17.150 L 12.850,15.850 Q 12.850,15.850 12.850,15.850 Z" fill="black"/>
<path d="M 16.450,16.000 L 17.150,16.000 Q 17.150,16.000 17.150,16.000 L 17.150,17.000 Q 17.150,17.000 17.150,17.000 L 16.450,17.000 Q 16.000,17.000 16.000,16.550 L 16.000,16.450 Q 16.000,16.000 16.450,16.000 Z" fill="black"/>
<path d="M 16.850,15.850 L 18.000,15.850 Q 18.000,15.850 18.000,15.850 L 18.000,17.150 Q 18.000,17.150 18.000,17.150 L 16.850,17.150 Q 16.850,17.150 16.850,17.150 L 16.850,15.850 Q 16.850,15.850 16.850,15.850 Z" fill="black"/>
<path d="M 19.450,16.000 L 19.550,16.000 Q 20.000,16.000 20.000,16.450 L 20.000,17.150 Q 20.000,17.150 20.000,17.150 L 19.000,17.150 Q 19.000,17.150 19.000,17.150 L 19.000,16.450 Q 19.000,16.000 19.450,16.000 Z" fill="black"/>
<path d="M 21.450,16.000 L 22.150,16.000 Q 22.150,16.000 22.150,16.000 L 22.150,17.150 Q 22.150,17.150 22.150,17.150 L 21.000,17.150 Q 21.000,17.150 21.000,17.150 L 21.000,16.450 Q 21.000,16.000 21.450,16.000 Z" fill="black"/>
<path d="M 21.850,15.850 L 23.000,15.850 Q 23.000,15.850 23.000,15.850 L 23.000,16.550 Q 23.000,17.000 22.550,17.000 L 21.850,17.000 Q 21.850,17.000 21.850,17.000 L 21.850,15.850 Q 21.850,15.850 21.850,15.850 Z" fill="black"/>
<path d="M 25.450,16.000 L 26.150,16.000 Q 26.150,16.000 26.150,16.000 L 26.150,17.000 Q 26.150,17.000 26.150,17.000 L 25.450,17.000 Q 25.000,17.000 25.000,16.550 L 25.000,16.450 Q 25.000,16.000 25.450,16.000 Z" fill="black"/>
<path d="M 25.850,15.850 L 27.150,15.850 Q 27.150,15.850 27.150,15.850 L 27.150,17.000 Q 27.150,17.000 27.150,17.000 L 25.850,17.000 Q 25.850,17.000 25.850,17.000 L 25.850,15.850 Q 25.850,15.850 25.850,15.850 Z" fill="black"/>
<path d="M 26.850,15.850 L 28.150,15.850 Q 28.150,15.850 28.150,15.850 L 28.150,17.150 Q 28.150,17.150 28.150,17.150 L 26.850,17.150 Q 26.850,17.150 26.850,17.150 L 26.850,15.850 Q 26.850,15.850 26.850,15.850 Z" fill="black"/>
<path d="M 27.850,16.000 L 28.550,16.000 Q 29.000,16.000 29.000,16.450 L 29.000,16.550 Q 29.000,17.000 28.550,17.000 L 27.850,17.000 Q 27.850,17.000 27.850,17.000 L 27.850,16.000 Q 27.850,16.000 27.850,16.000 Z" fill="black"/>
<path d="M 4.000,16.850 L 5.000,16.850 Q 5.000,16.850 5.000,16.850 L 5.000,17.550 Q 5.000,18.000 4.550,18.000 L 4.450,18.000 Q 4.000,18.000 4.000,17.550 L 4.000,16.850 Q 4.000,16.850 4.000,16.850 Z" fill="black"/>
<path d="M 6.000,16.850 L 7.150,16.850 Q 7.150,16.850 7.150,16.850 L 7.150,18.000 Q 7.150,18.000 7.150,18.000 L 6.450,18.000 Q 6.000,18.000 6.000,17.550 L 6.000,16.850 Q 6.000,16.850 6.000,16.850 Z" fill="black"/>
<path d="M 6.850,17.000 L 8.150,17.000 Q 8.150,17.000 8.150,17.000 L 8.150,18.150 Q 8.150,18.150 8.150,18.150 L 6.850,18.150 Q 6.850,18.150 6.850,18.150 L 6.850,17.000 Q 6.850,17.000 6.850,17.000 Z" fill="black"/>
<path d="M 7.850,17.000 L 8.550,17.000 Q 9.000,17.000 9.000,17.450 L 9.000,18.150 Q 9.000,18.150 9.000,18.150 L 7.850,18.150 Q 7.850,18.150 7.850,18.150 L 7.850,17.000 Q 7.850,17.000 7.850,17.000 Z" fill="black"/>
<path d="M 12.000,16.850 L 13.150,16.850 Q 13.150,16.850 13.150,16.850 L 13.150,18.150 Q 13.150,18.150 13.150,18.150 L 12.000,18.150 Q 12.000,18.150 12.000,18.150 L 12.000,16.850 Q 12.000,16.850 12.000,16.850 Z" fill="black"/>
<path d="M 12.850,16.850 L 14.000,16.850 Q 14.000,16.850 14.000,16.850 L 14.000,18.150 Q 14.000,18.150 14.000,18.150 L 12.850,18.150 Q 12.850,18.150 12.850,18.150 L 12.850,16.850 Q 12.850,16.850 12.850,16.850 Z" fill="black"/>
<path d="M 17.000,16.850 L 18.150,16.850 Q 18.150,16.850 18.150,16.850 L 18.150,18.000 Q 18.150,18.000 18.150,18.000 L 17.450,18.000 Q 17.000,18.000 17.000,17.550 L 17.000,16.850 Q 17.000,16.850 17.000,16.850 Z" fill="black"/>
<path d="M 17.850,17.000 L 19.150,17.000 Q 19.150,17.000 19.150,17.000 L 19.150,18.000 Q 19.150,18.000 19.150,18.000 L 17.850,18.000 Q 17.850,18.000 17.850,18.000 L 17.850,17.000 Q 17.850,17.000 17.850,17.000 Z" fill="black"/>
<path d="M 18.850,16.850 L 20.000,16.850 Q 20.000,16.850 20.000,16.850 L 20.000,18.150 Q 20.000,18.150 20.000,18.150 L 18.850,18.150 Q 18.850,18.150 18.850,18.150 L 18.850,16.850 Q 18.850,16.850 18.850,16.850 Z" fill="black"/>
<path d="M 21.000,16.850 L 22.000,16.850 Q 22.000,16.850 22.000,16.850 L 22.000,17.550 Q 22.000,18.000 21.550,18.000 L 21.450,18.000 Q 21.000,18.000 21.000,17.550 L 21.000,16.850 Q 21.000,16.850 21.000,16.850 Z" fill="black"/>
<path d="M 24.450,17.000 L 24.550,17.000 Q 25.000,17.000 25.000,17.450 L 25.000,18.150 Q 25.000,18.150 25.000,18.150 L 24.000,18.150 Q 24.000,18.150 24.000,18.150 L 24.000,17.450 Q 24.000,17.000 24.450,17.000 Z" fill="black"/>
<path d="M 27.000,16.850 L 28.000,16.850 Q 28.000,16.850 28.000,16.850 L 28.000,17.550 Q 28.000,18.000 27.550,18.000 L 27.450,18.000 Q 27.000,18.000 27.000,17.550 L 27.000,16.850 Q 27.000,16.850 27.000,16.850 Z" fill="black"/>
<path d="M 7.000,17.850 L 8.150,17.850 Q 8.150,17.850 8.150,17.850 L 8.150,19.150 Q 8.150,19.150 8.150,19.150 L 7.000,19.150 Q 7.000,19.150 7.000,19.150 L 7.000,17.850 Q 7.000,17.850 7.000,17.850 Z" fill="black"/>
<path d="M 7.850,17.850 L 9.000,17.850 Q 9.000,17.850 9.000,17.850 L 9.000,18.550 Q 9.000,19.000 8.550,19.000 L 7.850,19.000 Q 7.850,19.000 7.850,19.000 L 7.850,17.850 Q 7.850,17.850 7.850,17.850 Z" fill="black"/>
<path d="M 10.450,18.000 L 10.550,18.000 Q 11.000,18.000 11.000,18.450 L 11.000,18.550 Q 11.000,19.000 10.550,19.000 L 10.450,19.000 Q 10.000,19.000 10.000,18.550 L 10.000,18.450 Q 10.000,18.000 10.450,18.000 Z" fill="black"/>
<path d="M 12.000,17.850 L 13.150,17.850 Q 13.150,17.850 13.150,17.850 L 13.150,19.000 Q 13.150,19.000 13.150,19.000 L 12.450,19.000 Q 12.000,19.000 12.000,18.550 L 12.000,17.850 Q 12.000,17.850 12.000,17.850 Z" fill="black"/>
<path d="M 12.850,17.850 L 14.000,17.850 Q 14.000,17.850 14.000,17.850 L 14.000,18.550 Q 14.000,19.000 13.550,19.000 L 12.850,19.000 Q 12.850,19.000 12.850,19.000 L 12.850,17.850 Q 12.850,17.850 12.850,17.850 Z" fill="black"/>
<path d="M 19.000,17.850 L 20.000,17.850 Q 20.000,17.850 20.000,17.850 L 20.000,18.550 Q 20.000,19.000 19.550,19.000 L 19.450,19.000 Q 19.000,19.000 19.000,18.550 L 19.000,17.850 Q 19.000,17.850 19.000,17.850 Z" fill="black"/>
<path d="M 23.450,18.000 L 24.150,18.000 Q 24.150,18.000 24.150,18.000 L 24.150,19.150 Q 24.150,19.150 24.150,19.150 L 23.000,19.150 Q 23.000,19.150 23.000,19.150 L 23.000,18.450 Q 23.000,18.000 23.450,18.000 Z" fill="black"/>
<path d="M 23.850,17.850 L 25.150,17.850 Q 25.150,17.850 25.150,17.850 L 25.150,19.150 Q 25.150,19.150 25.150,19.150 L 23.850,19.150 Q 23.850,19.150 23.850,19.150 L 23.850,17.850 Q 23.850,17.850 23.850,17.850 Z" fill="black"/>
<path d="M 24.850,18.000 L 26.150,18.000 Q 26.150,18.000 26.150,18.000 L 26.150,19.000 Q 26.150,19.000 26.150,19.000 L 24.850,19.000 Q 24.850,19.000 24.850,19.000 L 24.850,18.000 Q 24.850,18.000 24.850,18.000 Z" fill="black"/>
<path d="M 25.850,18.000 L 26.550,18.000 Q 27.000,18.000 27.000,18.450 L 27.000,19.150 Q 27.000,19.150 27.000,19.150 L 25.850,19.150 Q 25.850,19.150 25.850,19.150 L 25.850,18.000 Q 25.850,18.000 25.850,18.000 Z" fill="black"/>
<path d="M 6.450,19.000 L 7.150,19.000 Q 7.150,19.000 7.150,19.000 L 7.150,20.000 Q 7.150,20.000 7.150,20.000 L 6.450,20.000 Q 6.000,20.000 6.000,19.550 L 6.000,19.450 Q 6.000,19.000 6.450,19.000 Z" fill="black"/>
<path d="M 6.850,18.850 L 8.000,18.850 Q 8.000,18.850 8.000,18.850 L 8.000,20.150 Q 8.000,20.150 8.000,20.150 L 6.850,20.150 Q 6.850,20.150 6.850,20.150 L 6.850,18.850 Q 6.850,18.850 6.850,18.850 Z" fill="black"/>
<path d="M 14.450,19.000 L 14.550,19.000 Q 15.000,19.000 15.000,19.450 L 15.000,20.150 Q 15.000,20.150 15.000,20.150 L 14.000,20.150 Q 14.000,20.150 14.000,20.150 L 14.000,19.450 Q 14.000,19.000 14.450,19.000 Z" fill="black"/>
<path d="M 16.450,19.000 L 16.550,19.000 Q 17.000,19.000 17.000,19.450 L 17.000,19.550 Q 17.000,20.000 16.550,20.000 L 16.450,20.000 Q 16.000,20.000 16.000,19.550 L 16.000,19.450 Q 16.000,19.000 16.450,19.000 Z" fill="black"/>
<path d="M 18.450,19.000 L 18.550,19.000 Q 19.000,19.000 19.000,19.450 L 19.000,20.150 Q 19.000,20.150 19.000,20.150 L 18.000,20.150 Q 18.000,20.150 18.000,20.150 L 18.000,19.450 Q 18.000,19.000 18.450,19.000 Z" fill="black"/>
<path d="M 20.450,19.000 L 20.550,19.000 Q 21.000,19.000 21.000,19.450 L 21.000,20.150 Q 21.000,20.150 21.000,20.150 L 20.000,20.150 Q 20.000,20.150 20.000,20.150 L 20.000,19.450 Q 20.000,19.000 20.450,19.000 Z" fill="black"/>
<path d="M 23.000,18.850 L 24.150,18.850 Q 24.150,18.850 24.150,18.850 L 24.150,20.150 Q 24.150,20.150 24.150,20.150 L 23.000,20.150 Q 23.000,20.150 23.000,20.150 L 23.000,18.850 Q 23.000,18.850 23.000,18.850 Z" fill="black"/>
<path d="M 23.850,18.850 L 25.000,18.850 Q 25.000,18.850 25.000,18.850 L 25.000,20.150 Q 25.000,20.150 25.000,20.150 L 23.850,20.150 Q 23.850,20.150 23.850,20.150 L 23.850,18.850 Q 23.850,18.850 23.850,18.850 Z" fill="black"/>
<path d="M 26.000,18.850 L 27.150,18.850 Q 27.150,18.850 27.150,18.850 L 27.150,20.150 Q 27.150,20.150 27.150,20.150 L 26.000,20.150 Q 26.000,20.150 26.000,20.150 L 26.000,18.850 Q 26.000,18.850 26.000,18.850 Z" fill="black"/>
<path d="M 26.850,19.000 L 27.550,19.000 Q 28.000,19.000 28.000,19.450 L 28.000,19.550 Q 28.000,20.000 27.550,20.000 L 26.850,20.000 Q 26.850,20.000 26.850,20.000 L 26.850,19.000 Q 26.850,19.000 26.850,19.000 Z" fill="black"/>
<path d="M 4.450,20.000 L 5.150,20.000 Q 5.150,20.000 5.150,20.000 L 5.150,21.000 Q 5.150,21.000 5.150,21.000 L 4.450,21.000 Q 4.000,21.000 4.000,20.550 L 4.000,20.450 Q 4.000,20.000 4.450,20.000 Z" fill="black"/>
<path d="M 4.850,20.000 L 5.550,20.000 Q 6.000,20.000 6.000,20.450 L 6.000,20.550 Q 6.000,21.000 5.550,21.000 L 4.850,21.000 Q 4.850,21.000 4.850,21.000 L 4.850,20.000 Q 4.850,20.000 4.850,20.000 Z" fill="black"/>
<path d="M 7.000,19.850 L 8.150,19.850 Q 8.150,19.850 8.150,19.850 L 8.150,21.000 Q 8.150,21.000 8.150,21.000 L 7.450,21.000 Q 7.000,21.000 7.000,20.550 L 7.000,19.850 Q 7.000,19.850 7.000,19.850 Z" fill="black"/>
<path d="M 7.850,20.000 L 8.550,20.000 Q 9.000,20.000 9.000,20.450 L 9.000,20.550 Q 9.000,21.000 8.550,21.000 L 7.850,21.000 Q 7.850,21.000 7.850,21.000 L 7.850,20.000 Q 7.850,20.000 7.850,20.000 Z" fill="black"/>
<path d="M 10.450,20.000 L 10.550,20.000 Q 11.000,20.000 11.000,20.450 L 11.000,20.550 Q 11.000,21.000 10.550,21.000 L 10.450,21.000 Q 10.000,21.000 10.000,20.550 L 10.000,20.450 Q 10.000,20.000 10.450,20.000 Z" fill="black"/>
<path d="M 14.000,19.850 L 15.150,19.850 Q 15.150,19.850 15.150,19.850 L 15.150,21.150 Q 15.150,21.150 15.150,21.150 L 14.000,21.150 Q 14.000,21.150 14.000,21.150 L 14.000,19.850 Q 14.000,19.850 14.000,19.850 Z" fill="black"/>
<path d="M 14.850,20.000 L 15.550,20.000 Q 16.000,20.000 16.000,20.450 L 16.000,20.550 Q 16.000,21.000 15.550,21.000 L 14.850,21.000 Q 14.850,21.000 14.850,21.000 L 14.850,20.000 Q 14.850,20.000 14.850,20.000 Z" fill="black"/>
<path d="M 17.450,20.000 L 18.150,20.000 Q 18.150,20.000 18.150,20.000 L 18.150,21.000 Q 18.150,21.000 18.150,21.000 L 17.450,21.000 Q 17.000,21.000 17.000,20.550 L 17.000,20.450 Q 17.000,20.000 17.450,20.000 Z" fill="black"/>
<path d="M 17.850,19.850 L 19.000,19.850 Q 19.000,19.850 19.000,19.850 L 19.000,20.550 Q 19.000,21.000 18.550,21.000 L 17.850,21.000 Q 17.850,21.000 17.850,21.000 L 17.850,19.850 Q 17.850,19.850 17.850,19.850 Z" fill="black"/>
<path d="M 20.000,19.850 L 21.150,19.850 Q 21.150,19.850 21.150,19.850 L 21.150,21.150 Q 21.150,21.150 21.150,21.150 L 20.000,21.150 Q 20.000,21.150 20.000,21.150 L 20.000,19.850 Q 20.000,19.850 20.000,19.850 Z" fill="black"/>
<path d="M 20.850,20.000 L 22.150,20.000 Q 22.150,20.000 22.150,20.000 L 22.150,21.000 Q 22.150,21.000 22.150,21.000 L 20.850,21.000 Q 20.850,21.000 20.850,21.000 L 20.850,20.000 Q 20.850,20.000 20.850,20.000 Z" fill="black"/>
<path d="M 21.850,20.000 L 23.150,20.000 Q 23.150,20.000 23.150,20.000 L 23.150,21.000 Q 23.150,21.000 23.150,21.000 L 21.850,21.000 Q 21.850,21.000 21.850,21.000 L 21.850,20.000 Q 21.850,20.000 21.850,20.000 Z" fill="black"/>
<path d="M 22.850,19.850 L 24.150,19.850 Q 24.150,19.850 24.150,19.850 L 24.150,21.000 Q 24.150,21.000 24.150,21.000 L 22.850,21.000 Q 22.850,21.000 22.850,21.000 L 22.850,19.850 Q 22.850,19.850 22.850,19.850 Z" fill="black"/>
<path d="M 23.850,19.850 L 25.150,19.850 Q 25.150,19.850 25.150,19.850 L 25.150,21.150 Q 25.150,21.150 25.150,21.150 L 23.850,21.150 Q 23.850,21.150 23.850,21.150 L 23.850,19.850 Q 23.850,19.850 23.850,19.850 Z" fill="black"/>
<path d="M 24.850,20.000 L 26.150,20.000 Q 26.150,20.000 26.150,20.000 L 26.150,21.000 Q 26.150,21.000 26.150,21.000 L 24.850,21.000 Q 24.850,21.000 24.850,21.000 L 24.850,20.000 Q 24.850,20.000 24.850,20.000 Z" fill="black"/>
<path d="M 25.850,19.850 L 27.000,19.850 Q 27.000,19.850 27.000,19.850 L 27.000,20.550 Q 27.000,21.000 26.550,21.000 L 25.850,21.000 Q 25.850,21.000 25.850,21.000 L 25.850,19.850 Q 25.850,19.850 25.850,19.850 Z" fill="black"/>
<path d="M 12.450,21.000 L 13.150,21.000 Q 13.150,21.000 13.150,21.000 L 13.150,22.150 Q 13.150,22.150 13.150,22.150 L 12.000,22.150 Q 12.000,22.150 12.000,22.150 L 12.000,21.450 Q 12.000,21.000 12.450,21.000 Z" fill="black"/>
<path d="M 12.850,21.000 L 14.150,21.000 Q 14.150,21.000 14.150,21.000 L 14.150,22.000 Q 14.150,22.000 14.150,22.000 L 12.850,22.000 Q 12.850,22.000 12.850,22.000 L 12.850,21.000 Q 12.850,21.000 12.850,21.000 Z" fill="black"/>
<path d="M 13.850,20.850 L 15.000,20.850 Q 15.000,20.850 15.000,20.850 L 15.000,21.550 Q 15.000,22.000 14.550,22.000 L 13.850,22.000 Q 13.850,22.000 13.850,22.000 L 13.850,20.850 Q 13.850,20.850 13.850,20.850 Z" fill="black"/>
<path d="M 16.450,21.000 L 16.550,21.000 Q 17.000,21.000 17.000,21.450 L 17.000,22.150 Q 17.000,22.150 17.000,22.150 L 16.000,22.150 Q 16.000,22.150 16.000,22.150 L 16.000,21.450 Q 16.000,21.000 16.450,21.000 Z" fill="black"/>
<path d="M 19.450,21.000 L 20.150,21.000 Q 20.150,21.000 20.150,21.000 L 20.150,22.000 Q 20.150,22.000 20.150,22.000 L 19.450,22.000 Q 19.000,22.000 19.000,21.550 L 19.000,21.450 Q 19.000,21.000 19.450,21.000 Z" fill="black"/>
<path d="M 19.850,20.850 L 21.000,20.850 Q 21.000,20.850 21.000,20.850 L 21.000,22.150 Q 21.000,22.150 21.000,22.150 L 19.850,22.150 Q 19.850,22.150 19.850,22.150 L 19.850,20.850 Q 19.850,20.850 19.850,20.850 Z" fill="black"/>
<path d="M 24.000,20.850 L 25.000,20.850 Q 25.000,20.850 25.000,20.850 L 25.000,22.150 Q 25.000,22.150 25.000,22.150 L 24.000,22.150 Q 24.000,22.150 24.000,22.150 L 24.000,20.850 Q 24.000,20.850 24.000,20.850 Z" fill="black"/>
<path d="M 12.000,21.850 L 13.000,21.850 Q 13.000,21.850 13.000,21.850 L 13.000,22.550 Q 13.000,23.000 12.550,23.000 L 12.450,23.000 Q 12.000,23.000 12.000,22.550 L 12.000,21.850 Q 12.000,21.850 12.000,21.850 Z" fill="black"/>
<path d="M 15.450,22.000 L 16.150,22.000 Q 16.150,22.000 16.150,22.000 L 16.150,23.150 Q 16.150,23.150 16.150,23.150 L 15.000,23.150 Q 15.000,23.150 15.000,23.150 L 15.000,22.450 Q 15.000,22.000 15.450,22.000 Z" fill="black"/>
<path d="M 15.850,21.850 L 17.150,21.850 Q 17.150,21.850 17.150,21.850 L 17.150,23.000 Q 17.150,23.000 17.150,23.000 L 15.850,23.000 Q 15.850,23.000 15.850,23.000 L 15.850,21.850 Q 15.850,21.850 15.850,21.850 Z" fill="black"/>
<path d="M 16.850,22.000 L 18.150,22.000 Q 18.150,22.000 18.150,22.000 L 18.150,23.150 Q 18.150,23.150 18.150,23.150 L 16.850,23.150 Q 16.850,23.150 16.850,23.150 L 16.850,22.000 Q 16.850,22.000 16.850,22.000 Z" fill="black"/>
<path d="M 17.850,22.000 L 18.550,22.000 Q 19.000,22.000 19.000,22.450 L 19.000,22.550 Q 19.000,23.000 18.550,23.000 L 17.850,23.000 Q 17.850,23.000 17.850,23.000 L 17.850,22.000 Q 17.850,22.000 17.850,22.000 Z" fill="black"/>
<path d="M 20.000,21.850 L 21.000,21.850 Q 21.000,21.850 21.000,21.850 L 21.000,23.150 Q 21.000,23.150 21.000,23.150 L 20.000,23.150 Q 20.000,23.150 20.000,23.150 L 20.000,21.850 Q 20.000,21.850 20.000,21.850 Z" fill="black"/>
<path d="M 22.450,22.000 L 22.550,22.000 Q 23.000,22.000 23.000,22.450 L 23.000,22.550 Q 23.000,23.000 22.550,23.000 L 22.450,23.000 Q 22.000,23.000 22.000,22.550 L 22.000,22.450 Q 22.000,22.000 22.450,22.000 Z" fill="black"/>
<path d="M 24.000,21.850 L 25.000,21.850 Q 25.000,21.850 25.000,21.850 L 25.000,23.150 Q 25.000,23.150 25.000,23.150 L 24.000,23.150 Q 24.000,23.150 24.000,23.150 L 24.000,21.850 Q 24.000,21.850 24.000,21.850 Z" fill="black"/>
<path d="M 13.450,23.000 L 13.550,23.000 Q 14.000,23.000 14.000,23.450 L 14.000,23.550 Q 14.000,24.000 13.550,24.000 L 13.450,24.000 Q 13.000,24.000 13.000,23.550 L 13.000,23.450 Q 13.000,23.000 13.450,23.000 Z" fill="black"/>
<path d="M 15.000,22.850 L 16.000,22.850 Q 16.000,22.850 16.000,22.850 L 16.000,23.550 Q 16.000,24.000 15.550,24.000 L 15.450,24.000 Q 15.000,24.000 15.000,23.550 L 15.000,22.850 Q 15.000,22.850 15.000,22.850 Z" fill="black"/>
<path d="M 17.000,22.850 L 18.000,22.850 Q 18.000,22.850 18.000,22.850 L 18.000,24.150 Q 18.000,24.150 18.000,24.150 L 17.000,24.150 Q 17.000,24.150 17.000,24.150 L 17.000,22.850 Q 17.000,22.850 17.000,22.850 Z" fill="black"/>
<path d="M 19.450,23.000 L 20.150,23.000 Q 20.150,23.000 20.150,23.000 L 20.150,24.000 Q 20.150,24.000 20.150,24.000 L 19.450,24.000 Q 19.000,24.000 19.000,23.550 L 19.000,23.450 Q 19.000,23.000 19.450,23.000 Z" fill="black"/>
<path d="M 19.850,22.850 L 21.000,22.850 Q 21.000,22.850 21.000,22.850 L 21.000,24.150 Q 21.000,24.150 21.000,24.150 L 19.850,24.150 Q 19.850,24.150 19.850,24.150 L 19.850,22.850 Q 19.850,22.850 19.850,22.850 Z" fill="black"/>
<path d="M 24.000,22.850 L 25.150,22.850 Q 25.150,22.850 25.150,22.850 L 25.150,24.150 Q 25.150,24.150 25.150,24.150 L 24.000,24.150 Q 24.000,24.150 24.000,24.150 L 24.000,22.850 Q 24.000,22.850 24.000,22.850 Z" fill="black"/>
<path d="M 24.850,23.000 L 26.150,23.000 Q 26.150,23.000 26.150,23.000 L 26.150,24.150 Q 26.150,24.150 26.150,24.150 L 24.850,24.150 Q 24.850,24.150 24.850,24.150 L 24.850,23.000 Q 24.850,23.000 24.850,23.000 Z" fill="black"/>
<path d="M 25.850,23.000 L 26.550,23.000 Q 27.000,23.000 27.000,23.450 L 27.000,24.150 Q 27.000,24.150 27.000,24.150 L 25.850,24.150 Q 25.850,24.150 25.850,24.150 L 25.850,23.000 Q 25.850,23.000 25.850,23.000 Z" fill="black"/>
<path d="M 12.450,24.000 L 12.550,24.000 Q 13.000,24.000 13.000,24.450 L 13.000,24.550 Q 13.000,25.000 12.550,25.000 L 12.450,25.000 Q 12.000,25.000 12.000,24.550 L 12.000,24.450 Q 12.000,24.000 12.450,24.000 Z" fill="black"/>
<path d="M 14.450,24.000 L 14.550,24.000 Q 15.000,24.000 15.000,24.450 L 15.000,25.150 Q 15.000,25.150 15.000,25.150 L 14.000,25.150 Q 14.000,25.150 14.000,25.150 L 14.000,24.450 Q 14.000,24.000 14.450,24.000 Z" fill="black"/>
<path d="M 16.450,24.000 L 17.150,24.000 Q 17.150,24.000 17.150,24.000 L 17.150,25.000 Q 17.150,25.000 17.150,25.000 L 16.450,25.000 Q 16.000,25.000 16.000,24.550 L 16.000,24.450 Q 16.000,24.000 16.450,24.000 Z" fill="black"/>
<path d="M 16.850,23.850 L 18.000,23.850 Q 18.000,23.850 18.000,23.850 L 18.000,25.150 Q 18.000,25.150 18.000,25.150 L 16.850,25.150 Q 16.850,25.150 16.850,25.150 L 16.850,23.850 Q 16.850,23.850 16.850,23.850 Z" fill="black"/>
<path d="M 20.000,23.850 L 21.150,23.850 Q 21.150,23.850 21.150,23.850 L 21.150,25.150 Q 21.150,25.150 21.150,25.150 L 20.000,25.150 Q 20.000,25.150 20.000,25.150 L 20.000,23.850 Q 20.000,23.850 20.000,23.850 Z" fill="black"/>
<path d="M 20.850,24.000 L 22.150,24.000 Q 22.150,24.000 22.150,24.000 L 22.150,25.150 Q 22.150,25.150 22.150,25.150 L 20.850,25.150 Q 20.850,25.150 20.850,25.150 L 20.850,24.000 Q 20.850,24.000 20.850,24.000 Z" fill="black"/>
<path d="M 21.850,24.000 L 23.150,24.000 Q 23.150,24.000 23.150,24.000 L 23.150,25.150 Q 23.150,25.150 23.150,25.150 L 21.850,25.150 Q 21.850,25.150 21.850,25.150 L 21.850,24.000 Q 21.850,24.000 21.850,24.000 Z" fill="black"/>
<path d="M 22.850,24.000 L 24.150,24.000 Q 24.150,24.000 24.150,24.000 L 24.150,25.150 Q 24.150,25.150 24.150,25.150 L 22.850,25.150 Q 22.850,25.150 22.850,25.150 L 22.850,24.000 Q 22.850,24.000 22.850,24.000 Z" fill="black"/>
<path d="M 23.850,23.850 L 25.150,23.850 Q 25.150,23.850 25.150,23.850 L 25.150,25.000 Q 25.150,25.000 25.150,25.000 L 23.850,25.000 Q 23.850,25.000 23.850,25.000 L 23.850,23.850 Q 23.850,23.850 23.850,23.850 Z" fill="black"/>
<path d="M 24.850,23.850 L 26.150,23.850 Q 26.150,23.850 26.150,23.850 L 26.150,25.000 Q 26.150,25.000 26.150,25.000 L 24.850,25.000 Q 24.850,25.000 24.850,25.000 L 24.850,23.850 Q 24.850,23.850 24.850,23.850 Z" fill="black"/>
<path d="M 25.850,23.850 L 27.000,23.850 Q 27.000,23.850 27.000,23.850 L 27.000,25.150 Q 27.000,25.150 27.000,25.150 L 25.850,25.150 Q 25.850,25.150 25.850,25.150 L 25.850,23.850 Q 25.850,23.850 25.850,23.850 Z" fill="black"/>
<path d="M 28.450,24.000 L 28.550,24.000 Q 29.000,24.000 29.000,24.450 L 29.000,25.150 Q 29.000,25.150 29.000,25.150 L 28.000,25.150 Q 28.000,25.150 28.000,25.150 L 28.000,24.450 Q 28.000,24.000 28.450,24.000 Z" fill="black"/>
<path d="M 14.000,24.850 L 15.000,24.850 Q 15.000,24.850 15.000,24.850 L 15.000,26.150 Q 15.000,26.150 15.000,26.150 L 14.000,26.150 Q 14.000,26.150 14.000,26.150 L 14.000,24.850 Q 14.000,24.850 14.000,24.850 Z" fill="black"/>
<path d="M 17.000,24.850 L 18.150,24.850 Q 18.150,24.850 18.150,24.850 L 18.150,26.000 Q 18.150,26.000 18.150,26.000 L 17.450,26.000 Q 17.000,26.000 17.000,25.550 L 17.000,24.850 Q 17.000,24.850 17.000,24.850 Z" fill="black"/>
<path d="M 17.850,25.000 L 18.550,25.000 Q 19.000,25.000 19.000,25.450 L 19.000,25.550 Q 19.000,26.000 18.550,26.000 L 17.850,26.000 Q 17.850,26.000 17.850,26.000 L 17.850,25.000 Q 17.850,25.000 17.850,25.000 Z" fill="black"/>
<path d="M 20.000,24.850 L 21.150,24.850 Q 21.150,24.850 21.150,24.850 L 21.150,26.150 Q 21.150,26.150 21.150,26.150 L 20.000,26.150 Q 20.000,26.150 20.000,26.150 L 20.000,24.850 Q 20.000,24.850 20.000,24.850 Z" fill="black"/>
<path d="M 20.850,24.850 L 22.150,24.850 Q 22.150,24.850 22.150,24.850 L 22.150,26.150 Q 22.150,26.150 22.150,26.150 L 20.850,26.150 Q 20.850,26.150 20.850,26.150 L 20.850,24.850 Q 20.850,24.850 20.850,24.850 Z" fill="black"/>
<path d="M 21.850,24.850 L 23.150,24.850 Q 23.150,24.850 23.150,24.850 L 23.150,26.150 Q 23.150,26.150 23.150,26.150 L 21.850,26.150 Q 21.850,26.150 21.850,26.150 L 21.850,24.850 Q 21.850,24.850 21.850,24.850 Z" fill="black"/>
<path d="M 22.850,24.850 L 24.000,24.850 Q 24.000,24.850 24.000,24.850 L 24.000,25.550 Q 24.000,26.000 23.550,26.000 L 22.850,26.000 Q 22.850,26.000 22.850,26.000 L 22.850,24.850 Q 22.850,24.850 22.850,24.850 Z" fill="black"/>
<path d="M 26.000,24.850 L 27.150,24.850 Q 27.150,24.850 27.150,24.850 L 27.150,26.000 Q 27.150,26.000 27.150,26.000 L 26.450,26.000 Q 26.000,26.000 26.000,25.550 L 26.000,24.850 Q 26.000,24.850 26.000,24.850 Z" fill="black"/>
<path d="M 26.850,25.000 L 28.150,25.000 Q 28.150,25.000 28.150,25.000 L 28.150,26.150 Q 28.150,26.150 28.150,26.150 L 26.850,26.150 Q 26.850,26.150 26.850,26.150 L 26.850,25.000 Q 26.850,25.000 26.850,25.000 Z" fill="black"/>
<path d="M 27.850,24.850 L 29.000,24.850 Q 29.000,24.850 29.000,24.850 L 29.000,25.550 Q 29.000,26.000 28.550,26.000 L 27.850,26.000 Q 27.850,26.000 27.850,26.000 L 27.850,24.850 Q 27.850,24.850 27.850,24.850 Z" fill="black"/>
<path d="M 14.000,25.850 L 15.000,25.850 Q 15.000,25.850 15.000,25.850 L 15.000,26.550 Q 15.000,27.000 14.550,27.000 L 14.450,27.000 Q 14.000,27.000 14.000,26.550 L 14.000,25.850 Q 14.000,25.850 14.000,25.850 Z" fill="black"/>
<path d="M 19.450,26.000 L 20.150,26.000 Q 20.150,26.000 20.150,26.000 L 20.150,27.000 Q 20.150,27.000 20.150,27.000 L 19.450,27.000 Q 19.000,27.000 19.000,26.550 L 19.000,26.450 Q 19.000,26.000 19.450,26.000 Z" fill="black"/>
<path d="M 19.850,25.850 L 21.150,25.850 Q 21.150,25.850 21.150,25.850 L 21.150,27.000 Q 21.150,27.000 21.150,27.000 L 19.850,27.000 Q 19.850,27.000 19.850,27.000 L 19.850,25.850 Q 19.850,25.850 19.850,25.850 Z" fill="black"/>
<path d="M 20.850,25.850 L 22.150,25.850 Q 22.150,25.850 22.150,25.850 L 22.150,27.000 Q 22.150,27.000 22.150,27.000 L 20.850,27.000 Q 20.850,27.000 20.850,27.000 L 20.850,25.850 Q 20.850,25.850 20.850,25.850 Z" fill="black"/>
<path d="M 21.850,25.850 L 23.000,25.850 Q 23.000,25.850 23.000,25.850 L 23.000,27.150 Q 23.000,27.150 23.000,27.150 L 21.850,27.150 Q 21.850,27.150 21.850,27.150 L 21.850,25.850 Q 21.850,25.850 21.850,25.850 Z" fill="black"/>
<path d="M 25.450,26.000 L 25.550,26.000 Q 26.000,26.000 26.000,26.450 L 26.000,27.150 Q 26.000,27.150 26.000,27.150 L 25.000,27.150 Q 25.000,27.150 25.000,27.150 L 25.000,26.450 Q 25.000,26.000 25.450,26.000 Z" fill="black"/>
<path d="M 27.000,25.850 L 28.000,25.850 Q 28.000,25.850 28.000,25.850 L 28.000,27.150 Q 28.000,27.150 28.000,27.150 L 27.000,27.150 Q 27.000,27.150 27.000,27.150 L 27.000,25.850 Q 27.000,25.850 27.000,25.850 Z" fill="black"/>
<path d="M 16.450,27.000 L 16.550,27.000 Q 17.000,27.000 17.000,27.450 L 17.000,27.550 Q 17.000,28.000 16.550,28.000 L 16.450,28.000 Q 16.000,28.000 16.000,27.550 L 16.000,27.450 Q 16.000,27.000 16.450,27.000 Z" fill="black"/>
<path d="M 18.450,27.000 L 18.550,27.000 Q 19.000,27.000 19.000,27.450 L 19.000,28.150 Q 19.000,28.150 19.000,28.150 L 18.000,28.150 Q 18.000,28.150 18.000,28.150 L 18.000,27.450 Q 18.000,27.000 18.450,27.000 Z" fill="black"/>
<path d="M 22.000,26.850 L 23.150,26.850 Q 23.150,26.850 23.150,26.850 L 23.150,28.150 Q 23.150,28.150 23.150,28.150 L 22.000,28.150 Q 22.000,28.150 22.000,28.150 L 22.000,26.850 Q 22.000,26.850 22.000,26.850 Z" fill="black"/>
<path d="M 22.850,27.000 L 24.150,27.000 Q 24.150,27.000 24.150,27.000 L 24.150,28.000 Q 24.150,28.000 24.150,28.000 L 22.850,28.000 Q 22.850,28.000 22.850,28.000 L 22.850,27.000 Q 22.850,27.000 22.850,27.000 Z" fill="black"/>
<path d="M 23.850,27.000 L 25.150,27.000 Q 25.150,27.000 25.150,27.000 L 25.150,28.000 Q 25.150,28.000 25.150,28.000 L 23.850,28.000 Q 23.850,28.000 23.850,28.000 L 23.850,27.000 Q 23.850,27.000 23.850,27.000 Z" fill="black"/>
<path d="M 24.850,26.850 L 26.150,26.850 Q 26.150,26.850 26.150,26.850 L 26.150,28.000 Q 26.150,28.000 26.150,28.000 L 24.850,28.000 Q 24.850,28.000 24.850,28.000 L 24.850,26.850 Q 24.850,26.850 24.850,26.850 Z" fill="black"/>
<path d="M 25.850,27.000 L 27.150,27.000 Q 27.150,27.000 27.150,27.000 L 27.150,28.150 Q 27.150,28.150 27.150,28.150 L 25.850,28.150 Q 25.850,28.150 25.850,28.150 L 25.850,27.000 Q 25.850,27.000 25.850,27.000 Z" fill="black"/>
<path d="M 26.850,26.850 L 28.000,26.850 Q 28.000,26.850 28.000,26.850 L 28.000,28.150 Q 28.000,28.150 28.000,28.150 L 26.850,28.150 Q 26.850,28.150 26.850,28.150 L 26.850,26.850 Q 26.850,26.850 26.850,26.850 Z" fill="black"/>
<path d="M 12.450,28.000 L 13.150,28.000 Q 13.150,28.000 13.150,28.000 L 13.150,29.000 Q 13.150,29.000 13.150,29.000 L 12.450,29.000 Q 12.000,29.000 12.000,28.550 L 12.000,28.450 Q 12.000,28.000 12.450,28.000 Z" fill="black"/>
<path d="M 12.850,28.000 L 13.550,28.000 Q 14.000,28.000 14.000,28.450 L 14.000,28.550 Q 14.000,29.000 13.550,29.000 L 12.850,29.000 Q 12.850,29.000 12.850,29.000 L 12.850,28.000 Q 12.850,28.000 12.850,28.000 Z" fill="black"/>
<path d="M 15.450,28.000 L 15.550,28.000 Q 16.000,28.000 16.000,28.450 L 16.000,28.550 Q 16.000,29.000 15.550,29.000 L 15.450,29.000 Q 15.000,29.000 15.000,28.550 L 15.000,28.450 Q 15.000,28.000 15.450,28.000 Z" fill="black"/>
<path d="M 17.450,28.000 L 18.150,28.000 Q 18.150,28.000 18.150,28.000 L 18.150,29.000 Q 18.150,29.000 18.150,29.000 L 17.450,29.000 Q 17.000,29.000 17.000,28.550 L 17.000,28.450 Q 17.000,28.000 17.450,28.000 Z" fill="black"/>
<path d="M 17.850,27.850 L 19.000,27.850 Q 19.000,27.850 19.000,27.850 L 19.000,28.550 Q 19.000,29.000 18.550,29.000 L 17.850,29.000 Q 17.850,29.000 17.850,29.000 L 17.850,27.850 Q 17.850,27.850 17.850,27.850 Z" fill="black"/>
<path d="M 22.000,27.850 L 23.000,27.850 Q 23.000,27.850 23.000,27.850 L 23.000,28.550 Q 23.000,29.000 22.550,29.000 L 22.450,29.000 Q 22.000,29.000 22.000,28.550 L 22.000,27.850 Q 22.000,27.850 22.000,27.850 Z" fill="black"/>
<path d="M 26.000,27.850 L 27.150,27.850 Q 27.150,27.850 27.150,27.850 L 27.150,29.000 Q 27.150,29.000 27.150,29.000 L 26.450,29.000 Q 26.000,29.000 26.000,28.550 L 26.000,27.850 Q 26.000,27.850 26.000,27.850 Z" fill="black"/>
<path d="M 26.850,27.850 L 28.150,27.850 Q 28.150,27.850 28.150,27.850 L 28.150,29.000 Q 28.150,29.000 28.150,29.000 L 26.850,29.000 Q 26.850,29.000 26.850,29.000 L 26.850,27.850 Q 26.850,27.850 26.850,27.850 Z" fill="black"/>
<path d="M 27.850,28.000 L 28.550,28.000 Q 29.000,28.000 29.000,28.450 L 29.000,28.550 Q 29.000,29.000 28.550,29.000 L 27.850,29.000 Q 27.850,29.000 27.850,29.000 L 27.850,28.000 Q 27.850,28.000 27.850,28.000 Z" fill="black"/>
</svg>